<svg width="30" height="30" viewBox="0 0 30 30" fill="none" xmlns="http://www.w3.org/2000/svg">
<path d="M11.909 22.6414L12.1875 22.3351V20.8242L7.62451 11.1914H5.50049L0.9375 20.8242V22.4087L1.18559 22.6779C1.86697 23.4157 2.69352 24.0047 3.61336 24.4079C4.53319 24.811 5.52644 25.0196 6.53074 25.0206H6.55535C7.56379 25.0162 8.56031 24.8024 9.48185 24.3929C10.4034 23.9833 11.2299 23.3869 11.909 22.6414ZM10.3125 21.5981C9.31219 22.5917 7.95884 23.1482 6.54896 23.1458H6.52963C5.14456 23.1527 3.81127 22.6198 2.8125 21.6602V21.2461L6.5625 13.3294L10.3125 21.2461V21.5981ZM24.4995 11.1914H22.3755L17.8125 20.8242V22.4087L18.0606 22.6779C18.742 23.4157 19.5685 24.0047 20.4884 24.4079C21.4082 24.811 22.4014 25.0196 23.4057 25.0206H23.4304C24.4388 25.0162 25.4353 24.8024 26.3569 24.3928C27.2784 23.9833 28.1049 23.3868 28.784 22.6413L29.0625 22.3351V20.8242L24.4995 11.1914ZM27.1875 21.5981C26.1872 22.5917 24.8338 23.1482 23.424 23.1458H23.4046C22.0196 23.1527 20.6863 22.6198 19.6875 21.6602V21.2461L23.4375 13.3294L27.1875 21.2461V21.5981Z" fill="#68B0AB"/>
<path d="M15.9375 11.523C16.459 11.3662 16.9336 11.0826 17.3186 10.6976C17.7037 10.3125 17.9873 9.83795 18.1441 9.31642H24.375V7.44142H18.1441C17.9423 6.76427 17.5273 6.17037 16.9608 5.74807C16.3943 5.32577 15.7066 5.09766 15 5.09766C14.2934 5.09766 13.6057 5.32577 13.0392 5.74807C12.4727 6.17037 12.0577 6.76427 11.8559 7.44142H5.625V9.31642H11.8559C12.0127 9.83795 12.2963 10.3125 12.6814 10.6976C13.0664 11.0826 13.541 11.3662 14.0625 11.523V27.1289H7.96875V29.0039H22.0312V27.1289H15.9375V11.523ZM13.5938 8.37892C13.5938 8.10079 13.6762 7.82891 13.8307 7.59765C13.9853 7.36639 14.2049 7.18615 14.4619 7.07972C14.7188 6.97328 15.0016 6.94543 15.2743 6.99969C15.5471 7.05395 15.7977 7.18788 15.9944 7.38455C16.191 7.58122 16.325 7.83179 16.3792 8.10458C16.4335 8.37736 16.4056 8.66011 16.2992 8.91707C16.1928 9.17403 16.0125 9.39366 15.7813 9.54818C15.55 9.7027 15.2781 9.78517 15 9.78517C14.627 9.78517 14.2694 9.63701 14.0056 9.37329C13.7419 9.10957 13.5938 8.75188 13.5938 8.37892Z" fill="#68B0AB"/>
</svg>
