<svg width="30" height="30" viewBox="0 0 30 30" fill="none" xmlns="http://www.w3.org/2000/svg">
<g clip-path="url(#clip0_8_15)">
<path d="M29.0625 29.0625H28.125C24.2716 29.0623 20.5474 27.673 17.6353 25.1495L16.6493 24.295C16.1011 24.3482 15.5507 24.3749 15 24.375C11.2777 24.375 7.77041 23.1779 5.12414 21.0042C2.42432 18.7865 0.9375 15.8218 0.9375 12.6562C0.9375 9.49072 2.42432 6.526 5.12414 4.30834C7.77041 2.13463 11.2777 0.9375 15 0.9375C18.7223 0.9375 22.2296 2.13463 24.8759 4.30834C27.5757 6.526 29.0625 9.49072 29.0625 12.6562C29.0612 14.339 28.6365 15.9943 27.8275 17.4698C27.1253 18.7549 26.1902 19.8981 25.0698 20.8411C25.9071 22.9701 27.1726 24.9046 28.7879 26.5247L29.0625 26.7992V29.0625ZM17.2533 22.3372L18.8633 23.7326C21.0838 25.6569 23.8485 26.8419 26.7734 27.1228C25.1596 25.319 23.9134 23.2175 23.1045 20.9363L22.8469 20.2061L23.3865 19.7919C25.8377 17.9108 27.1875 15.3767 27.1875 12.6562C27.1875 7.22836 21.7202 2.8125 15 2.8125C8.27982 2.8125 2.8125 7.22836 2.8125 12.6562C2.8125 18.0841 8.27982 22.5 15 22.5C15.615 22.4999 16.2294 22.4625 16.8398 22.3879L17.2533 22.3372Z" fill="#68B0AB"/>
</g>
<defs>
<clipPath id="clip0_8_15">
<rect width="30" height="30" fill="white"/>
</clipPath>
</defs>
</svg>
