<svg width="30" height="30" viewBox="0 0 30 30" fill="none" xmlns="http://www.w3.org/2000/svg">
<path d="M16.93 13.0701C15.9061 12.0466 14.5177 11.4717 13.07 11.4717C11.6223 11.4717 10.2339 12.0466 9.21001 13.0701L5.34876 16.9301C4.32486 17.954 3.74963 19.3427 3.74963 20.7907C3.74963 22.2387 4.32486 23.6274 5.34876 24.6513C6.37266 25.6752 7.76137 26.2504 9.20938 26.2504C10.6574 26.2504 12.0461 25.6752 13.07 24.6513L15 22.7213" stroke="#68B0AB" stroke-width="3.33333" stroke-linecap="round" stroke-linejoin="round"/>
<path d="M13.0701 16.9299C14.094 17.9533 15.4824 18.5283 16.9301 18.5283C18.3778 18.5283 19.7662 17.9533 20.7901 16.9299L24.6513 13.0699C25.6752 12.046 26.2504 10.6573 26.2504 9.20926C26.2504 7.76124 25.6752 6.37254 24.6513 5.34863C23.6274 4.32473 22.2387 3.74951 20.7907 3.74951C19.3427 3.74951 17.954 4.32473 16.9301 5.34863L15.0001 7.27863" stroke="#68B0AB" stroke-width="3.33333" stroke-linecap="round" stroke-linejoin="round"/>
</svg>
