<svg width="30" height="30" viewBox="0 0 30 30" fill="none" xmlns="http://www.w3.org/2000/svg">
<path d="M7.5 5.625H18.75V7.5H7.5V5.625ZM7.5 9.375H18.75V11.25H7.5V9.375ZM7.5 13.125H13.125V15H7.5V13.125ZM7.5 22.5H11.25V24.375H7.5V22.5Z" fill="#68B0AB"/>
<path d="M27.8503 18.0872L25.0378 15.2747C24.862 15.0989 24.6236 15.0002 24.375 15.0002C24.1264 15.0002 23.888 15.0989 23.7122 15.2747L15 23.9869V28.125H19.1381L27.8503 19.4128C28.0261 19.237 28.1248 18.9986 28.1248 18.75C28.1248 18.5014 28.0261 18.263 27.8503 18.0872ZM18.3619 26.25H16.875V24.7631L21.5625 20.0756L23.0494 21.5625L18.3619 26.25ZM24.375 20.2369L22.8881 18.75L24.375 17.2631L25.8619 18.75L24.375 20.2369ZM11.25 28.125H5.625C5.12787 28.1245 4.65125 27.9268 4.29972 27.5753C3.9482 27.2238 3.7505 26.7471 3.75 26.25V3.75C3.7505 3.25287 3.9482 2.77625 4.29972 2.42472C4.65125 2.0732 5.12787 1.8755 5.625 1.875H20.625C21.1221 1.8755 21.5988 2.0732 21.9503 2.42472C22.3018 2.77625 22.4995 3.25287 22.5 3.75V13.125H20.625V3.75H5.625V26.25H11.25V28.125Z" fill="#68B0AB"/>
</svg>
