<svg width="80" height="80" viewBox="0 0 80 80" fill="none" xmlns="http://www.w3.org/2000/svg">
<path d="M80 40.0002L40.0002 80L0 39.9998L39.9998 0L80 40.0002Z" fill="#68B0AB"/>
<path d="M33.0015 54.67L30.7756 54.2276C30.7825 54.2628 30.7683 54.2839 30.7331 54.2908C30.6979 54.2977 30.6558 54.2693 30.6068 54.2057L29.4145 54.0001C29.3112 53.4717 29.2079 52.9434 29.1045 52.415C29.0295 51.8445 28.958 51.2917 28.8899 50.7564C28.4083 49.79 27.818 48.7352 27.119 47.5919C26.4483 46.4065 25.7492 45.2633 25.0219 44.1621C24.2876 43.0257 23.5809 42.0302 22.9018 41.1756C21.8604 41.0867 21.0553 40.8968 20.4864 40.6057C19.9458 40.2726 19.641 39.9299 19.5721 39.5777C19.5239 39.3311 19.5741 39.1202 19.7227 38.9448C19.8996 38.7274 20.1113 38.5945 20.3578 38.5463C20.6749 38.4843 21.1174 38.6903 21.6856 39.1644C22.2468 39.6032 22.7165 40.0416 23.0948 40.4796C24.5443 40.5984 26.3189 40.4159 28.4185 39.9321C28.4823 36.5185 28.697 33.2217 29.0624 30.0417C29.421 26.8264 29.7367 23.7659 30.0095 20.86L28.5313 20.8748C26.1591 20.8999 23.9308 21.0065 21.8465 21.1947C19.7553 21.3477 17.8643 21.5895 16.1736 21.9202C14.7646 22.1958 13.3587 22.5804 11.9559 23.0742C10.5814 23.5259 9.47024 24.1089 8.62253 24.8233C7.76793 25.5024 7.44054 26.3527 7.64032 27.3742C7.83321 28.3605 8.51235 29.2151 9.67773 29.938C10.8431 30.6609 12.4036 31.1603 14.3593 31.4361C16.308 31.6767 18.529 31.6263 21.0222 31.285C22.3745 31.0937 23.5691 30.7503 24.6059 30.255C25.6428 29.7596 26.075 29.0717 25.9028 28.1911C25.7512 27.4161 25.226 26.7874 24.3271 26.305C23.4282 25.8225 22.3596 25.5012 21.1214 25.3411C19.8833 25.1809 18.683 25.2145 17.5206 25.4419C16.6048 25.621 15.8574 25.9135 15.2785 26.3192C14.7279 26.6829 14.5112 27.1642 14.6283 27.763C14.6696 27.9743 14.8025 28.186 15.0268 28.3982L15.7538 28.7497C15.9514 28.6379 16.0708 28.6877 16.1122 28.899C16.1466 29.0751 16.0371 29.1697 15.7837 29.1827C14.6589 28.8541 14.031 28.3552 13.9001 27.6859C13.7554 26.9462 14.0993 26.367 14.9317 25.9482C15.7924 25.4873 16.7335 25.157 17.7549 24.9572C19.1639 24.6816 20.5859 24.6595 22.0208 24.8909C23.4489 25.087 24.6859 25.5217 25.7318 26.1948C26.8061 26.8259 27.4431 27.6521 27.6429 28.6736C27.8633 29.8008 27.5987 30.7851 26.849 31.6266C26.1345 32.4611 25.1532 33.1468 23.905 33.6835C22.6852 34.178 21.4412 34.5493 20.1732 34.7973C18.2007 35.1831 16.219 35.2415 14.2281 34.9726C12.2372 34.7037 10.5117 34.1086 9.05151 33.1873C7.61967 32.2239 6.7453 30.9321 6.42841 29.3118C6.26307 28.4664 6.27385 27.5866 6.46075 26.6723C6.84911 24.7313 7.66472 23.2918 8.90756 22.3539C10.1435 21.3807 11.7125 20.7081 13.6146 20.3361C15.5872 19.9503 17.8369 19.7664 20.3638 19.7841C22.9259 19.7951 25.6465 19.775 28.5256 19.7239C28.7155 19.7599 28.9372 19.7714 29.1907 19.7584C29.4725 19.7033 29.7788 19.68 30.1096 19.6884L30.3072 17.8943L32.0736 19.6334C33.4466 19.5477 34.9604 19.4345 36.6152 19.2938C38.263 19.1178 39.7914 18.892 41.2004 18.6164C42.081 18.4442 42.8666 18.254 43.5573 18.0458C44.2764 17.7954 44.8476 17.5374 45.2711 17.2717C45.5889 17.0267 45.7727 16.8445 45.8224 16.7251C45.8722 16.6056 45.8902 16.5107 45.8764 16.4402C45.8857 15.9264 45.996 15.6488 46.2073 15.6075C46.3834 15.5731 46.5622 15.7392 46.7437 16.106C47.0637 16.9943 46.6241 17.7386 45.4249 18.3388C44.261 18.9321 42.7808 19.4045 40.9844 19.7558C39.7163 20.0038 38.3851 20.2093 36.9907 20.3723C35.6246 20.4932 34.3466 20.5969 33.1567 20.6833L33.9561 21.4047C33.4896 23.5073 33.0633 26.0958 32.6771 29.1702C32.291 32.2445 32.0518 35.5095 31.9597 38.9653C33.2002 38.5764 34.4338 38.1522 35.6606 37.6929C36.8804 37.1983 38.0263 36.6999 39.0984 36.1977C39.2607 36.0928 39.3947 36.03 39.5004 36.0094C39.6413 35.9818 39.7646 35.9577 39.8702 35.937C40.3281 35.8475 40.5778 35.9084 40.6191 36.1197C40.6536 36.2958 40.4238 36.5236 39.9299 36.8031C38.4413 37.6062 37.0342 38.2654 35.7087 38.7806C34.3832 39.2958 33.1144 39.7269 31.9022 40.0736C31.8844 42.6005 31.9371 45.1136 32.0602 47.613C32.2185 50.1054 32.5323 52.4577 33.0015 54.67ZM22.1346 40.3382C21.8475 39.9921 21.5565 39.7199 21.2617 39.5215C21.0022 39.3163 20.7705 39.1605 20.5669 39.054C20.2353 39.2286 20.2414 39.4468 20.5852 39.7087C20.929 39.9706 21.4454 40.1805 22.1346 40.3382ZM28.7074 48.9818C28.5865 47.6158 28.4866 46.2639 28.4079 44.9262C28.3643 43.5815 28.356 42.23 28.3829 40.8716C27.5306 41.0018 26.7101 41.1074 25.9214 41.1885C25.1679 41.2627 24.457 41.2737 23.7885 41.2216C24.6146 42.2669 25.4542 43.4741 26.3071 44.8433C27.1952 46.2056 27.9953 47.5851 28.7074 48.9818Z" fill="#F3F3F1"/>
<path d="M46.4999 68.2242C46.3683 68.25 46.2602 68.1344 46.1758 67.8775C46.0356 66.8112 45.9283 65.7384 45.854 64.6593C45.7796 63.5801 45.7482 62.4584 45.7597 61.294L42.5759 60.4812C42.2219 57.0984 42.1671 53.7596 42.4113 50.4648C42.6885 47.1637 43.0805 43.9255 43.5874 40.7503C43.1137 40.7746 42.6564 40.7956 42.2156 40.8135C41.8012 40.792 41.4033 40.7673 41.0219 40.7393C40.2526 40.6505 39.5856 40.4734 39.021 40.2078C38.4893 39.9358 38.1881 39.6188 38.1172 39.2567C38.0722 39.0262 38.152 38.8227 38.3567 38.6459C38.5549 38.4363 38.7693 38.3089 38.9997 38.2638C39.4541 38.1408 40.1222 38.0614 41.0038 38.0257C41.8791 37.957 42.8956 37.912 44.0535 37.8906C44.3843 35.9119 44.7311 34.0155 45.0941 32.2014C45.4506 30.3544 45.7706 28.5829 46.0541 26.8869L49.2066 30.4231C48.5731 32.4268 47.9571 34.9568 47.3586 38.0132L49.0257 38.1486L49.3467 36.9067C49.661 35.7173 50.0683 34.3047 50.5686 32.6688C51.0625 31 51.6813 29.358 52.425 27.7429C53.1686 26.1278 54.0429 24.7435 55.0477 23.5899C56.079 22.3971 57.2695 21.6686 58.6192 21.4047C59.8637 21.1271 60.9554 21.2041 61.8943 21.6357C62.8332 22.0673 63.5967 22.7382 64.1849 23.6486C64.806 24.5525 65.226 25.564 65.4449 26.6833C65.6445 27.7038 65.6662 28.7762 65.5101 29.9004C65.387 31.0182 65.0767 32.053 64.5792 33.0048C64.0353 34.0681 63.2087 35.0843 62.0994 36.0532C61.023 37.0156 59.8593 37.6191 58.6084 37.8638C58.1804 37.9475 57.6509 37.9485 57.0197 37.8669C56.4214 37.7788 55.6943 37.8185 54.8384 37.9859C54.6409 38.0245 54.4466 38.0796 54.2556 38.1512C54.058 38.1898 53.8473 38.2481 53.6233 38.3261L53.5245 38.3454C53.274 38.4627 53.0994 38.5311 53.0007 38.5504L55.7615 39.0358C56.8987 39.2577 58.1667 39.6249 59.5657 40.1374C60.9977 40.6435 62.416 41.2547 63.8208 41.9712C65.2191 42.6547 66.4821 43.4331 67.6099 44.3062C69.157 45.5759 70.3359 46.7979 71.1466 47.9723C71.9509 49.1138 72.4561 50.2112 72.6621 51.2647C72.9518 52.746 72.7191 54.0903 71.9641 55.2975C71.2419 56.4983 70.1587 57.5134 68.7145 58.3427C67.2639 59.1391 65.6498 59.7111 63.8721 60.0587C62.2261 60.3807 60.5383 60.4886 58.8086 60.3826C57.0725 60.2436 55.4459 59.8781 53.9288 59.2862C52.333 58.6413 50.9555 57.7145 49.7962 56.5057C48.637 55.2969 47.9254 54.0177 47.6614 52.668C47.3974 51.3183 47.5635 50.1579 48.1597 49.1868C48.7888 48.2093 49.7067 47.3975 50.9133 46.7514C52.1199 46.1052 53.4474 45.6405 54.8959 45.3572C55.8835 45.1641 56.9627 45.0898 58.1334 45.1342C59.2978 45.1458 60.4352 45.2822 61.5459 45.5435C62.6501 45.7718 63.5761 46.1376 64.3239 46.6407C65.1046 47.1374 65.569 47.7643 65.7171 48.5215C65.9167 49.542 65.4124 50.5464 64.2044 51.5345C63.0292 52.5163 61.3392 53.1373 59.1344 53.3977C58.6277 53.4284 57.9994 53.4487 57.2494 53.4587C56.5259 53.4293 55.773 53.3373 54.9909 53.1827C54.2416 53.0216 53.5718 52.7425 52.9814 52.3452C52.424 51.9416 52.0744 51.3776 51.9328 50.6534C51.8105 50.0279 51.8817 49.5184 52.1465 49.1248C52.226 49.0068 52.2986 48.9413 52.3644 48.9284C52.4303 48.9155 52.4729 48.9585 52.4922 49.0572C52.5115 49.156 52.5011 49.2777 52.461 49.4222C52.3487 49.5467 52.3311 49.8065 52.4084 50.2015C52.5436 50.8928 52.867 51.4106 53.3787 51.7549C53.8839 52.0662 54.4882 52.2727 55.1917 52.3744C55.8951 52.4761 56.5825 52.4954 57.2538 52.4325C57.925 52.3696 58.4746 52.2963 58.9026 52.2126C60.4369 51.8441 61.5741 51.2799 62.3141 50.52C63.0806 49.7207 63.3898 48.9425 63.2417 48.1853C63.0743 47.3294 62.508 46.7053 61.5426 46.3131C60.5708 45.888 59.4469 45.6463 58.171 45.5883C56.895 45.5302 55.7138 45.6074 54.6275 45.8199C53.607 46.0195 52.6681 46.374 51.8107 46.8835C50.9469 47.36 50.2766 47.9525 49.8 48.6609C49.3498 49.33 49.2084 50.0925 49.3758 50.9484C49.5947 52.0677 50.2878 53.0771 51.4549 53.9768C52.6549 54.87 53.9584 55.4182 55.3653 55.6216C56.5289 55.8041 57.7752 55.8851 59.1041 55.8644C60.4595 55.8044 61.7463 55.6553 62.9643 55.4171C64.3798 55.1403 65.6512 54.7378 66.7783 54.2098C67.9384 53.6753 68.8194 53.0245 69.4213 52.2574C70.0497 51.4509 70.2641 50.5374 70.0645 49.5169C69.9357 48.8585 69.5901 48.14 69.0277 47.3614C68.4588 46.5498 67.627 45.7042 66.5321 44.8246C64.8998 43.4691 63.0529 42.3265 60.9912 41.3967C58.9625 40.4605 57.1101 39.8145 55.4341 39.4587C54.8687 39.3642 54.3034 39.2697 53.7381 39.1752C53.2056 39.0743 52.66 38.993 52.1011 38.9314C51.5543 39.1067 51.024 39.2788 50.5102 39.4476C50.0293 39.61 49.5452 39.756 49.0578 39.8855C48.4006 42.8166 47.8086 45.906 47.2816 49.1535C46.7547 52.401 46.4121 55.6295 46.2537 58.8391C46.0889 62.0158 46.211 64.9996 46.6202 67.7906C46.6717 68.0539 46.6316 68.1985 46.4999 68.2242ZM52.261 38.4387C52.8014 38.2305 53.322 38.009 53.823 37.7744C54.3568 37.5332 54.8349 37.2688 55.2571 36.9812C57.5136 35.412 59.3218 33.2981 60.6817 30.6397C61.1062 29.8389 61.4658 28.7945 61.7607 27.5064C62.0822 26.1789 62.1431 25.0049 61.9435 23.9844C61.7954 23.2273 61.4756 22.6404 60.9839 22.2239C60.4859 21.7744 59.7266 21.6495 58.7061 21.8491C57.4223 22.1002 56.2912 22.7828 55.3128 23.897C54.3345 25.0111 53.4867 26.3561 52.7695 27.9319C52.0524 29.5076 51.4436 31.1135 50.9433 32.7493C50.4694 34.3459 50.0818 35.7717 49.7804 37.0269L49.4894 38.1605C49.9761 38.202 50.4462 38.2468 50.8999 38.2948C51.3472 38.3098 51.8009 38.3578 52.261 38.4387ZM38.7187 34.73C37.7183 34.8573 36.7321 34.7084 35.7603 34.2832C34.815 33.8187 34.2136 32.9281 33.9561 31.6113C33.8273 30.9529 34.1028 30.3522 34.7827 29.8091C35.4562 29.233 36.3826 28.7271 37.562 28.2914C38.7743 27.8492 40.0947 27.5226 41.5231 27.3116C41.8852 27.2408 42.491 27.1053 43.3405 26.9049C44.1899 26.7046 45.0133 26.4582 45.8105 26.1655C46.6407 25.8665 47.211 25.5498 47.5216 25.2156C47.6011 25.0976 47.6376 25.0221 47.6312 24.9892C47.6512 24.9169 47.658 24.8643 47.6516 24.8314C47.58 24.6403 47.5739 24.5218 47.6333 24.476C47.7257 24.4238 47.8241 24.49 47.9285 24.6747C48.1375 25.0439 48.0669 25.3824 47.717 25.6901C47.3999 25.9914 46.9251 26.2722 46.2924 26.5327C45.6598 26.7931 45.0011 27.0074 44.3162 27.1755C43.6313 27.3436 43.0255 27.4792 42.4988 27.5822C42.005 27.6788 41.7087 27.7367 41.61 27.7561C39.3257 28.1345 37.5176 28.6761 36.1858 29.3809C34.8539 30.0857 34.2588 30.8002 34.4005 31.5244C34.5228 32.1499 34.9353 32.5989 35.6381 32.8716C36.3737 33.1379 37.2847 33.1648 38.371 32.9524C39.5232 32.727 40.3401 32.4476 40.8218 32.1142C41.297 31.7478 41.5056 31.4165 41.4477 31.1202C41.3575 30.6594 40.8094 30.3906 39.8032 30.3139C39.6386 30.3461 39.5434 30.2964 39.5177 30.1647C39.4855 30.0001 39.6107 29.9414 39.8934 29.9887C40.5511 30.031 41.0767 30.1845 41.4702 30.4493C41.8903 30.6748 42.1583 31.0838 42.2742 31.6763C42.3901 32.2689 42.2333 32.778 41.8039 33.2038C41.3745 33.6296 40.8599 33.9695 40.2602 34.2235C39.6605 34.4775 39.1467 34.6463 38.7187 34.73ZM43.6691 40.1191L43.9429 38.3737C41.7588 38.3907 40.14 38.5022 39.0866 38.7082C38.6844 38.9236 38.7524 39.1837 39.2905 39.4886C39.8287 39.7935 40.5514 39.994 41.4588 40.0899C42.0242 40.1844 42.7609 40.1942 43.6691 40.1191ZM46.9957 39.8273L48.724 39.4893C48.7641 39.3448 48.7877 39.2035 48.7949 39.0653C48.8349 38.9208 48.8718 38.7598 48.9055 38.5823L47.248 38.4963L46.9957 39.8273ZM49.2178 39.3928C49.5734 39.289 49.9159 39.205 50.2451 39.1406C50.5678 39.0433 50.9038 38.9263 51.2531 38.7896C50.9375 38.7488 50.6251 38.7245 50.3159 38.7166C50.0004 38.6758 49.688 38.6514 49.3788 38.6435L49.2178 39.3928ZM45.7737 60.3172C45.8341 56.9559 46.1381 53.5298 46.6858 50.039C47.26 46.5088 47.9058 43.1698 48.623 40.0218L46.8948 40.3598C46.3614 43.5743 45.959 46.9342 45.6875 50.4393C45.4425 53.9051 45.4712 57.1977 45.7737 60.3172Z" fill="#F3F3F1"/>
</svg>
