<svg width="450" height="72" viewBox="0 0 450 72" fill="none" xmlns="http://www.w3.org/2000/svg">
<path d="M84.4992 42.3182C84.4992 43.1339 84.559 43.723 84.6787 44.0855C84.8283 44.4481 85.0975 44.6897 85.4863 44.8106C85.8752 44.9314 86.5034 44.9918 87.3708 44.9918H90.063C92.1868 44.9918 93.9815 44.4027 95.4472 43.2245C96.913 42.0161 97.8851 40.3999 98.3637 38.3759C98.3936 38.2852 98.4834 38.255 98.6329 38.2852C98.7825 38.2852 98.8573 38.3305 98.8573 38.4212C98.5881 41.2609 98.4534 43.6173 98.4534 45.4903C98.4534 45.732 98.4086 45.9132 98.3188 46.0341C98.2291 46.1247 98.0496 46.17 97.7804 46.17H76.7818C76.7219 46.17 76.692 46.0794 76.692 45.8981C76.692 45.7169 76.7219 45.6262 76.7818 45.6262C77.7988 45.6262 78.5316 45.5507 78.9803 45.3997C79.4589 45.2486 79.773 44.9616 79.9226 44.5387C80.1021 44.0855 80.1918 43.4058 80.1918 42.4995V21.5187C80.1918 20.6124 80.1021 19.9477 79.9226 19.5248C79.773 19.1019 79.4589 18.8149 78.9803 18.6638C78.5017 18.4826 77.7689 18.3919 76.7818 18.3919C76.7219 18.3919 76.692 18.3013 76.692 18.12C76.692 17.9388 76.7219 17.8482 76.7818 17.8482L79.0701 17.8935C80.3862 17.9539 81.4631 17.9841 82.3006 17.9841C83.198 17.9841 84.3048 17.9539 85.6209 17.8935L87.8644 17.8482C87.9541 17.8482 87.999 17.9388 87.999 18.12C87.999 18.3013 87.9541 18.3919 87.8644 18.3919C86.8773 18.3919 86.1444 18.4826 85.6658 18.6638C85.2171 18.8149 84.903 19.117 84.7236 19.5701C84.574 19.9931 84.4992 20.6577 84.4992 21.564V42.3182Z" fill="#2D2D2D"/>
<path d="M114.427 43.3152C114.487 43.3152 114.547 43.3756 114.607 43.4964C114.697 43.6173 114.712 43.7079 114.652 43.7683C113.575 44.7955 112.483 45.5507 111.376 46.0341C110.27 46.4872 109.058 46.7138 107.742 46.7138C105.887 46.7138 104.287 46.3211 102.941 45.5356C101.625 44.7199 100.608 43.6475 99.89 42.3182C99.202 40.9588 98.858 39.5087 98.858 37.968C98.858 36.1856 99.2917 34.5543 100.159 33.074C101.057 31.5937 102.268 30.4306 103.794 29.5847C105.349 28.7086 107.054 28.2706 108.909 28.2706C110.673 28.2706 112.034 28.6784 112.992 29.4941C113.949 30.2796 114.427 31.3671 114.427 32.7568C114.427 33.5725 114.263 33.9803 113.934 33.9803H111.466L103.031 34.0709C102.941 34.7053 102.896 35.3851 102.896 36.1101C102.896 38.7384 103.494 40.838 104.691 42.4089C105.917 43.9496 107.607 44.7199 109.761 44.7199C110.539 44.7199 111.332 44.6142 112.139 44.4027C112.947 44.1611 113.68 43.8136 114.338 43.3605L114.427 43.3152ZM107.293 29.1769C106.306 29.1769 105.454 29.5394 104.736 30.2645C104.018 30.9895 103.509 31.9864 103.21 33.2552L110.21 33.1193C110.15 31.8807 109.881 30.914 109.402 30.2191C108.924 29.5243 108.221 29.1769 107.293 29.1769Z" fill="#2D2D2D"/>
<path d="M118.782 31.0348C118.782 31.9713 119.096 32.7568 119.724 33.3912C120.382 34.0256 121.324 34.6902 122.551 35.3851C123.627 35.9893 124.45 36.4877 125.018 36.8804C125.617 37.2732 126.125 37.8019 126.544 38.4665C126.993 39.1311 127.217 39.9317 127.217 40.8682C127.217 41.8953 126.963 42.8469 126.454 43.723C125.946 44.5991 125.183 45.309 124.166 45.8528C123.179 46.3966 121.997 46.6685 120.621 46.6685C118.976 46.6685 117.465 46.2456 116.089 45.3997C115.91 45.2184 115.82 45.0372 115.82 44.8559L115.73 40.6869C115.73 40.5963 115.805 40.551 115.955 40.551C116.134 40.5208 116.239 40.5359 116.269 40.5963C116.777 42.1068 117.54 43.3454 118.557 44.3121C119.604 45.2788 120.711 45.7622 121.877 45.7622C122.625 45.7622 123.209 45.5658 123.627 45.1731C124.046 44.7804 124.256 44.1913 124.256 43.4058C124.256 42.2578 123.926 41.3515 123.268 40.6869C122.61 39.9921 121.653 39.3124 120.397 38.6477C119.38 38.104 118.587 37.6508 118.019 37.2883C117.45 36.8956 116.957 36.382 116.538 35.7476C116.149 35.083 115.955 34.2673 115.955 33.3006C115.955 31.5786 116.568 30.2947 117.794 29.4488C119.051 28.6029 120.561 28.18 122.326 28.18C123.493 28.18 124.689 28.4065 125.916 28.8597C126.185 28.9805 126.319 29.1467 126.319 29.3582C126.319 30.053 126.305 30.5968 126.275 30.9895L126.23 33.1646C126.23 33.2553 126.14 33.3006 125.961 33.3006C125.781 33.3006 125.691 33.2553 125.691 33.1646C125.691 32.5604 125.452 31.9411 124.973 31.3067C124.495 30.6421 123.882 30.0983 123.134 29.6754C122.386 29.2524 121.623 29.041 120.845 29.041C119.47 29.041 118.782 29.7056 118.782 31.0348Z" fill="#2D2D2D"/>
<path d="M153.703 17.3497C155.049 17.3497 156.44 17.4705 157.875 17.7122C159.341 17.9539 160.493 18.2862 161.33 18.7091C161.599 18.7998 161.764 18.9206 161.824 19.0717C161.914 19.1925 161.973 19.4191 162.003 19.7514L162.542 25.6423C162.542 25.733 162.467 25.7934 162.317 25.8236C162.168 25.8538 162.078 25.8085 162.048 25.6877C161.181 23.3313 159.865 21.5338 158.1 20.2952C156.365 19.0566 154.316 18.4372 151.953 18.4372C148.842 18.4372 146.404 19.5399 144.639 21.7452C142.874 23.9506 141.992 26.9112 141.992 30.627C141.992 33.4063 142.47 35.959 143.428 38.2852C144.415 40.6114 145.761 42.4542 147.466 43.8136C149.201 45.1731 151.13 45.8528 153.254 45.8528C157.292 45.8528 160.358 43.3152 162.452 38.2399C162.482 38.1191 162.572 38.0737 162.721 38.104C162.901 38.1342 162.99 38.1946 162.99 38.2852L162.317 44.0855C162.258 44.4481 162.183 44.6897 162.093 44.8106C162.033 44.9012 161.869 45.0069 161.599 45.1278C158.997 46.1851 156.23 46.7138 153.299 46.7138C149.649 46.7138 146.613 45.9888 144.19 44.5387C141.767 43.0584 139.973 41.1854 138.806 38.9196C137.669 36.6539 137.101 34.2975 137.101 31.8505C137.101 29.0107 137.864 26.4882 139.389 24.2829C140.945 22.0776 142.994 20.3707 145.536 19.1623C148.079 17.9539 150.801 17.3497 153.703 17.3497Z" fill="#2D2D2D"/>
<path d="M184.884 43.3152C184.974 43.3152 185.048 43.3907 185.108 43.5418C185.168 43.6928 185.153 43.7985 185.063 43.859L179.186 46.7138L179.006 46.7591C178.707 46.7591 178.438 46.4268 178.198 45.7622C177.959 45.0674 177.825 44.146 177.795 42.998C175.701 45.445 173.487 46.6685 171.154 46.6685C169.539 46.6685 168.282 46.17 167.385 45.1731C166.488 44.146 166.039 42.7563 166.039 41.0041V34.2522C166.039 32.1979 165.575 31.1708 164.648 31.1708C164.349 31.1708 163.93 31.2916 163.392 31.5333H163.347C163.227 31.5333 163.137 31.4578 163.078 31.3067C163.018 31.1557 163.033 31.0499 163.123 30.9895L168.821 28.3159L169 28.2706C169.12 28.2706 169.255 28.331 169.404 28.4519C169.554 28.5727 169.629 28.6784 169.629 28.7691V39.0556C169.629 42.4089 170.885 44.0855 173.398 44.0855C174.145 44.0855 174.908 43.9043 175.686 43.5418C176.464 43.1792 177.167 42.6808 177.795 42.0464V34.2522C177.795 33.1948 177.675 32.4245 177.436 31.9411C177.226 31.4275 176.882 31.1708 176.404 31.1708C176.135 31.1708 175.716 31.2916 175.147 31.5333H175.103C174.983 31.5333 174.893 31.4578 174.833 31.3067C174.774 31.1254 174.803 31.0197 174.923 30.9895L180.577 28.3159C180.636 28.2857 180.711 28.2706 180.801 28.2706C180.921 28.2706 181.055 28.331 181.205 28.4519C181.354 28.5727 181.429 28.6784 181.429 28.7691V41.0494C181.429 42.1068 181.534 42.8469 181.743 43.2699C181.953 43.6928 182.297 43.9043 182.775 43.9043C183.134 43.9043 183.807 43.723 184.794 43.3605L184.884 43.3152Z" fill="#2D2D2D"/>
<path d="M184.883 46.17C184.793 46.17 184.748 46.0794 184.748 45.8981C184.748 45.7169 184.793 45.6262 184.883 45.6262C185.9 45.6262 186.573 45.4148 186.902 44.9918C187.231 44.5689 187.396 43.7381 187.396 42.4995V34.2522C187.396 33.225 187.291 32.4849 187.081 32.0317C186.872 31.5484 186.513 31.3067 186.005 31.3067C185.556 31.3067 184.973 31.488 184.255 31.8505H184.21C184.09 31.8505 184 31.775 183.941 31.6239C183.881 31.4729 183.896 31.3671 183.986 31.3067L190.447 28.2706L190.581 28.2253C190.701 28.2253 190.821 28.3008 190.94 28.4519C191.09 28.5727 191.165 28.6784 191.165 28.7691V29.7207C191.105 30.9895 191.075 32.4849 191.075 34.2069V42.4995C191.075 43.7381 191.239 44.5689 191.568 44.9918C191.927 45.4148 192.615 45.6262 193.632 45.6262C193.722 45.6262 193.767 45.7169 193.767 45.8981C193.767 46.0794 193.722 46.17 193.632 46.17C192.885 46.17 192.286 46.1549 191.838 46.1247L189.235 46.0794L186.633 46.1247C186.214 46.1549 185.631 46.17 184.883 46.17ZM189.011 23.4672C188.233 23.4672 187.62 23.2557 187.171 22.8328C186.752 22.4099 186.543 21.8057 186.543 21.0202C186.543 20.2649 186.752 19.691 187.171 19.2982C187.62 18.8753 188.233 18.6638 189.011 18.6638C189.759 18.6638 190.342 18.8753 190.761 19.2982C191.18 19.691 191.389 20.2649 191.389 21.0202C191.389 21.8057 191.18 22.4099 190.761 22.8328C190.372 23.2557 189.789 23.4672 189.011 23.4672Z" fill="#2D2D2D"/>
<path d="M197.609 31.0348C197.609 31.9713 197.923 32.7568 198.551 33.3912C199.209 34.0256 200.151 34.6902 201.378 35.3851C202.455 35.9893 203.277 36.4877 203.846 36.8804C204.444 37.2732 204.952 37.8019 205.371 38.4665C205.82 39.1311 206.044 39.9317 206.044 40.8682C206.044 41.8953 205.79 42.8469 205.281 43.723C204.773 44.5991 204.01 45.309 202.993 45.8528C202.006 46.3966 200.824 46.6685 199.448 46.6685C197.803 46.6685 196.293 46.2456 194.917 45.3997C194.737 45.2184 194.648 45.0372 194.648 44.8559L194.558 40.6869C194.558 40.5963 194.633 40.551 194.782 40.551C194.962 40.5208 195.066 40.5359 195.096 40.5963C195.605 42.1068 196.367 43.3454 197.385 44.3121C198.431 45.2788 199.538 45.7622 200.705 45.7622C201.453 45.7622 202.036 45.5658 202.455 45.1731C202.873 44.7804 203.083 44.1913 203.083 43.4058C203.083 42.2578 202.754 41.3515 202.096 40.6869C201.438 39.9921 200.48 39.3124 199.224 38.6477C198.207 38.104 197.414 37.6508 196.846 37.2883C196.278 36.8956 195.784 36.382 195.365 35.7476C194.977 35.083 194.782 34.2673 194.782 33.3006C194.782 31.5786 195.395 30.2947 196.622 29.4488C197.878 28.6029 199.389 28.18 201.153 28.18C202.32 28.18 203.517 28.4065 204.743 28.8597C205.012 28.9805 205.147 29.1467 205.147 29.3582C205.147 30.053 205.132 30.5968 205.102 30.9895L205.057 33.1646C205.057 33.2553 204.967 33.3006 204.788 33.3006C204.608 33.3006 204.519 33.2553 204.519 33.1646C204.519 32.5604 204.279 31.9411 203.801 31.3067C203.322 30.6421 202.709 30.0983 201.961 29.6754C201.213 29.2524 200.451 29.041 199.673 29.041C198.297 29.041 197.609 29.7056 197.609 31.0348Z" fill="#2D2D2D"/>
<path d="M207.431 46.17C207.342 46.17 207.297 46.0794 207.297 45.8981C207.297 45.7169 207.342 45.6262 207.431 45.6262C208.448 45.6262 209.121 45.4148 209.45 44.9918C209.779 44.5689 209.944 43.7381 209.944 42.4995V34.2522C209.944 33.225 209.839 32.4849 209.63 32.0317C209.42 31.5484 209.062 31.3067 208.553 31.3067C208.104 31.3067 207.521 31.488 206.803 31.8505H206.758C206.639 31.8505 206.549 31.775 206.489 31.6239C206.429 31.4729 206.444 31.3671 206.534 31.3067L212.995 28.2706L213.13 28.2253C213.249 28.2253 213.369 28.3008 213.489 28.4519C213.638 28.5727 213.713 28.6784 213.713 28.7691V29.7207C213.653 30.9895 213.623 32.4849 213.623 34.2069V42.4995C213.623 43.7381 213.788 44.5689 214.117 44.9918C214.476 45.4148 215.164 45.6262 216.181 45.6262C216.27 45.6262 216.315 45.7169 216.315 45.8981C216.315 46.0794 216.27 46.17 216.181 46.17C215.433 46.17 214.835 46.1549 214.386 46.1247L211.784 46.0794L209.181 46.1247C208.762 46.1549 208.179 46.17 207.431 46.17ZM211.559 23.4672C210.782 23.4672 210.168 23.2557 209.72 22.8328C209.301 22.4099 209.091 21.8057 209.091 21.0202C209.091 20.2649 209.301 19.691 209.72 19.2982C210.168 18.8753 210.782 18.6638 211.559 18.6638C212.307 18.6638 212.89 18.8753 213.309 19.2982C213.728 19.691 213.937 20.2649 213.937 21.0202C213.937 21.8057 213.728 22.4099 213.309 22.8328C212.92 23.2557 212.337 23.4672 211.559 23.4672Z" fill="#2D2D2D"/>
<path d="M237.746 45.6262C237.836 45.6262 237.88 45.7169 237.88 45.8981C237.88 46.0794 237.836 46.17 237.746 46.17C236.998 46.17 236.415 46.1549 235.996 46.1247L233.394 46.0794L230.836 46.1247C230.387 46.1549 229.789 46.17 229.041 46.17C228.952 46.17 228.907 46.0794 228.907 45.8981C228.907 45.7169 228.952 45.6262 229.041 45.6262C230.058 45.6262 230.731 45.4148 231.06 44.9918C231.389 44.5689 231.554 43.7381 231.554 42.4995V35.7023C231.554 34.0105 231.24 32.7719 230.612 31.9864C230.013 31.1708 229.056 30.7629 227.74 30.7629C226.962 30.7629 226.17 30.9442 225.362 31.3067C224.554 31.6692 223.822 32.1526 223.163 32.7568V42.4995C223.163 43.7381 223.328 44.5689 223.657 44.9918C223.986 45.4148 224.659 45.6262 225.676 45.6262C225.766 45.6262 225.811 45.7169 225.811 45.8981C225.811 46.0794 225.766 46.17 225.676 46.17C224.928 46.17 224.345 46.1549 223.926 46.1247L221.324 46.0794L218.721 46.1247C218.303 46.1549 217.719 46.17 216.972 46.17C216.882 46.17 216.837 46.0794 216.837 45.8981C216.837 45.7169 216.882 45.6262 216.972 45.6262C217.989 45.6262 218.662 45.4148 218.991 44.9918C219.32 44.5689 219.484 43.7381 219.484 42.4995V33.8443C219.484 32.8776 219.365 32.1677 219.125 31.7145C218.916 31.2614 218.557 31.0348 218.048 31.0348C217.6 31.0348 216.852 31.2614 215.805 31.7145H215.76C215.64 31.7145 215.551 31.639 215.491 31.488C215.431 31.3369 215.446 31.2463 215.536 31.2161L221.414 28.3159C221.593 28.2555 221.698 28.2253 221.728 28.2253C222.027 28.2253 222.326 28.5727 222.625 29.2675C222.954 29.9321 223.134 30.8082 223.163 31.8958C225.257 29.3884 227.531 28.1347 229.984 28.1347C231.629 28.1347 232.915 28.6482 233.842 29.6754C234.77 30.6723 235.233 32.0317 235.233 33.7537V42.4995C235.233 43.7381 235.398 44.5689 235.727 44.9918C236.056 45.4148 236.729 45.6262 237.746 45.6262Z" fill="#2D2D2D"/>
<path d="M253.425 43.3152C253.485 43.3152 253.544 43.3756 253.604 43.4964C253.694 43.6173 253.709 43.7079 253.649 43.7683C252.572 44.7955 251.48 45.5507 250.374 46.0341C249.267 46.4872 248.055 46.7138 246.739 46.7138C244.885 46.7138 243.284 46.3211 241.938 45.5356C240.622 44.7199 239.605 43.6475 238.887 42.3182C238.199 40.9588 237.855 39.5087 237.855 37.968C237.855 36.1856 238.289 34.5543 239.156 33.074C240.054 31.5937 241.265 30.4306 242.791 29.5847C244.346 28.7086 246.051 28.2706 247.906 28.2706C249.671 28.2706 251.032 28.6784 251.989 29.4941C252.946 30.2796 253.425 31.3671 253.425 32.7568C253.425 33.5725 253.26 33.9803 252.931 33.9803H250.463L242.028 34.0709C241.938 34.7053 241.893 35.3851 241.893 36.1101C241.893 38.7384 242.492 40.838 243.688 42.4089C244.915 43.9496 246.605 44.7199 248.758 44.7199C249.536 44.7199 250.329 44.6142 251.136 44.4027C251.944 44.1611 252.677 43.8136 253.335 43.3605L253.425 43.3152ZM246.291 29.1769C245.303 29.1769 244.451 29.5394 243.733 30.2645C243.015 30.9895 242.507 31.9864 242.208 33.2552L249.207 33.1193C249.147 31.8807 248.878 30.914 248.399 30.2191C247.921 29.5243 247.218 29.1769 246.291 29.1769Z" fill="#2D2D2D"/>
<path d="M257.779 31.0348C257.779 31.9713 258.093 32.7568 258.721 33.3912C259.379 34.0256 260.321 34.6902 261.548 35.3851C262.625 35.9893 263.447 36.4877 264.016 36.8804C264.614 37.2732 265.122 37.8019 265.541 38.4665C265.99 39.1311 266.214 39.9317 266.214 40.8682C266.214 41.8953 265.96 42.8469 265.451 43.723C264.943 44.5991 264.18 45.309 263.163 45.8528C262.176 46.3966 260.994 46.6685 259.618 46.6685C257.973 46.6685 256.463 46.2456 255.087 45.3997C254.907 45.2184 254.817 45.0372 254.817 44.8559L254.728 40.6869C254.728 40.5963 254.802 40.551 254.952 40.551C255.132 40.5208 255.236 40.5359 255.266 40.5963C255.775 42.1068 256.537 43.3454 257.554 44.3121C258.601 45.2788 259.708 45.7622 260.875 45.7622C261.623 45.7622 262.206 45.5658 262.625 45.1731C263.043 44.7804 263.253 44.1913 263.253 43.4058C263.253 42.2578 262.924 41.3515 262.266 40.6869C261.608 39.9921 260.65 39.3124 259.394 38.6477C258.377 38.104 257.584 37.6508 257.016 37.2883C256.448 36.8956 255.954 36.382 255.535 35.7476C255.146 35.083 254.952 34.2673 254.952 33.3006C254.952 31.5786 255.565 30.2947 256.792 29.4488C258.048 28.6029 259.559 28.18 261.323 28.18C262.49 28.18 263.687 28.4065 264.913 28.8597C265.182 28.9805 265.317 29.1467 265.317 29.3582C265.317 30.053 265.302 30.5968 265.272 30.9895L265.227 33.1646C265.227 33.2553 265.137 33.3006 264.958 33.3006C264.778 33.3006 264.689 33.2553 264.689 33.1646C264.689 32.5604 264.449 31.9411 263.971 31.3067C263.492 30.6421 262.879 30.0983 262.131 29.6754C261.383 29.2524 260.62 29.041 259.843 29.041C258.467 29.041 257.779 29.7056 257.779 31.0348Z" fill="#2D2D2D"/>
<path d="M296.514 43.3605C296.603 43.3605 296.678 43.436 296.738 43.5871C296.828 43.7381 296.828 43.8288 296.738 43.859L290.995 46.6685L290.726 46.7138C290.426 46.7138 290.142 46.4117 289.873 45.8075C289.634 45.2033 289.499 44.3876 289.469 43.3605C288.392 44.3876 287.286 45.2184 286.149 45.8528C285.012 46.457 283.771 46.7591 282.425 46.7591C281.139 46.7591 279.957 46.4117 278.88 45.7169C277.803 44.9918 276.951 43.9647 276.323 42.6355C275.694 41.3062 275.38 39.7504 275.38 37.968C275.38 35.7325 275.904 33.8746 276.951 32.3943C277.998 30.914 279.314 29.8264 280.899 29.1316C282.485 28.4368 284.07 28.0893 285.655 28.0893C286.971 28.0893 288.228 28.331 289.424 28.8144V19.3436C289.424 18.2862 289.32 17.5309 289.11 17.0778C288.931 16.5944 288.587 16.3528 288.078 16.3528C287.749 16.3528 287.151 16.534 286.284 16.8965H286.194C286.074 16.8965 285.984 16.821 285.925 16.67C285.865 16.5189 285.865 16.4283 285.925 16.3981L292.251 13.362L292.431 13.3167C292.55 13.3167 292.685 13.3771 292.834 13.4979C292.984 13.6188 293.059 13.7245 293.059 13.8151V41.0041C293.059 42.0615 293.163 42.8167 293.373 43.2699C293.582 43.6928 293.941 43.9043 294.45 43.9043C295.048 43.9043 295.721 43.723 296.469 43.3605H296.514ZM284.668 44.7653C285.536 44.7653 286.343 44.5689 287.091 44.1762C287.869 43.7834 288.647 43.2246 289.424 42.4995V31.6692C288.826 30.8233 288.153 30.204 287.405 29.8113C286.687 29.3884 285.82 29.1769 284.803 29.1769C283.098 29.1769 281.782 29.7811 280.854 30.9895C279.927 32.1677 279.463 34.0256 279.463 36.5633C279.463 39.1009 279.942 41.1098 280.899 42.5901C281.886 44.0402 283.143 44.7653 284.668 44.7653Z" fill="#2D2D2D"/>
<path d="M311.623 43.3152C311.683 43.3152 311.743 43.3756 311.802 43.4964C311.892 43.6173 311.907 43.7079 311.847 43.7683C310.77 44.7955 309.679 45.5507 308.572 46.0341C307.465 46.4872 306.254 46.7138 304.937 46.7138C303.083 46.7138 301.482 46.3211 300.136 45.5356C298.82 44.7199 297.803 43.6475 297.085 42.3182C296.397 40.9588 296.053 39.5087 296.053 37.968C296.053 36.1856 296.487 34.5543 297.355 33.074C298.252 31.5937 299.463 30.4306 300.989 29.5847C302.544 28.7086 304.249 28.2706 306.104 28.2706C307.869 28.2706 309.23 28.6784 310.187 29.4941C311.144 30.2796 311.623 31.3671 311.623 32.7568C311.623 33.5725 311.458 33.9803 311.129 33.9803H308.662L300.226 34.0709C300.136 34.7053 300.092 35.3851 300.092 36.1101C300.092 38.7384 300.69 40.838 301.886 42.4089C303.113 43.9496 304.803 44.7199 306.957 44.7199C307.734 44.7199 308.527 44.6142 309.335 44.4027C310.142 44.1611 310.875 43.8136 311.533 43.3605L311.623 43.3152ZM304.489 29.1769C303.502 29.1769 302.649 29.5394 301.931 30.2645C301.213 30.9895 300.705 31.9864 300.406 33.2552L307.405 33.1193C307.345 31.8807 307.076 30.914 306.598 30.2191C306.119 29.5243 305.416 29.1769 304.489 29.1769Z" fill="#2D2D2D"/>
<path d="M320.884 46.17C320.795 46.17 320.75 46.0794 320.75 45.8981C320.75 45.7169 320.795 45.6262 320.884 45.6262C321.872 45.6262 322.545 45.4148 322.904 44.9918C323.263 44.5387 323.442 43.7079 323.442 42.4995V19.3436C323.442 18.2862 323.337 17.5309 323.128 17.0778C322.948 16.5944 322.604 16.3528 322.096 16.3528C321.647 16.3528 321.049 16.534 320.301 16.8965H320.256C320.137 16.8965 320.047 16.821 319.987 16.67C319.927 16.5189 319.927 16.4132 319.987 16.3528L326.314 13.362L326.493 13.3167C326.613 13.3167 326.747 13.3771 326.897 13.4979C327.076 13.6188 327.166 13.7245 327.166 13.8151V42.4995C327.166 43.7381 327.331 44.5689 327.66 44.9918C327.989 45.4148 328.662 45.6262 329.679 45.6262C329.769 45.6262 329.813 45.7169 329.813 45.8981C329.813 46.0794 329.769 46.17 329.679 46.17C328.961 46.17 328.378 46.1549 327.929 46.1247L325.282 46.0794L322.679 46.1247C322.231 46.1549 321.632 46.17 320.884 46.17Z" fill="#2D2D2D"/>
<path d="M332.221 17.7575C333.208 17.7575 333.985 18.1503 334.554 18.9357C335.122 19.691 335.406 20.7785 335.406 22.1984C335.406 23.5276 335.107 24.7511 334.509 25.8689C333.941 26.9867 333.088 28.1044 331.951 29.2222C331.921 29.2524 331.877 29.2675 331.817 29.2675C331.727 29.2675 331.652 29.2222 331.592 29.1316C331.533 29.041 331.533 28.9654 331.592 28.905C333.058 27.3945 333.791 25.6121 333.791 23.5578C333.791 22.712 333.641 22.0927 333.342 21.6999C333.073 22.1531 332.55 22.3796 331.772 22.3796C331.114 22.3796 330.59 22.1833 330.201 21.7906C329.813 21.3676 329.618 20.8087 329.618 20.1139C329.618 19.3586 329.842 18.7847 330.291 18.3919C330.77 17.969 331.413 17.7575 332.221 17.7575Z" fill="#2D2D2D"/>
<path d="M362.939 45.6262C363.089 45.6262 363.164 45.7169 363.164 45.8981C363.164 46.0794 363.089 46.17 362.939 46.17C362.371 46.17 361.459 46.1398 360.202 46.0794C358.946 46.019 358.034 45.9888 357.465 45.9888C356.717 45.9888 355.835 46.019 354.818 46.0794C353.801 46.1398 353.008 46.17 352.44 46.17C352.32 46.17 352.26 46.0794 352.26 45.8981C352.26 45.7169 352.32 45.6262 352.44 45.6262C353.307 45.6262 353.936 45.5356 354.324 45.3544C354.743 45.1429 354.953 44.8106 354.953 44.3574C354.953 43.9043 354.698 43.1339 354.19 42.0464L349.344 32.1224H341.223L337.768 39.9619C337.379 40.8682 337.184 41.6838 337.184 42.4089C337.184 43.4662 337.558 44.2668 338.306 44.8106C339.054 45.3544 340.101 45.6262 341.447 45.6262C341.597 45.6262 341.671 45.7169 341.671 45.8981C341.671 46.0794 341.597 46.17 341.447 46.17C340.909 46.17 340.131 46.1398 339.114 46.0794C337.977 46.019 336.99 45.9888 336.153 45.9888C335.345 45.9888 334.403 46.019 333.326 46.0794C332.369 46.1398 331.576 46.17 330.948 46.17C330.798 46.17 330.723 46.0794 330.723 45.8981C330.723 45.7169 330.798 45.6262 330.948 45.6262C331.785 45.6262 332.488 45.4601 333.057 45.1278C333.625 44.7955 334.178 44.2064 334.717 43.3605C335.255 42.4844 335.898 41.2005 336.646 39.5087L346.293 17.5763C346.353 17.4856 346.487 17.4403 346.697 17.4403C346.906 17.4403 347.026 17.4856 347.056 17.5763L358.049 39.9619C359.095 42.137 359.963 43.6324 360.651 44.4481C361.369 45.2335 362.132 45.6262 362.939 45.6262ZM341.716 30.9895H348.806L345.081 23.3766L341.716 30.9895Z" fill="#2D2D2D"/>
<path d="M373.75 28.2253C374.438 28.2253 375.096 28.4519 375.724 28.905C376.352 29.3582 376.666 29.9019 376.666 30.5364C376.666 31.1103 376.487 31.5786 376.128 31.9411C375.799 32.3036 375.335 32.4849 374.737 32.4849C374.348 32.4849 374.019 32.4094 373.75 32.2583C373.511 32.0771 373.256 31.8354 372.987 31.5333C372.718 31.2614 372.479 31.065 372.269 30.9442C372.06 30.7931 371.806 30.7176 371.506 30.7176C371.177 30.7176 370.818 30.8536 370.43 31.1254C370.071 31.3671 369.502 31.8958 368.725 32.7115V42.4995C368.725 43.3454 368.844 43.9949 369.084 44.4481C369.323 44.871 369.727 45.1731 370.295 45.3544C370.863 45.5356 371.701 45.6262 372.808 45.6262C372.927 45.6262 372.987 45.7169 372.987 45.8981C372.987 46.0794 372.927 46.17 372.808 46.17C371.82 46.17 371.028 46.1549 370.43 46.1247L366.885 46.0794L364.283 46.1247C363.864 46.1549 363.28 46.17 362.533 46.17C362.443 46.17 362.398 46.0794 362.398 45.8981C362.398 45.7169 362.443 45.6262 362.533 45.6262C363.55 45.6262 364.223 45.4148 364.552 44.9918C364.881 44.5689 365.045 43.7381 365.045 42.4995V33.8443C365.045 32.8776 364.926 32.1677 364.686 31.7145C364.477 31.2614 364.118 31.0348 363.609 31.0348C363.161 31.0348 362.413 31.2614 361.366 31.7145H361.321C361.202 31.7145 361.112 31.639 361.052 31.488C360.992 31.3369 361.007 31.2463 361.097 31.2161L366.975 28.3159C367.154 28.2555 367.259 28.2253 367.289 28.2253C367.588 28.2253 367.887 28.5576 368.186 29.2222C368.485 29.8566 368.665 30.7025 368.725 31.7599C369.891 30.4306 370.863 29.5092 371.641 28.9956C372.419 28.4821 373.122 28.2253 373.75 28.2253Z" fill="#2D2D2D"/>
<path d="M389.59 43.2699C389.679 43.2699 389.754 43.3303 389.814 43.4511C389.904 43.572 389.904 43.6626 389.814 43.723C388.707 44.7804 387.66 45.5507 386.673 46.0341C385.686 46.4872 384.639 46.7138 383.532 46.7138C382.246 46.7138 381.154 46.4117 380.257 45.8075C379.389 45.1731 378.956 44.1309 378.956 42.6808V32.4396C378.956 31.4426 378.791 30.778 378.462 30.4457C378.163 30.1134 377.565 29.9473 376.667 29.9473C376.638 29.9473 376.593 29.917 376.533 29.8566C376.503 29.766 376.488 29.6754 376.488 29.5847C376.488 29.4941 376.503 29.4186 376.533 29.3582C376.593 29.2675 376.638 29.2222 376.667 29.2222C379.479 29.1014 381.244 27.8779 381.962 25.5517C382.022 25.4309 382.141 25.3704 382.321 25.3704C382.53 25.3704 382.635 25.4309 382.635 25.5517V29.1316C384.041 29.1014 386.03 28.9503 388.603 28.6784C388.662 28.6784 388.722 28.7993 388.782 29.041C388.872 29.2524 388.917 29.4941 388.917 29.766C388.917 30.0379 388.857 30.3098 388.737 30.5817C388.647 30.8536 388.543 30.9744 388.423 30.9442C386.748 30.5514 384.819 30.3098 382.635 30.2191V41.1854C382.635 42.3636 382.919 43.2396 383.487 43.8136C384.086 44.3574 384.908 44.6293 385.955 44.6293C387.212 44.6293 388.393 44.1913 389.5 43.3152L389.59 43.2699Z" fill="#2D2D2D"/>
<path d="M390.079 46.17C389.99 46.17 389.945 46.0794 389.945 45.8981C389.945 45.7169 389.99 45.6262 390.079 45.6262C391.096 45.6262 391.769 45.4148 392.098 44.9918C392.428 44.5689 392.592 43.7381 392.592 42.4995V34.2522C392.592 33.225 392.487 32.4849 392.278 32.0317C392.069 31.5484 391.71 31.3067 391.201 31.3067C390.752 31.3067 390.169 31.488 389.451 31.8505H389.406C389.287 31.8505 389.197 31.775 389.137 31.6239C389.077 31.4729 389.092 31.3671 389.182 31.3067L395.643 28.2706L395.778 28.2253C395.897 28.2253 396.017 28.3008 396.137 28.4519C396.286 28.5727 396.361 28.6784 396.361 28.7691V29.7207C396.301 30.9895 396.271 32.4849 396.271 34.2069V42.4995C396.271 43.7381 396.436 44.5689 396.765 44.9918C397.124 45.4148 397.812 45.6262 398.829 45.6262C398.919 45.6262 398.963 45.7169 398.963 45.8981C398.963 46.0794 398.919 46.17 398.829 46.17C398.081 46.17 397.483 46.1549 397.034 46.1247L394.432 46.0794L391.829 46.1247C391.41 46.1549 390.827 46.17 390.079 46.17ZM394.207 23.4672C393.43 23.4672 392.816 23.2557 392.368 22.8328C391.949 22.4099 391.74 21.8057 391.74 21.0202C391.74 20.2649 391.949 19.691 392.368 19.2982C392.816 18.8753 393.43 18.6638 394.207 18.6638C394.955 18.6638 395.538 18.8753 395.957 19.2982C396.376 19.691 396.585 20.2649 396.585 21.0202C396.585 21.8057 396.376 22.4099 395.957 22.8328C395.568 23.2557 394.985 23.4672 394.207 23.4672Z" fill="#2D2D2D"/>
<path d="M402.805 31.0348C402.805 31.9713 403.119 32.7568 403.748 33.3912C404.406 34.0256 405.348 34.6902 406.574 35.3851C407.651 35.9893 408.474 36.4877 409.042 36.8804C409.64 37.2732 410.149 37.8019 410.568 38.4665C411.016 39.1311 411.241 39.9317 411.241 40.8682C411.241 41.8953 410.986 42.8469 410.478 43.723C409.969 44.5991 409.207 45.309 408.19 45.8528C407.202 46.3966 406.021 46.6685 404.645 46.6685C403 46.6685 401.489 46.2456 400.113 45.3997C399.934 45.2184 399.844 45.0372 399.844 44.8559L399.754 40.6869C399.754 40.5963 399.829 40.551 399.979 40.551C400.158 40.5208 400.263 40.5359 400.293 40.5963C400.801 42.1068 401.564 43.3454 402.581 44.3121C403.628 45.2788 404.735 45.7622 405.901 45.7622C406.649 45.7622 407.232 45.5658 407.651 45.1731C408.07 44.7804 408.279 44.1913 408.279 43.4058C408.279 42.2578 407.95 41.3515 407.292 40.6869C406.634 39.9921 405.677 39.3124 404.421 38.6477C403.404 38.104 402.611 37.6508 402.043 37.2883C401.474 36.8956 400.981 36.382 400.562 35.7476C400.173 35.083 399.979 34.2673 399.979 33.3006C399.979 31.5786 400.592 30.2947 401.818 29.4488C403.075 28.6029 404.585 28.18 406.35 28.18C407.517 28.18 408.713 28.4065 409.939 28.8597C410.209 28.9805 410.343 29.1467 410.343 29.3582C410.343 30.053 410.328 30.5968 410.298 30.9895L410.254 33.1646C410.254 33.2553 410.164 33.3006 409.984 33.3006C409.805 33.3006 409.715 33.2553 409.715 33.1646C409.715 32.5604 409.476 31.9411 408.997 31.3067C408.519 30.6421 407.905 30.0983 407.158 29.6754C406.41 29.2524 405.647 29.041 404.869 29.041C403.493 29.041 402.805 29.7056 402.805 31.0348Z" fill="#2D2D2D"/>
<path d="M429.409 43.723C429.528 43.723 429.603 43.7985 429.633 43.9496C429.663 44.0704 429.618 44.1611 429.498 44.2215L424.877 46.4419C424.757 46.5023 424.623 46.5325 424.473 46.5325C424.054 46.5325 423.651 46.2909 423.262 45.8075C422.873 45.3241 422.604 44.6746 422.454 43.859L420.121 45.1278C418.386 46.0341 416.905 46.4872 415.679 46.4872C414.722 46.4872 413.974 46.2455 413.435 45.7622C412.927 45.2486 412.673 44.5538 412.673 43.6777C412.673 42.7412 413.002 42.0464 413.66 41.5932C414.318 41.1099 415.574 40.551 417.429 39.9166L422.319 38.2399V34.6147C422.319 32.7719 422.11 31.4276 421.691 30.5817C421.272 29.7056 420.644 29.2675 419.807 29.2675C418.191 29.2675 417.264 30.4608 417.025 32.8474C416.875 34.3579 416.113 35.1132 414.737 35.1132C413.45 35.1132 412.807 34.5543 412.807 33.4365C412.807 32.651 413.286 31.8656 414.243 31.0801C415.23 30.2645 416.412 29.5998 417.788 29.0863C419.164 28.5425 420.39 28.2706 421.467 28.2706C422.813 28.2706 423.89 28.6935 424.697 29.5394C425.535 30.3551 425.954 31.5937 425.954 33.2552V41.276C425.954 42.2125 426.103 42.9225 426.402 43.4058C426.702 43.8892 427.135 44.1308 427.704 44.1308C428.152 44.1308 428.691 43.9949 429.319 43.723H429.409ZM422.364 43.1339C422.334 43.0131 422.319 42.7865 422.319 42.4542V38.9649L419.134 40.1431C418.356 40.4452 417.803 40.7775 417.474 41.1401C417.145 41.4724 416.98 41.8953 416.98 42.4089C416.98 43.0433 417.159 43.5418 417.518 43.9043C417.877 44.2668 418.341 44.4481 418.909 44.4481C419.538 44.4481 420.24 44.2517 421.018 43.859L422.364 43.1339Z" fill="#2D2D2D"/>
<path d="M449.865 45.6262C449.955 45.6262 450 45.7169 450 45.8981C450 46.0794 449.955 46.17 449.865 46.17C449.118 46.17 448.534 46.1549 448.116 46.1247L445.513 46.0794L442.956 46.1247C442.507 46.1549 441.909 46.17 441.161 46.17C441.071 46.17 441.026 46.0794 441.026 45.8981C441.026 45.7169 441.071 45.6262 441.161 45.6262C442.178 45.6262 442.851 45.4148 443.18 44.9918C443.509 44.5689 443.674 43.7381 443.674 42.4995V35.7023C443.674 34.0105 443.359 32.7719 442.731 31.9864C442.133 31.1708 441.176 30.7629 439.86 30.7629C439.082 30.7629 438.289 30.9442 437.482 31.3067C436.674 31.6692 435.941 32.1526 435.283 32.7568V42.4995C435.283 43.7381 435.448 44.5689 435.777 44.9918C436.106 45.4148 436.779 45.6262 437.796 45.6262C437.885 45.6262 437.93 45.7169 437.93 45.8981C437.93 46.0794 437.885 46.17 437.796 46.17C437.048 46.17 436.465 46.1549 436.046 46.1247L433.443 46.0794L430.841 46.1247C430.422 46.1549 429.839 46.17 429.091 46.17C429.001 46.17 428.957 46.0794 428.957 45.8981C428.957 45.7169 429.001 45.6262 429.091 45.6262C430.108 45.6262 430.781 45.4148 431.11 44.9918C431.439 44.5689 431.604 43.7381 431.604 42.4995V33.8443C431.604 32.8776 431.484 32.1677 431.245 31.7145C431.035 31.2614 430.676 31.0348 430.168 31.0348C429.719 31.0348 428.971 31.2614 427.925 31.7145H427.88C427.76 31.7145 427.67 31.639 427.61 31.488C427.551 31.3369 427.566 31.2463 427.655 31.2161L433.533 28.3159C433.713 28.2555 433.817 28.2253 433.847 28.2253C434.146 28.2253 434.445 28.5727 434.745 29.2675C435.074 29.9321 435.253 30.8082 435.283 31.8958C437.377 29.3884 439.65 28.1347 442.103 28.1347C443.748 28.1347 445.035 28.6482 445.962 29.6754C446.889 30.6723 447.353 32.0317 447.353 33.7537V42.4995C447.353 43.7381 447.517 44.5689 447.846 44.9918C448.175 45.4148 448.848 45.6262 449.865 45.6262Z" fill="#2D2D2D"/>
<path d="M79.3164 62.415C79.221 62.415 79.1403 62.3854 79.0743 62.3261C79.0156 62.2594 78.9863 62.1779 78.9863 62.0816V54.0677C78.9863 53.9713 79.0156 53.8935 79.0743 53.8342C79.1403 53.7675 79.221 53.7342 79.3164 53.7342H84.6101C84.6982 53.7342 84.7752 53.7675 84.8412 53.8342C84.9073 53.8935 84.9403 53.9713 84.9403 54.0677C84.9403 54.1566 84.9073 54.2344 84.8412 54.3011C84.7752 54.3678 84.6982 54.4011 84.6101 54.4011H79.6466V57.7356H83.2894C83.3848 57.7356 83.4619 57.769 83.5206 57.8356C83.5866 57.8949 83.6196 57.9727 83.6196 58.0691C83.6196 58.1654 83.5866 58.2469 83.5206 58.3136C83.4619 58.3803 83.3848 58.4136 83.2894 58.4136H79.6466V61.7481H84.6101C84.6982 61.7481 84.7752 61.7815 84.8412 61.8482C84.9073 61.9149 84.9403 61.9927 84.9403 62.0816C84.9403 62.1779 84.9073 62.2594 84.8412 62.3261C84.7752 62.3854 84.6982 62.415 84.6101 62.415H79.3164Z" fill="#2D2D2D"/>
<path d="M87.4115 62.415C87.3162 62.415 87.2355 62.3854 87.1694 62.3261C87.1107 62.2594 87.0814 62.1779 87.0814 62.0816V54.0677C87.0814 53.9713 87.1107 53.8935 87.1694 53.8342C87.2355 53.7675 87.3162 53.7342 87.4115 53.7342C87.5143 53.7342 87.5986 53.7713 87.6647 53.8454L93.2555 61.1924V54.0677C93.2555 53.9713 93.2849 53.8935 93.3436 53.8342C93.4096 53.7675 93.4903 53.7342 93.5857 53.7342C93.6737 53.7342 93.7508 53.7675 93.8168 53.8342C93.8828 53.8935 93.9159 53.9713 93.9159 54.0677V62.0816C93.9159 62.1779 93.8828 62.2594 93.8168 62.3261C93.7508 62.3854 93.6737 62.415 93.5857 62.415C93.5343 62.415 93.4866 62.4076 93.4426 62.3928C93.4059 62.3706 93.3729 62.3446 93.3436 62.315L87.7417 54.9569V62.0816C87.7417 62.1779 87.7087 62.2594 87.6427 62.3261C87.584 62.3854 87.5069 62.415 87.4115 62.415Z" fill="#2D2D2D"/>
<path d="M99.1467 62.415C99.0513 62.415 98.9706 62.3854 98.9046 62.3261C98.8459 62.2594 98.8165 62.1779 98.8165 62.0816V53.7342H99.4769V62.0816C99.4769 62.1779 99.4438 62.2594 99.3778 62.3261C99.3191 62.3854 99.2421 62.415 99.1467 62.415ZM96.0321 54.3344C95.9441 54.3344 95.8707 54.3085 95.812 54.2566C95.7606 54.1973 95.735 54.1232 95.735 54.0343C95.735 53.9454 95.7606 53.875 95.812 53.8231C95.8707 53.7638 95.9441 53.7342 96.0321 53.7342H102.261C102.349 53.7342 102.419 53.7638 102.47 53.8231C102.529 53.875 102.558 53.9454 102.558 54.0343C102.558 54.1232 102.529 54.1973 102.47 54.2566C102.419 54.3085 102.349 54.3344 102.261 54.3344H96.0321Z" fill="#2D2D2D"/>
<path d="M104.709 62.415C104.613 62.415 104.533 62.3854 104.467 62.3261C104.408 62.2594 104.379 62.1779 104.379 62.0816V54.0677C104.379 53.9639 104.408 53.8824 104.467 53.8231C104.533 53.7638 104.613 53.7342 104.709 53.7342H106.811C107.346 53.7342 107.82 53.8491 108.231 54.0788C108.649 54.3011 108.975 54.6086 109.21 55.0013C109.445 55.3941 109.562 55.8498 109.562 56.3685C109.562 56.8724 109.445 57.3207 109.21 57.7134C108.975 58.1061 108.649 58.4136 108.231 58.6359C107.82 58.8582 107.346 58.9694 106.811 58.9694H105.039V62.0816C105.039 62.1779 105.01 62.2594 104.951 62.3261C104.892 62.3854 104.812 62.415 104.709 62.415ZM109.331 62.415C109.25 62.415 109.188 62.4002 109.144 62.3706C109.107 62.3335 109.071 62.2891 109.034 62.2372L106.844 58.7026L107.526 58.547L109.606 61.9037C109.702 62.0519 109.72 62.1742 109.661 62.2705C109.61 62.3669 109.5 62.415 109.331 62.415ZM105.039 58.3025H106.811C107.222 58.3025 107.581 58.221 107.889 58.0579C108.205 57.8875 108.451 57.6578 108.627 57.3688C108.81 57.0798 108.902 56.7464 108.902 56.3685C108.902 55.9832 108.81 55.6423 108.627 55.3459C108.451 55.0495 108.205 54.8198 107.889 54.6568C107.581 54.4863 107.222 54.4011 106.811 54.4011H105.039V58.3025Z" fill="#2D2D2D"/>
<path d="M111.955 62.415C111.859 62.415 111.779 62.3854 111.713 62.3261C111.654 62.2594 111.625 62.1779 111.625 62.0816V54.0677C111.625 53.9713 111.654 53.8935 111.713 53.8342C111.779 53.7675 111.859 53.7342 111.955 53.7342H117.249C117.337 53.7342 117.414 53.7675 117.48 53.8342C117.546 53.8935 117.579 53.9713 117.579 54.0677C117.579 54.1566 117.546 54.2344 117.48 54.3011C117.414 54.3678 117.337 54.4011 117.249 54.4011H112.285V57.7356H115.928C116.023 57.7356 116.1 57.769 116.159 57.8356C116.225 57.8949 116.258 57.9727 116.258 58.0691C116.258 58.1654 116.225 58.2469 116.159 58.3136C116.1 58.3803 116.023 58.4136 115.928 58.4136H112.285V61.7481H117.249C117.337 61.7481 117.414 61.7815 117.48 61.8482C117.546 61.9149 117.579 61.9927 117.579 62.0816C117.579 62.1779 117.546 62.2594 117.48 62.3261C117.414 62.3854 117.337 62.415 117.249 62.415H111.955Z" fill="#2D2D2D"/>
<path d="M120.05 62.415C119.955 62.415 119.874 62.3854 119.808 62.3261C119.749 62.2594 119.72 62.1779 119.72 62.0816V54.0677C119.72 53.9639 119.749 53.8824 119.808 53.8231C119.874 53.7638 119.955 53.7342 120.05 53.7342H122.251C122.787 53.7342 123.26 53.8528 123.671 54.0899C124.089 54.327 124.416 54.6568 124.65 55.0791C124.885 55.4941 125.002 55.972 125.002 56.513C125.002 57.0539 124.885 57.5355 124.65 57.9579C124.416 58.3803 124.089 58.71 123.671 58.9471C123.26 59.1843 122.787 59.3028 122.251 59.3028H120.38V62.0816C120.38 62.1779 120.351 62.2594 120.292 62.3261C120.233 62.3854 120.153 62.415 120.05 62.415ZM120.38 58.6359H122.251C122.662 58.6359 123.021 58.547 123.33 58.3692C123.645 58.1839 123.891 57.932 124.067 57.6134C124.25 57.2947 124.342 56.9279 124.342 56.513C124.342 56.098 124.25 55.7349 124.067 55.4237C123.891 55.1051 123.645 54.8568 123.33 54.679C123.021 54.4937 122.662 54.4011 122.251 54.4011H120.38V58.6359Z" fill="#2D2D2D"/>
<path d="M127.264 62.415C127.168 62.415 127.088 62.3854 127.022 62.3261C126.963 62.2594 126.934 62.1779 126.934 62.0816V54.0677C126.934 53.9639 126.963 53.8824 127.022 53.8231C127.088 53.7638 127.168 53.7342 127.264 53.7342H129.366C129.901 53.7342 130.375 53.8491 130.786 54.0788C131.204 54.3011 131.53 54.6086 131.765 55.0013C132 55.3941 132.117 55.8498 132.117 56.3685C132.117 56.8724 132 57.3207 131.765 57.7134C131.53 58.1061 131.204 58.4136 130.786 58.6359C130.375 58.8582 129.901 58.9694 129.366 58.9694H127.594V62.0816C127.594 62.1779 127.565 62.2594 127.506 62.3261C127.447 62.3854 127.367 62.415 127.264 62.415ZM131.886 62.415C131.805 62.415 131.743 62.4002 131.699 62.3706C131.662 62.3335 131.626 62.2891 131.589 62.2372L129.399 58.7026L130.081 58.547L132.161 61.9037C132.257 62.0519 132.275 62.1742 132.216 62.2705C132.165 62.3669 132.055 62.415 131.886 62.415ZM127.594 58.3025H129.366C129.777 58.3025 130.136 58.221 130.444 58.0579C130.76 57.8875 131.006 57.6578 131.182 57.3688C131.365 57.0798 131.457 56.7464 131.457 56.3685C131.457 55.9832 131.365 55.6423 131.182 55.3459C131.006 55.0495 130.76 54.8198 130.444 54.6568C130.136 54.4863 129.777 54.4011 129.366 54.4011H127.594V58.3025Z" fill="#2D2D2D"/>
<path d="M134.51 62.415C134.414 62.415 134.334 62.3854 134.268 62.3261C134.209 62.2594 134.18 62.1779 134.18 62.0816V54.0677C134.18 53.9713 134.209 53.8935 134.268 53.8342C134.334 53.7675 134.414 53.7342 134.51 53.7342C134.605 53.7342 134.682 53.7675 134.741 53.8342C134.807 53.8935 134.84 53.9713 134.84 54.0677V62.0816C134.84 62.1779 134.807 62.2594 134.741 62.3261C134.682 62.3854 134.605 62.415 134.51 62.415Z" fill="#2D2D2D"/>
<path d="M140.164 62.5262C139.702 62.5262 139.276 62.4632 138.888 62.3372C138.506 62.2038 138.176 62.0186 137.897 61.7815C137.618 61.5369 137.398 61.2517 137.237 60.9256C137.193 60.8367 137.189 60.7515 137.226 60.67C137.27 60.5885 137.339 60.5329 137.435 60.5033C137.515 60.4736 137.596 60.4773 137.677 60.5144C137.758 60.5514 137.82 60.6107 137.864 60.6922C137.996 60.9293 138.168 61.1368 138.381 61.3146C138.601 61.4925 138.858 61.6296 139.152 61.7259C139.452 61.8148 139.79 61.8593 140.164 61.8593C140.582 61.8593 140.942 61.7889 141.243 61.6481C141.551 61.5073 141.786 61.2998 141.947 61.0257C142.116 60.7515 142.2 60.418 142.2 60.0253C142.2 59.5362 142.024 59.125 141.672 58.7915C141.327 58.4507 140.799 58.2321 140.087 58.1357C139.265 58.0172 138.623 57.7504 138.161 57.3355C137.699 56.9131 137.468 56.4018 137.468 55.8016C137.468 55.3644 137.574 54.9828 137.787 54.6568C138.007 54.3307 138.312 54.0788 138.7 53.9009C139.097 53.7157 139.552 53.6231 140.065 53.6231C140.447 53.6231 140.799 53.686 141.122 53.812C141.444 53.938 141.727 54.1047 141.969 54.3122C142.211 54.5123 142.398 54.7235 142.53 54.9458C142.582 55.0273 142.593 55.1162 142.563 55.2125C142.541 55.3014 142.483 55.3644 142.387 55.4015C142.307 55.4311 142.226 55.4348 142.145 55.4126C142.064 55.3829 141.998 55.3311 141.947 55.257C141.844 55.1014 141.712 54.9495 141.551 54.8013C141.389 54.6531 141.188 54.5308 140.946 54.4345C140.703 54.3381 140.41 54.29 140.065 54.29C139.463 54.29 138.99 54.427 138.645 54.7012C138.301 54.9754 138.128 55.3644 138.128 55.8683C138.128 56.1351 138.198 56.3796 138.337 56.6019C138.484 56.8168 138.711 57.002 139.02 57.1576C139.328 57.3132 139.72 57.4318 140.197 57.5133C141.144 57.6763 141.822 57.9727 142.233 58.4025C142.651 58.8249 142.861 59.3658 142.861 60.0253C142.861 60.4106 142.794 60.7589 142.662 61.0701C142.538 61.3813 142.354 61.6444 142.112 61.8593C141.877 62.0742 141.595 62.2409 141.265 62.3595C140.935 62.4706 140.568 62.5262 140.164 62.5262Z" fill="#2D2D2D"/>
<path d="M145.552 62.415C145.457 62.415 145.376 62.3854 145.31 62.3261C145.251 62.2594 145.222 62.1779 145.222 62.0816V54.0677C145.222 53.9713 145.251 53.8935 145.31 53.8342C145.376 53.7675 145.457 53.7342 145.552 53.7342H150.846C150.934 53.7342 151.011 53.7675 151.077 53.8342C151.143 53.8935 151.176 53.9713 151.176 54.0677C151.176 54.1566 151.143 54.2344 151.077 54.3011C151.011 54.3678 150.934 54.4011 150.846 54.4011H145.882V57.7356H149.525C149.62 57.7356 149.697 57.769 149.756 57.8356C149.822 57.8949 149.855 57.9727 149.855 58.0691C149.855 58.1654 149.822 58.2469 149.756 58.3136C149.697 58.3803 149.62 58.4136 149.525 58.4136H145.882V61.7481H150.846C150.934 61.7481 151.011 61.7815 151.077 61.8482C151.143 61.9149 151.176 61.9927 151.176 62.0816C151.176 62.1779 151.143 62.2594 151.077 62.3261C151.011 62.3854 150.934 62.415 150.846 62.415H145.552Z" fill="#2D2D2D"/>
<path d="M156.75 62.415C156.655 62.415 156.574 62.3854 156.508 62.3261C156.45 62.2594 156.42 62.1779 156.42 62.0816V54.0677C156.42 53.9713 156.45 53.8935 156.508 53.8342C156.574 53.7675 156.655 53.7342 156.75 53.7342H162.044C162.132 53.7342 162.209 53.7675 162.275 53.8342C162.341 53.8935 162.374 53.9713 162.374 54.0677C162.374 54.1566 162.341 54.2344 162.275 54.3011C162.209 54.3678 162.132 54.4011 162.044 54.4011H157.081V57.7356H160.723C160.819 57.7356 160.896 57.769 160.954 57.8356C161.021 57.8949 161.054 57.9727 161.054 58.0691C161.054 58.1654 161.021 58.2469 160.954 58.3136C160.896 58.3803 160.819 58.4136 160.723 58.4136H157.081V62.0816C157.081 62.1779 157.048 62.2594 156.981 62.3261C156.923 62.3854 156.846 62.415 156.75 62.415Z" fill="#2D2D2D"/>
<path d="M164.85 62.415C164.755 62.415 164.674 62.3854 164.608 62.3261C164.55 62.2594 164.52 62.1779 164.52 62.0816V54.0677C164.52 53.9639 164.55 53.8824 164.608 53.8231C164.674 53.7638 164.755 53.7342 164.85 53.7342H166.953C167.488 53.7342 167.961 53.8491 168.372 54.0788C168.79 54.3011 169.117 54.6086 169.352 55.0013C169.587 55.3941 169.704 55.8498 169.704 56.3685C169.704 56.8724 169.587 57.3207 169.352 57.7134C169.117 58.1061 168.79 58.4136 168.372 58.6359C167.961 58.8582 167.488 58.9694 166.953 58.9694H165.181V62.0816C165.181 62.1779 165.151 62.2594 165.093 62.3261C165.034 62.3854 164.953 62.415 164.85 62.415ZM169.473 62.415C169.392 62.415 169.33 62.4002 169.286 62.3706C169.249 62.3335 169.212 62.2891 169.176 62.2372L166.986 58.7026L167.668 58.547L169.748 61.9037C169.843 62.0519 169.862 62.1742 169.803 62.2705C169.752 62.3669 169.642 62.415 169.473 62.415ZM165.181 58.3025H166.953C167.363 58.3025 167.723 58.221 168.031 58.0579C168.347 57.8875 168.592 57.6578 168.768 57.3688C168.952 57.0798 169.044 56.7464 169.044 56.3685C169.044 55.9832 168.952 55.6423 168.768 55.3459C168.592 55.0495 168.347 54.8198 168.031 54.6568C167.723 54.4863 167.363 54.4011 166.953 54.4011H165.181V58.3025Z" fill="#2D2D2D"/>
<path d="M171.205 62.415C171.066 62.415 170.967 62.3594 170.908 62.2483C170.857 62.1371 170.857 62.0334 170.908 61.9371L174.243 53.9676C174.301 53.812 174.408 53.7342 174.562 53.7342C174.709 53.7342 174.815 53.812 174.881 53.9676L178.227 61.9371C178.285 62.0408 178.282 62.1483 178.216 62.2594C178.15 62.3632 178.054 62.415 177.929 62.415C177.856 62.415 177.794 62.4002 177.742 62.3706C177.698 62.3335 177.658 62.2779 177.621 62.2038L174.386 54.4122H174.738L171.513 62.2038C171.484 62.2779 171.444 62.3335 171.392 62.3706C171.341 62.4002 171.278 62.415 171.205 62.415ZM172.019 60.2365L172.284 59.6363H176.862L177.115 60.2365H172.019Z" fill="#2D2D2D"/>
<path d="M180.385 62.415C180.29 62.415 180.209 62.3854 180.143 62.3261C180.084 62.2594 180.055 62.1779 180.055 62.0816V54.0677C180.055 53.9713 180.084 53.8935 180.143 53.8342C180.209 53.7675 180.29 53.7342 180.385 53.7342C180.488 53.7342 180.572 53.7713 180.638 53.8454L186.229 61.1924V54.0677C186.229 53.9713 186.258 53.8935 186.317 53.8342C186.383 53.7675 186.464 53.7342 186.559 53.7342C186.647 53.7342 186.724 53.7675 186.79 53.8342C186.856 53.8935 186.889 53.9713 186.889 54.0677V62.0816C186.889 62.1779 186.856 62.2594 186.79 62.3261C186.724 62.3854 186.647 62.415 186.559 62.415C186.508 62.415 186.46 62.4076 186.416 62.3928C186.379 62.3706 186.346 62.3446 186.317 62.315L180.715 54.9569V62.0816C180.715 62.1779 180.682 62.2594 180.616 62.3261C180.558 62.3854 180.48 62.415 180.385 62.415Z" fill="#2D2D2D"/>
<path d="M193.507 62.5262C192.92 62.5262 192.366 62.4113 191.845 62.1816C191.331 61.9445 190.877 61.6222 190.48 61.2146C190.084 60.7997 189.772 60.3254 189.545 59.7919C189.317 59.251 189.204 58.6767 189.204 58.0691C189.204 57.4688 189.314 56.902 189.534 56.3685C189.754 55.8275 190.059 55.3533 190.447 54.9458C190.844 54.5308 191.302 54.2085 191.823 53.9787C192.344 53.7416 192.905 53.6231 193.507 53.6231C194.013 53.6231 194.494 53.7046 194.949 53.8676C195.404 54.0306 195.829 54.2788 196.225 54.6123C196.291 54.6642 196.324 54.7383 196.324 54.8346C196.324 54.9235 196.295 55.005 196.236 55.0791C196.178 55.1458 196.097 55.1792 195.994 55.1792C195.965 55.1792 195.936 55.1755 195.906 55.1681C195.877 55.1532 195.847 55.1384 195.818 55.1236C195.789 55.1014 195.756 55.0754 195.719 55.0458C195.426 54.779 195.092 54.5864 194.718 54.4678C194.343 54.3492 193.94 54.29 193.507 54.29C193.015 54.29 192.549 54.3937 192.109 54.6012C191.669 54.8012 191.28 55.0791 190.943 55.4348C190.605 55.7831 190.341 56.1832 190.15 56.6352C189.959 57.0872 189.864 57.5652 189.864 58.0691C189.864 58.5878 189.959 59.0768 190.15 59.5362C190.341 59.9957 190.601 60.3995 190.932 60.7478C191.269 61.0961 191.658 61.3702 192.098 61.5703C192.538 61.7629 193.008 61.8593 193.507 61.8593C193.94 61.8593 194.343 61.7926 194.718 61.6592C195.099 61.5258 195.455 61.3221 195.785 61.0479C195.844 60.996 195.913 60.9775 195.994 60.9923C196.075 61.0071 196.145 61.0442 196.203 61.1035C196.262 61.1627 196.291 61.2405 196.291 61.3369C196.291 61.3813 196.288 61.4221 196.28 61.4591C196.273 61.4962 196.251 61.5332 196.214 61.5703C195.855 61.9334 195.437 62.1853 194.96 62.3261C194.49 62.4595 194.006 62.5262 193.507 62.5262Z" fill="#2D2D2D"/>
<path d="M198.961 62.415C198.873 62.415 198.796 62.3854 198.73 62.3261C198.664 62.2594 198.631 62.1779 198.631 62.0816V54.0677C198.631 53.9713 198.664 53.8935 198.73 53.8342C198.796 53.7675 198.873 53.7342 198.961 53.7342C199.057 53.7342 199.134 53.7675 199.192 53.8342C199.258 53.8935 199.291 53.9713 199.291 54.0677V58.1469L203.562 53.8342C203.598 53.7972 203.635 53.7713 203.672 53.7564C203.716 53.7416 203.763 53.7342 203.815 53.7342C203.91 53.7342 203.987 53.7675 204.046 53.8342C204.105 53.8935 204.138 53.9676 204.145 54.0565C204.152 54.1455 204.119 54.2307 204.046 54.3122L200.887 57.5022L204.079 61.8815C204.138 61.963 204.16 62.0482 204.145 62.1372C204.13 62.2187 204.094 62.2854 204.035 62.3372C203.976 62.3891 203.906 62.415 203.826 62.415C203.701 62.415 203.606 62.3669 203.54 62.2705L200.403 57.9912L199.291 59.1139V62.0816C199.291 62.1779 199.258 62.2594 199.192 62.3261C199.134 62.3854 199.057 62.415 198.961 62.415Z" fill="#2D2D2D"/>
<path d="M210.511 62.415C210.386 62.415 210.283 62.3891 210.203 62.3372C210.122 62.2779 210.082 62.1927 210.082 62.0816V54.0677C210.082 53.9639 210.111 53.8824 210.17 53.8231C210.236 53.7638 210.316 53.7342 210.412 53.7342H213.108C213.519 53.7342 213.893 53.8268 214.231 54.0121C214.568 54.1899 214.84 54.4382 215.045 54.7568C215.251 55.068 215.353 55.4274 215.353 55.8349C215.353 56.2647 215.24 56.6426 215.012 56.9687C214.792 57.2873 214.502 57.5281 214.143 57.6912C214.642 57.8319 215.042 58.0913 215.342 58.4692C215.651 58.8471 215.805 59.3214 215.805 59.8919C215.805 60.381 215.695 60.8182 215.474 61.2035C215.262 61.5814 214.965 61.8778 214.583 62.0927C214.201 62.3076 213.765 62.415 213.273 62.415H210.511ZM210.742 61.7481H213.273C213.64 61.7481 213.963 61.6703 214.242 61.5147C214.521 61.3517 214.741 61.1331 214.902 60.8589C215.064 60.5773 215.144 60.255 215.144 59.8919C215.144 59.5363 215.064 59.2213 214.902 58.9471C214.741 58.673 214.521 58.4581 214.242 58.3025C213.963 58.1469 213.64 58.0691 213.273 58.0691H210.742V61.7481ZM210.742 57.4022H213.108C213.57 57.4022 213.948 57.2614 214.242 56.9798C214.543 56.6908 214.693 56.3092 214.693 55.8349C214.693 55.3755 214.543 55.0236 214.242 54.779C213.948 54.5271 213.57 54.4011 213.108 54.4011H210.742V57.4022Z" fill="#2D2D2D"/>
<path d="M218.389 62.415C218.293 62.415 218.213 62.3854 218.147 62.3261C218.088 62.2594 218.059 62.1779 218.059 62.0816V54.0677C218.059 53.9713 218.088 53.8935 218.147 53.8342C218.213 53.7675 218.293 53.7342 218.389 53.7342H223.682C223.77 53.7342 223.848 53.7675 223.914 53.8342C223.98 53.8935 224.013 53.9713 224.013 54.0677C224.013 54.1566 223.98 54.2344 223.914 54.3011C223.848 54.3678 223.77 54.4011 223.682 54.4011H218.719V57.7356H222.362C222.457 57.7356 222.534 57.769 222.593 57.8356C222.659 57.8949 222.692 57.9727 222.692 58.0691C222.692 58.1654 222.659 58.2469 222.593 58.3136C222.534 58.3803 222.457 58.4136 222.362 58.4136H218.719V61.7481H223.682C223.77 61.7481 223.848 61.7815 223.914 61.8482C223.98 61.9149 224.013 61.9927 224.013 62.0816C224.013 62.1779 223.98 62.2594 223.914 62.3261C223.848 62.3854 223.77 62.415 223.682 62.415H218.389Z" fill="#2D2D2D"/>
<path d="M226.484 62.415C226.396 62.415 226.319 62.3854 226.253 62.3261C226.187 62.2594 226.154 62.1779 226.154 62.0816V54.0677C226.154 53.9713 226.187 53.8935 226.253 53.8342C226.319 53.7675 226.396 53.7342 226.484 53.7342C226.579 53.7342 226.656 53.7675 226.715 53.8342C226.781 53.8935 226.814 53.9713 226.814 54.0677V61.8148H231.337C231.44 61.8148 231.521 61.8445 231.579 61.9037C231.638 61.9556 231.667 62.026 231.667 62.1149C231.667 62.2038 231.638 62.2779 231.579 62.3372C231.521 62.3891 231.44 62.415 231.337 62.415H226.484Z" fill="#2D2D2D"/>
<path d="M233.923 62.415C233.828 62.415 233.747 62.3854 233.681 62.3261C233.623 62.2594 233.593 62.1779 233.593 62.0816V54.0677C233.593 53.9713 233.623 53.8935 233.681 53.8342C233.747 53.7675 233.828 53.7342 233.923 53.7342C234.019 53.7342 234.096 53.7675 234.155 53.8342C234.221 53.8935 234.254 53.9713 234.254 54.0677V62.0816C234.254 62.1779 234.221 62.2594 234.155 62.3261C234.096 62.3854 234.019 62.415 233.923 62.415Z" fill="#2D2D2D"/>
<path d="M237.333 62.415C237.237 62.415 237.156 62.3854 237.09 62.3261C237.032 62.2594 237.002 62.1779 237.002 62.0816V54.0677C237.002 53.9713 237.032 53.8935 237.09 53.8342C237.156 53.7675 237.237 53.7342 237.333 53.7342C237.435 53.7342 237.52 53.7713 237.586 53.8454L243.177 61.1924V54.0677C243.177 53.9713 243.206 53.8935 243.265 53.8342C243.331 53.7675 243.411 53.7342 243.507 53.7342C243.595 53.7342 243.672 53.7675 243.738 53.8342C243.804 53.8935 243.837 53.9713 243.837 54.0677V62.0816C243.837 62.1779 243.804 62.2594 243.738 62.3261C243.672 62.3854 243.595 62.415 243.507 62.415C243.455 62.415 243.408 62.4076 243.364 62.3928C243.327 62.3706 243.294 62.3446 243.265 62.315L237.663 54.9569V62.0816C237.663 62.1779 237.63 62.2594 237.564 62.3261C237.505 62.3854 237.428 62.415 237.333 62.415Z" fill="#2D2D2D"/>
<path d="M67.7267 37.6202L33.8635 71.82L0 37.6198L33.8632 3.41998L67.7267 37.6202Z" fill="#68B0AB"/>
<path d="M27.9385 50.1628L26.0541 49.7846C26.0599 49.8147 26.0479 49.8327 26.0181 49.8386C25.9883 49.8445 25.9526 49.8202 25.9112 49.7659L24.9018 49.59C24.8144 49.1383 24.7269 48.6866 24.6394 48.2348C24.5759 47.7471 24.5153 47.2744 24.4577 46.8167C24.05 45.9905 23.5502 45.0886 22.9585 44.1111C22.3907 43.0976 21.7989 42.1201 21.1831 41.1786C20.5615 40.207 19.9632 39.3558 19.3883 38.6251C18.5067 38.5491 17.825 38.3867 17.3434 38.1379C16.8858 37.8531 16.6278 37.5601 16.5695 37.2589C16.5286 37.0481 16.5711 36.8677 16.6969 36.7178C16.8466 36.5319 17.0259 36.4183 17.2346 36.3771C17.503 36.3241 17.8777 36.5002 18.3586 36.9055C18.8338 37.2807 19.2315 37.6555 19.5517 38.03C20.7788 38.1316 22.2811 37.9756 24.0587 37.5619C24.1127 34.6433 24.2944 31.8245 24.6038 29.1056C24.9074 26.3566 25.1746 23.7398 25.4056 21.2552L24.1541 21.2679C22.1459 21.2894 20.2594 21.3806 18.4949 21.5415C16.7245 21.6723 15.1236 21.879 13.6923 22.1618C12.4995 22.3974 11.3093 22.7263 10.1216 23.1485C8.95801 23.5346 8.01734 24.0331 7.29969 24.6439C6.5762 25.2245 6.29904 25.9516 6.46817 26.8249C6.63147 27.6682 7.20641 28.3989 8.19301 29.017C9.1796 29.6351 10.5007 30.0621 12.1563 30.2979C13.8061 30.5036 15.6864 30.4605 17.7971 30.1687C18.9419 30.0051 19.9532 29.7115 20.831 29.288C21.7087 28.8645 22.0747 28.2763 21.9289 27.5233C21.8006 26.8608 21.3559 26.3232 20.5949 25.9107C19.8339 25.4982 18.9293 25.2235 17.8811 25.0866C16.8328 24.9497 15.8167 24.9784 14.8326 25.1728C14.0573 25.3259 13.4246 25.576 12.9345 25.9229C12.4684 26.2339 12.2849 26.6453 12.3841 27.1573C12.4191 27.338 12.5315 27.519 12.7215 27.7004L13.3369 28.001C13.5042 27.9054 13.6053 27.9479 13.6403 28.1286C13.6695 28.2792 13.5768 28.3601 13.3622 28.3712C12.41 28.0903 11.8784 27.6637 11.7676 27.0915C11.6451 26.459 11.9362 25.9638 12.6409 25.6057C13.3696 25.2116 14.1663 24.9292 15.031 24.7584C16.2238 24.5228 17.4276 24.5039 18.6425 24.7017C19.8514 24.8694 20.8987 25.241 21.7841 25.8166C22.6936 26.3561 23.2329 27.0625 23.402 27.9359C23.5886 28.8996 23.3646 29.7412 22.7299 30.4607C22.125 31.1743 21.2943 31.7605 20.2376 32.2194C19.2049 32.6422 18.1518 32.9596 17.0783 33.1717C15.4084 33.5015 13.7307 33.5515 12.0453 33.3216C10.3598 33.0916 8.89902 32.5828 7.66286 31.7951C6.45069 30.9714 5.71046 29.8669 5.44218 28.4816C5.30221 27.7588 5.31134 27.0065 5.46957 26.2248C5.79835 24.5652 6.48883 23.3344 7.54099 22.5325C8.58733 21.7005 9.91564 21.1254 11.5259 20.8074C13.1958 20.4775 15.1004 20.3202 17.2396 20.3354C19.4087 20.3448 21.7119 20.3276 24.1493 20.2839C24.3101 20.3147 24.4978 20.3245 24.7123 20.3134C24.9509 20.2663 25.2102 20.2463 25.4903 20.2536L25.6576 18.7196L27.153 20.2065C28.3153 20.1333 29.5969 20.0365 30.9978 19.9161C32.3928 19.7657 33.6868 19.5726 34.8796 19.337C35.6251 19.1898 36.2902 19.0271 36.8749 18.8491C37.4836 18.6351 37.9673 18.4145 38.3257 18.1873C38.5948 17.9778 38.7504 17.822 38.7925 17.7199C38.8347 17.6178 38.8499 17.5366 38.8382 17.4764C38.846 17.0371 38.9394 16.7997 39.1183 16.7644C39.2674 16.735 39.4188 16.877 39.5724 17.1906C39.8433 17.9501 39.4712 18.5864 38.456 19.0996C37.4706 19.607 36.2175 20.0108 34.6967 20.3112C33.6232 20.5232 32.4962 20.699 31.3157 20.8383C30.1592 20.9417 29.0773 21.0303 28.0699 21.1042L28.7466 21.721C28.3517 23.5187 27.9908 25.7319 27.6639 28.3605C27.337 30.989 27.1346 33.7806 27.0566 36.7353C28.1068 36.4028 29.1511 36.0402 30.1896 35.6474C31.2223 35.2246 32.1925 34.7984 33.1 34.369C33.2375 34.2793 33.3509 34.2257 33.4404 34.208C33.5597 34.1844 33.664 34.1638 33.7535 34.1461C34.1411 34.0696 34.3525 34.1216 34.3875 34.3023C34.4166 34.4529 34.2222 34.6477 33.804 34.8866C32.5438 35.5733 31.3526 36.1369 30.2304 36.5774C29.1082 37.0179 28.0341 37.3864 27.0079 37.6829C26.9928 39.8434 27.0374 41.9921 27.1416 44.1291C27.2757 46.2601 27.5413 48.2714 27.9385 50.1628ZM18.7388 37.9092C18.4957 37.6132 18.2494 37.3805 17.9998 37.2109C17.7801 37.0354 17.584 36.9022 17.4116 36.8112C17.1309 36.9604 17.136 37.147 17.4271 37.3709C17.7181 37.5949 18.1554 37.7743 18.7388 37.9092ZM24.3032 45.2995C24.2008 44.1315 24.1163 42.9756 24.0496 41.8319C24.0128 40.6822 24.0057 39.5267 24.0285 38.3652C23.307 38.4765 22.6123 38.5668 21.9446 38.6361C21.3068 38.6996 20.7049 38.709 20.1389 38.6645C20.8383 39.5582 21.5491 40.5904 22.2712 41.761C23.023 42.9258 23.7004 44.1053 24.3032 45.2995Z" fill="#F3F3F1"/>
<path d="M39.3661 61.7517C39.2546 61.7737 39.1631 61.6749 39.0916 61.4552C38.973 60.5435 38.8822 59.6264 38.8192 58.7037C38.7563 57.781 38.7297 56.8219 38.7394 55.8264L36.0441 55.1314C35.7444 52.2391 35.698 49.3844 35.9047 46.5674C36.1394 43.7449 36.4713 40.9763 36.9004 38.2615C36.4993 38.2822 36.1122 38.3002 35.739 38.3155C35.3882 38.2971 35.0514 38.276 34.7285 38.2521C34.0772 38.1762 33.5125 38.0247 33.0346 37.7977C32.5844 37.5651 32.3294 37.2941 32.2694 36.9844C32.2313 36.7874 32.2989 36.6134 32.4721 36.4622C32.64 36.283 32.8214 36.1741 33.0165 36.1356C33.4012 36.0303 33.9668 35.9625 34.7132 35.9319C35.4541 35.8732 36.3147 35.8348 37.295 35.8165C37.575 34.1247 37.8686 32.5033 38.1759 30.9522C38.4777 29.373 38.7487 27.8584 38.9887 26.4083L41.6575 29.4317C41.1212 31.1449 40.5997 33.3081 40.093 35.9213L41.5043 36.0371L41.7761 34.9752C42.0422 33.9583 42.387 32.7505 42.8106 31.3518C43.2287 29.925 43.7526 28.5211 44.3821 27.1402C45.0117 25.7592 45.7518 24.5756 46.6025 23.5894C47.4756 22.5695 48.4834 21.9467 49.626 21.721C50.6796 21.4836 51.6038 21.5495 52.3987 21.9185C53.1935 22.2875 53.8399 22.8612 54.3378 23.6395C54.8637 24.4123 55.2192 25.2772 55.4046 26.2342C55.5735 27.1067 55.5919 28.0236 55.4598 28.9848C55.3555 29.9406 55.0928 30.8253 54.6717 31.6391C54.2112 32.5482 53.5114 33.417 52.5723 34.2454C51.661 35.0683 50.6759 35.5844 49.6169 35.7935C49.2546 35.8651 48.8063 35.866 48.2719 35.7962C47.7654 35.7209 47.1499 35.7548 46.4253 35.8979C46.2581 35.931 46.0936 35.978 45.9318 36.0392C45.7646 36.0722 45.5862 36.1221 45.3966 36.1888L45.313 36.2053C45.1009 36.3056 44.9531 36.364 44.8695 36.3806L47.2068 36.7956C48.1695 36.9853 49.243 37.2993 50.4274 37.7375C51.6396 38.1702 52.8404 38.6928 54.0296 39.3054C55.2134 39.8898 56.2826 40.5553 57.2374 41.3018C58.5471 42.3873 59.5452 43.4322 60.2315 44.4363C60.9124 45.4123 61.3401 46.3506 61.5145 47.2513C61.7598 48.5178 61.5628 49.6672 60.9236 50.6994C60.3122 51.726 59.3952 52.5939 58.1726 53.303C56.9445 53.9839 55.578 54.473 54.0731 54.7702C52.6796 55.0454 51.2507 55.1377 49.7864 55.0471C48.3166 54.9283 46.9396 54.6158 45.6552 54.1097C44.3042 53.5583 43.1381 52.7658 42.1567 51.7323C41.1753 50.6988 40.5728 49.6051 40.3494 48.4511C40.1259 47.2971 40.2665 46.305 40.7712 45.4747C41.3038 44.6389 42.0809 43.9448 43.1024 43.3924C44.1238 42.84 45.2477 42.4426 46.4739 42.2004C47.31 42.0353 48.2236 41.9717 49.2148 42.0097C50.2005 42.0196 51.1635 42.1362 52.1037 42.3596C53.0385 42.5549 53.8225 42.8676 54.4555 43.2978C55.1165 43.7225 55.5096 44.2585 55.635 44.9059C55.8039 45.7784 55.3771 46.6371 54.3544 47.482C53.3595 48.3214 51.9288 48.8524 50.0622 49.075C49.6332 49.1013 49.1013 49.1187 48.4664 49.1272C47.8539 49.102 47.2165 49.0234 46.5544 48.8912C45.9201 48.7535 45.353 48.5148 44.8532 48.1752C44.3813 47.83 44.0854 47.3479 43.9654 46.7287C43.8619 46.1939 43.9222 45.7582 44.1464 45.4217C44.2136 45.3208 44.2751 45.2648 44.3309 45.2538C44.3866 45.2428 44.4227 45.2795 44.439 45.3639C44.4554 45.4484 44.4466 45.5524 44.4126 45.676C44.3175 45.7824 44.3027 46.0045 44.3681 46.3423C44.4825 46.9334 44.7563 47.3761 45.1895 47.6704C45.6172 47.9366 46.1288 48.1132 46.7243 48.2001C47.3199 48.287 47.9018 48.3036 48.4701 48.2498C49.0384 48.196 49.5037 48.1333 49.866 48.0617C51.1649 47.7467 52.1276 47.2643 52.7541 46.6146C53.403 45.9312 53.6648 45.2658 53.5394 44.6184C53.3977 43.8866 52.9182 43.3531 52.1009 43.0177C51.2782 42.6542 50.3268 42.4476 49.2466 42.398C48.1664 42.3483 47.1664 42.4143 46.2467 42.596C45.3828 42.7666 44.5879 43.0697 43.8621 43.5053C43.1308 43.9128 42.5634 44.4194 42.1598 45.0251C41.7787 45.5971 41.659 46.2491 41.8008 46.9809C41.9861 47.9379 42.5728 48.8009 43.5609 49.5701C44.5768 50.3338 45.6803 50.8026 46.8714 50.9764C47.8565 51.1325 48.9115 51.2017 50.0366 51.1841C51.184 51.1328 52.2734 51.0053 53.3045 50.8016C54.5029 50.5649 55.5792 50.2208 56.5334 49.7693C57.5155 49.3123 58.2614 48.7559 58.7709 48.1C59.3029 47.4105 59.4844 46.6295 59.3154 45.7569C59.2064 45.194 58.9138 44.5797 58.4377 43.9139C57.9561 43.2201 57.2519 42.4971 56.325 41.745C54.9431 40.5861 53.3795 39.6091 51.6341 38.8142C49.9166 38.0137 48.3484 37.4614 46.9296 37.1572C46.451 37.0764 45.9724 36.9956 45.4938 36.9148C45.043 36.8285 44.5811 36.759 44.1079 36.7063C43.645 36.8562 43.1961 37.0033 42.7611 37.1477C42.354 37.2865 41.9441 37.4113 41.5315 37.5221C40.9752 40.0282 40.4739 42.6696 40.0279 45.4462C39.5818 48.2228 39.2917 50.9832 39.1576 53.7274C39.0181 56.4435 39.1215 58.9946 39.4679 61.3809C39.5115 61.6061 39.4776 61.7297 39.3661 61.7517ZM44.2433 36.2851C44.7008 36.107 45.1415 35.9177 45.5656 35.7171C46.0176 35.5109 46.4223 35.2848 46.7798 35.0389C48.6901 33.6972 50.2209 31.8899 51.3721 29.6169C51.7315 28.9323 52.0359 28.0393 52.2856 26.9379C52.5577 25.8029 52.6093 24.7992 52.4403 23.9267C52.315 23.2793 52.0442 22.7775 51.628 22.4214C51.2064 22.0371 50.5636 21.9303 49.6996 22.1009C48.6127 22.3156 47.6552 22.8993 46.8269 23.8519C45.9986 24.8045 45.281 25.9544 44.6738 27.3017C44.0667 28.649 43.5513 30.022 43.1277 31.4207C42.7266 32.7857 42.3984 34.0048 42.1433 35.078L41.8969 36.0472C42.3089 36.0827 42.7069 36.121 43.091 36.162C43.4697 36.1749 43.8538 36.2159 44.2433 36.2851ZM32.7786 33.1141C31.9316 33.223 31.0968 33.0957 30.2741 32.7321C29.4738 32.335 28.9647 31.5735 28.7466 30.4476C28.6376 29.8847 28.8709 29.3711 29.4465 28.9067C30.0166 28.4142 30.8009 27.9817 31.7993 27.6091C32.8257 27.2311 33.9435 26.9518 35.1527 26.7714C35.4593 26.7109 35.9722 26.595 36.6913 26.4237C37.4105 26.2524 38.1075 26.0417 38.7824 25.7915C39.4852 25.5358 39.9681 25.2651 40.231 24.9794C40.2983 24.8784 40.3292 24.8139 40.3238 24.7857C40.3407 24.7239 40.3465 24.6789 40.341 24.6508C40.2804 24.4874 40.2753 24.3862 40.3256 24.347C40.4037 24.3023 40.4871 24.3589 40.5755 24.5168C40.7524 24.8325 40.6927 25.122 40.3964 25.385C40.128 25.6426 39.726 25.8827 39.1904 26.1054C38.6548 26.3281 38.0972 26.5113 37.5174 26.6551C36.9376 26.7988 36.4247 26.9147 35.9788 27.0028C35.5607 27.0853 35.3099 27.1349 35.2263 27.1514C33.2925 27.4749 31.7618 27.938 30.6343 28.5406C29.5067 29.1432 29.0029 29.7541 29.1229 30.3733C29.2264 30.9081 29.5757 31.2921 30.1706 31.5252C30.7934 31.7529 31.5646 31.7759 32.4843 31.5943C33.4597 31.4016 34.1513 31.1627 34.559 30.8776C34.9613 30.5644 35.138 30.2811 35.0889 30.0278C35.0126 29.6337 34.5485 29.4039 33.6967 29.3384C33.5574 29.3659 33.4768 29.3234 33.455 29.2108C33.4277 29.0701 33.5338 29.0199 33.7731 29.0603C34.3299 29.0965 34.7748 29.2277 35.108 29.4541C35.4636 29.6469 35.6905 29.9966 35.7886 30.5032C35.8867 31.0099 35.754 31.4452 35.3905 31.8092C35.027 32.1733 34.5913 32.4639 34.0836 32.681C33.5759 32.8982 33.1409 33.0426 32.7786 33.1141ZM36.9695 37.7218L37.2014 36.2295C35.3523 36.244 33.9819 36.3394 33.0901 36.5155C32.7496 36.6997 32.8071 36.9221 33.2627 37.1828C33.7183 37.4435 34.3302 37.6148 35.0984 37.6969C35.577 37.7777 36.2007 37.786 36.9695 37.7218ZM39.7858 37.4724L41.2489 37.1834C41.2828 37.0598 41.3029 36.9389 41.3089 36.8208C41.3429 36.6973 41.3741 36.5596 41.4025 36.4078L39.9994 36.3343L39.7858 37.4724ZM41.6669 37.1008C41.9681 37.0121 42.258 36.9402 42.5367 36.8852C42.8099 36.802 43.0943 36.702 43.39 36.5851C43.1228 36.5502 42.8584 36.5294 42.5966 36.5227C42.3295 36.4878 42.065 36.4669 41.8033 36.4602L41.6669 37.1008ZM38.7513 54.9912C38.8024 52.1172 39.0598 49.188 39.5234 46.2033C40.0095 43.185 40.5562 40.3301 41.1635 37.6386L39.7003 37.9276C39.2488 40.676 38.9081 43.5487 38.6783 46.5456C38.4709 49.5089 38.4952 52.324 38.7513 54.9912Z" fill="#F3F3F1"/>
</svg>
