<svg width="450" height="69" viewBox="0 0 450 69" fill="none" xmlns="http://www.w3.org/2000/svg">
<path d="M84.4992 39.3181C84.4992 40.1338 84.559 40.7229 84.6787 41.0854C84.8283 41.448 85.0975 41.6896 85.4863 41.8105C85.8752 41.9313 86.5034 41.9917 87.3708 41.9917H90.063C92.1868 41.9917 93.9815 41.4026 95.4472 40.2244C96.913 39.016 97.8851 37.3998 98.3637 35.3758C98.3936 35.2851 98.4834 35.2549 98.6329 35.2851C98.7825 35.2851 98.8573 35.3304 98.8573 35.4211C98.5881 38.2608 98.4534 40.6172 98.4534 42.4902C98.4534 42.7319 98.4086 42.9131 98.3188 43.034C98.2291 43.1246 98.0496 43.1699 97.7804 43.1699H76.7818C76.7219 43.1699 76.692 43.0793 76.692 42.898C76.692 42.7168 76.7219 42.6261 76.7818 42.6261C77.7988 42.6261 78.5316 42.5506 78.9803 42.3996C79.4589 42.2485 79.773 41.9615 79.9226 41.5386C80.1021 41.0854 80.1918 40.4057 80.1918 39.4994V18.5186C80.1918 17.6123 80.1021 16.9476 79.9226 16.5247C79.773 16.1018 79.4589 15.8148 78.9803 15.6637C78.5017 15.4825 77.7689 15.3918 76.7818 15.3918C76.7219 15.3918 76.692 15.3012 76.692 15.1199C76.692 14.9387 76.7219 14.8481 76.7818 14.8481L79.0701 14.8934C80.3862 14.9538 81.4631 14.984 82.3006 14.984C83.198 14.984 84.3048 14.9538 85.6209 14.8934L87.8644 14.8481C87.9541 14.8481 87.999 14.9387 87.999 15.1199C87.999 15.3012 87.9541 15.3918 87.8644 15.3918C86.8773 15.3918 86.1444 15.4825 85.6658 15.6637C85.2171 15.8148 84.903 16.1169 84.7236 16.57C84.574 16.993 84.4992 17.6576 84.4992 18.5639V39.3181Z" fill="white"/>
<path d="M114.427 40.3151C114.487 40.3151 114.547 40.3755 114.607 40.4963C114.697 40.6172 114.712 40.7078 114.652 40.7682C113.575 41.7954 112.483 42.5506 111.376 43.034C110.27 43.4871 109.058 43.7137 107.742 43.7137C105.887 43.7137 104.287 43.321 102.941 42.5355C101.625 41.7198 100.608 40.6474 99.89 39.3181C99.202 37.9587 98.858 36.5086 98.858 34.9679C98.858 33.1855 99.2917 31.5542 100.159 30.0739C101.057 28.5936 102.268 27.4305 103.794 26.5846C105.349 25.7085 107.054 25.2705 108.909 25.2705C110.673 25.2705 112.034 25.6783 112.992 26.494C113.949 27.2795 114.427 28.367 114.427 29.7567C114.427 30.5724 114.263 30.9802 113.934 30.9802H111.466L103.031 31.0708C102.941 31.7052 102.896 32.385 102.896 33.11C102.896 35.7383 103.494 37.8379 104.691 39.4088C105.917 40.9495 107.607 41.7198 109.761 41.7198C110.539 41.7198 111.332 41.6141 112.139 41.4026C112.947 41.161 113.68 40.8135 114.338 40.3604L114.427 40.3151ZM107.293 26.1768C106.306 26.1768 105.454 26.5393 104.736 27.2644C104.018 27.9894 103.509 28.9863 103.21 30.2551L110.21 30.1192C110.15 28.8806 109.881 27.9139 109.402 27.219C108.924 26.5242 108.221 26.1768 107.293 26.1768Z" fill="white"/>
<path d="M118.782 28.0347C118.782 28.9712 119.096 29.7567 119.724 30.3911C120.382 31.0255 121.324 31.6901 122.551 32.385C123.627 32.9892 124.45 33.4876 125.018 33.8803C125.617 34.2731 126.125 34.8018 126.544 35.4664C126.993 36.131 127.217 36.9316 127.217 37.8681C127.217 38.8952 126.963 39.8468 126.454 40.7229C125.946 41.599 125.183 42.3089 124.166 42.8527C123.179 43.3965 121.997 43.6684 120.621 43.6684C118.976 43.6684 117.465 43.2455 116.089 42.3996C115.91 42.2183 115.82 42.0371 115.82 41.8558L115.73 37.6868C115.73 37.5962 115.805 37.5509 115.955 37.5509C116.134 37.5207 116.239 37.5358 116.269 37.5962C116.777 39.1067 117.54 40.3453 118.557 41.312C119.604 42.2787 120.711 42.7621 121.877 42.7621C122.625 42.7621 123.209 42.5657 123.627 42.173C124.046 41.7803 124.256 41.1912 124.256 40.4057C124.256 39.2577 123.926 38.3514 123.268 37.6868C122.61 36.992 121.653 36.3123 120.397 35.6476C119.38 35.1039 118.587 34.6507 118.019 34.2882C117.45 33.8955 116.957 33.3819 116.538 32.7475C116.149 32.0829 115.955 31.2672 115.955 30.3005C115.955 28.5785 116.568 27.2946 117.794 26.4487C119.051 25.6028 120.561 25.1799 122.326 25.1799C123.493 25.1799 124.689 25.4064 125.916 25.8596C126.185 25.9804 126.319 26.1466 126.319 26.3581C126.319 27.0529 126.305 27.5967 126.275 27.9894L126.23 30.1645C126.23 30.2552 126.14 30.3005 125.961 30.3005C125.781 30.3005 125.691 30.2552 125.691 30.1645C125.691 29.5603 125.452 28.941 124.973 28.3066C124.495 27.642 123.882 27.0982 123.134 26.6753C122.386 26.2523 121.623 26.0409 120.845 26.0409C119.47 26.0409 118.782 26.7055 118.782 28.0347Z" fill="white"/>
<path d="M153.703 14.3496C155.049 14.3496 156.44 14.4704 157.875 14.7121C159.341 14.9538 160.493 15.2861 161.33 15.709C161.599 15.7997 161.764 15.9205 161.824 16.0716C161.914 16.1924 161.973 16.419 162.003 16.7513L162.542 22.6422C162.542 22.7329 162.467 22.7933 162.317 22.8235C162.168 22.8537 162.078 22.8084 162.048 22.6876C161.181 20.3312 159.865 18.5337 158.1 17.2951C156.365 16.0565 154.316 15.4371 151.953 15.4371C148.842 15.4371 146.404 16.5398 144.639 18.7451C142.874 20.9505 141.992 23.9111 141.992 27.6269C141.992 30.4062 142.47 32.9589 143.428 35.2851C144.415 37.6113 145.761 39.4541 147.466 40.8135C149.201 42.173 151.13 42.8527 153.254 42.8527C157.292 42.8527 160.358 40.3151 162.452 35.2398C162.482 35.119 162.572 35.0736 162.721 35.1039C162.901 35.1341 162.99 35.1945 162.99 35.2851L162.317 41.0854C162.258 41.448 162.183 41.6896 162.093 41.8105C162.033 41.9011 161.869 42.0068 161.599 42.1277C158.997 43.185 156.23 43.7137 153.299 43.7137C149.649 43.7137 146.613 42.9887 144.19 41.5386C141.767 40.0583 139.973 38.1853 138.806 35.9195C137.669 33.6538 137.101 31.2974 137.101 28.8504C137.101 26.0106 137.864 23.4881 139.389 21.2828C140.945 19.0775 142.994 17.3706 145.536 16.1622C148.079 14.9538 150.801 14.3496 153.703 14.3496Z" fill="white"/>
<path d="M184.884 40.3151C184.974 40.3151 185.048 40.3906 185.108 40.5417C185.168 40.6927 185.153 40.7984 185.063 40.8589L179.186 43.7137L179.006 43.759C178.707 43.759 178.438 43.4267 178.198 42.7621C177.959 42.0673 177.825 41.1459 177.795 39.9979C175.701 42.4449 173.487 43.6684 171.154 43.6684C169.539 43.6684 168.282 43.1699 167.385 42.173C166.488 41.1459 166.039 39.7562 166.039 38.004V31.2521C166.039 29.1978 165.575 28.1707 164.648 28.1707C164.349 28.1707 163.93 28.2915 163.392 28.5332H163.347C163.227 28.5332 163.137 28.4577 163.078 28.3066C163.018 28.1556 163.033 28.0498 163.123 27.9894L168.821 25.3158L169 25.2705C169.12 25.2705 169.255 25.3309 169.404 25.4518C169.554 25.5726 169.629 25.6783 169.629 25.769V36.0555C169.629 39.4088 170.885 41.0854 173.398 41.0854C174.145 41.0854 174.908 40.9042 175.686 40.5417C176.464 40.1791 177.167 39.6807 177.795 39.0463V31.2521C177.795 30.1947 177.675 29.4244 177.436 28.941C177.226 28.4274 176.882 28.1707 176.404 28.1707C176.135 28.1707 175.716 28.2915 175.147 28.5332H175.103C174.983 28.5332 174.893 28.4577 174.833 28.3066C174.774 28.1253 174.803 28.0196 174.923 27.9894L180.577 25.3158C180.636 25.2856 180.711 25.2705 180.801 25.2705C180.921 25.2705 181.055 25.3309 181.205 25.4518C181.354 25.5726 181.429 25.6783 181.429 25.769V38.0493C181.429 39.1067 181.534 39.8468 181.743 40.2698C181.953 40.6927 182.297 40.9042 182.775 40.9042C183.134 40.9042 183.807 40.7229 184.794 40.3604L184.884 40.3151Z" fill="white"/>
<path d="M184.883 43.1699C184.793 43.1699 184.748 43.0793 184.748 42.898C184.748 42.7168 184.793 42.6261 184.883 42.6261C185.9 42.6261 186.573 42.4147 186.902 41.9917C187.231 41.5688 187.396 40.738 187.396 39.4994V31.2521C187.396 30.2249 187.291 29.4848 187.081 29.0316C186.872 28.5483 186.513 28.3066 186.005 28.3066C185.556 28.3066 184.973 28.4879 184.255 28.8504H184.21C184.09 28.8504 184 28.7749 183.941 28.6238C183.881 28.4728 183.896 28.367 183.986 28.3066L190.447 25.2705L190.581 25.2252C190.701 25.2252 190.821 25.3007 190.94 25.4518C191.09 25.5726 191.165 25.6783 191.165 25.769V26.7206C191.105 27.9894 191.075 29.4848 191.075 31.2068V39.4994C191.075 40.738 191.239 41.5688 191.568 41.9917C191.927 42.4147 192.615 42.6261 193.632 42.6261C193.722 42.6261 193.767 42.7168 193.767 42.898C193.767 43.0793 193.722 43.1699 193.632 43.1699C192.885 43.1699 192.286 43.1548 191.838 43.1246L189.235 43.0793L186.633 43.1246C186.214 43.1548 185.631 43.1699 184.883 43.1699ZM189.011 20.4671C188.233 20.4671 187.62 20.2556 187.171 19.8327C186.752 19.4098 186.543 18.8056 186.543 18.0201C186.543 17.2648 186.752 16.6909 187.171 16.2981C187.62 15.8752 188.233 15.6637 189.011 15.6637C189.759 15.6637 190.342 15.8752 190.761 16.2981C191.18 16.6909 191.389 17.2648 191.389 18.0201C191.389 18.8056 191.18 19.4098 190.761 19.8327C190.372 20.2556 189.789 20.4671 189.011 20.4671Z" fill="white"/>
<path d="M197.609 28.0347C197.609 28.9712 197.923 29.7567 198.551 30.3911C199.209 31.0255 200.151 31.6901 201.378 32.385C202.455 32.9892 203.277 33.4876 203.846 33.8803C204.444 34.2731 204.952 34.8018 205.371 35.4664C205.82 36.131 206.044 36.9316 206.044 37.8681C206.044 38.8952 205.79 39.8468 205.281 40.7229C204.773 41.599 204.01 42.3089 202.993 42.8527C202.006 43.3965 200.824 43.6684 199.448 43.6684C197.803 43.6684 196.293 43.2455 194.917 42.3996C194.737 42.2183 194.648 42.0371 194.648 41.8558L194.558 37.6868C194.558 37.5962 194.633 37.5509 194.782 37.5509C194.962 37.5207 195.066 37.5358 195.096 37.5962C195.605 39.1067 196.367 40.3453 197.385 41.312C198.431 42.2787 199.538 42.7621 200.705 42.7621C201.453 42.7621 202.036 42.5657 202.455 42.173C202.873 41.7803 203.083 41.1912 203.083 40.4057C203.083 39.2577 202.754 38.3514 202.096 37.6868C201.438 36.992 200.48 36.3123 199.224 35.6476C198.207 35.1039 197.414 34.6507 196.846 34.2882C196.278 33.8955 195.784 33.3819 195.365 32.7475C194.977 32.0829 194.782 31.2672 194.782 30.3005C194.782 28.5785 195.395 27.2946 196.622 26.4487C197.878 25.6028 199.389 25.1799 201.153 25.1799C202.32 25.1799 203.517 25.4064 204.743 25.8596C205.012 25.9804 205.147 26.1466 205.147 26.3581C205.147 27.0529 205.132 27.5967 205.102 27.9894L205.057 30.1645C205.057 30.2552 204.967 30.3005 204.788 30.3005C204.608 30.3005 204.519 30.2552 204.519 30.1645C204.519 29.5603 204.279 28.941 203.801 28.3066C203.322 27.642 202.709 27.0982 201.961 26.6753C201.213 26.2523 200.451 26.0409 199.673 26.0409C198.297 26.0409 197.609 26.7055 197.609 28.0347Z" fill="white"/>
<path d="M207.431 43.1699C207.342 43.1699 207.297 43.0793 207.297 42.898C207.297 42.7168 207.342 42.6261 207.431 42.6261C208.448 42.6261 209.121 42.4147 209.45 41.9917C209.779 41.5688 209.944 40.738 209.944 39.4994V31.2521C209.944 30.2249 209.839 29.4848 209.63 29.0316C209.42 28.5483 209.062 28.3066 208.553 28.3066C208.104 28.3066 207.521 28.4879 206.803 28.8504H206.758C206.639 28.8504 206.549 28.7749 206.489 28.6238C206.429 28.4728 206.444 28.367 206.534 28.3066L212.995 25.2705L213.13 25.2252C213.249 25.2252 213.369 25.3007 213.489 25.4518C213.638 25.5726 213.713 25.6783 213.713 25.769V26.7206C213.653 27.9894 213.623 29.4848 213.623 31.2068V39.4994C213.623 40.738 213.788 41.5688 214.117 41.9917C214.476 42.4147 215.164 42.6261 216.181 42.6261C216.27 42.6261 216.315 42.7168 216.315 42.898C216.315 43.0793 216.27 43.1699 216.181 43.1699C215.433 43.1699 214.835 43.1548 214.386 43.1246L211.784 43.0793L209.181 43.1246C208.762 43.1548 208.179 43.1699 207.431 43.1699ZM211.559 20.4671C210.782 20.4671 210.168 20.2556 209.72 19.8327C209.301 19.4098 209.091 18.8056 209.091 18.0201C209.091 17.2648 209.301 16.6909 209.72 16.2981C210.168 15.8752 210.782 15.6637 211.559 15.6637C212.307 15.6637 212.89 15.8752 213.309 16.2981C213.728 16.6909 213.937 17.2648 213.937 18.0201C213.937 18.8056 213.728 19.4098 213.309 19.8327C212.92 20.2556 212.337 20.4671 211.559 20.4671Z" fill="white"/>
<path d="M237.746 42.6261C237.836 42.6261 237.88 42.7168 237.88 42.898C237.88 43.0793 237.836 43.1699 237.746 43.1699C236.998 43.1699 236.415 43.1548 235.996 43.1246L233.394 43.0793L230.836 43.1246C230.387 43.1548 229.789 43.1699 229.041 43.1699C228.952 43.1699 228.907 43.0793 228.907 42.898C228.907 42.7168 228.952 42.6261 229.041 42.6261C230.058 42.6261 230.731 42.4147 231.06 41.9917C231.389 41.5688 231.554 40.738 231.554 39.4994V32.7022C231.554 31.0104 231.24 29.7718 230.612 28.9863C230.013 28.1707 229.056 27.7628 227.74 27.7628C226.962 27.7628 226.17 27.9441 225.362 28.3066C224.554 28.6691 223.822 29.1525 223.163 29.7567V39.4994C223.163 40.738 223.328 41.5688 223.657 41.9917C223.986 42.4147 224.659 42.6261 225.676 42.6261C225.766 42.6261 225.811 42.7168 225.811 42.898C225.811 43.0793 225.766 43.1699 225.676 43.1699C224.928 43.1699 224.345 43.1548 223.926 43.1246L221.324 43.0793L218.721 43.1246C218.303 43.1548 217.719 43.1699 216.972 43.1699C216.882 43.1699 216.837 43.0793 216.837 42.898C216.837 42.7168 216.882 42.6261 216.972 42.6261C217.989 42.6261 218.662 42.4147 218.991 41.9917C219.32 41.5688 219.484 40.738 219.484 39.4994V30.8442C219.484 29.8775 219.365 29.1676 219.125 28.7144C218.916 28.2613 218.557 28.0347 218.048 28.0347C217.6 28.0347 216.852 28.2613 215.805 28.7144H215.76C215.64 28.7144 215.551 28.6389 215.491 28.4879C215.431 28.3368 215.446 28.2462 215.536 28.216L221.414 25.3158C221.593 25.2554 221.698 25.2252 221.728 25.2252C222.027 25.2252 222.326 25.5726 222.625 26.2674C222.954 26.932 223.134 27.8081 223.163 28.8957C225.257 26.3883 227.531 25.1346 229.984 25.1346C231.629 25.1346 232.915 25.6481 233.842 26.6753C234.77 27.6722 235.233 29.0316 235.233 30.7536V39.4994C235.233 40.738 235.398 41.5688 235.727 41.9917C236.056 42.4147 236.729 42.6261 237.746 42.6261Z" fill="white"/>
<path d="M253.425 40.3151C253.485 40.3151 253.544 40.3755 253.604 40.4963C253.694 40.6172 253.709 40.7078 253.649 40.7682C252.572 41.7954 251.48 42.5506 250.374 43.034C249.267 43.4871 248.055 43.7137 246.739 43.7137C244.885 43.7137 243.284 43.321 241.938 42.5355C240.622 41.7198 239.605 40.6474 238.887 39.3181C238.199 37.9587 237.855 36.5086 237.855 34.9679C237.855 33.1855 238.289 31.5542 239.156 30.0739C240.054 28.5936 241.265 27.4305 242.791 26.5846C244.346 25.7085 246.051 25.2705 247.906 25.2705C249.671 25.2705 251.032 25.6783 251.989 26.494C252.946 27.2795 253.425 28.367 253.425 29.7567C253.425 30.5724 253.26 30.9802 252.931 30.9802H250.463L242.028 31.0708C241.938 31.7052 241.893 32.385 241.893 33.11C241.893 35.7383 242.492 37.8379 243.688 39.4088C244.915 40.9495 246.605 41.7198 248.758 41.7198C249.536 41.7198 250.329 41.6141 251.136 41.4026C251.944 41.161 252.677 40.8135 253.335 40.3604L253.425 40.3151ZM246.291 26.1768C245.303 26.1768 244.451 26.5393 243.733 27.2644C243.015 27.9894 242.507 28.9863 242.208 30.2551L249.207 30.1192C249.147 28.8806 248.878 27.9139 248.399 27.219C247.921 26.5242 247.218 26.1768 246.291 26.1768Z" fill="white"/>
<path d="M257.779 28.0347C257.779 28.9712 258.093 29.7567 258.721 30.3911C259.379 31.0255 260.321 31.6901 261.548 32.385C262.625 32.9892 263.447 33.4876 264.016 33.8803C264.614 34.2731 265.122 34.8018 265.541 35.4664C265.99 36.131 266.214 36.9316 266.214 37.8681C266.214 38.8952 265.96 39.8468 265.451 40.7229C264.943 41.599 264.18 42.3089 263.163 42.8527C262.176 43.3965 260.994 43.6684 259.618 43.6684C257.973 43.6684 256.463 43.2455 255.087 42.3996C254.907 42.2183 254.817 42.0371 254.817 41.8558L254.728 37.6868C254.728 37.5962 254.802 37.5509 254.952 37.5509C255.132 37.5207 255.236 37.5358 255.266 37.5962C255.775 39.1067 256.537 40.3453 257.554 41.312C258.601 42.2787 259.708 42.7621 260.875 42.7621C261.623 42.7621 262.206 42.5657 262.625 42.173C263.043 41.7803 263.253 41.1912 263.253 40.4057C263.253 39.2577 262.924 38.3514 262.266 37.6868C261.608 36.992 260.65 36.3123 259.394 35.6476C258.377 35.1039 257.584 34.6507 257.016 34.2882C256.448 33.8955 255.954 33.3819 255.535 32.7475C255.146 32.0829 254.952 31.2672 254.952 30.3005C254.952 28.5785 255.565 27.2946 256.792 26.4487C258.048 25.6028 259.559 25.1799 261.323 25.1799C262.49 25.1799 263.687 25.4064 264.913 25.8596C265.182 25.9804 265.317 26.1466 265.317 26.3581C265.317 27.0529 265.302 27.5967 265.272 27.9894L265.227 30.1645C265.227 30.2552 265.137 30.3005 264.958 30.3005C264.778 30.3005 264.689 30.2552 264.689 30.1645C264.689 29.5603 264.449 28.941 263.971 28.3066C263.492 27.642 262.879 27.0982 262.131 26.6753C261.383 26.2523 260.62 26.0409 259.843 26.0409C258.467 26.0409 257.779 26.7055 257.779 28.0347Z" fill="white"/>
<path d="M296.514 40.3604C296.603 40.3604 296.678 40.4359 296.738 40.587C296.828 40.738 296.828 40.8287 296.738 40.8589L290.995 43.6684L290.726 43.7137C290.426 43.7137 290.142 43.4116 289.873 42.8074C289.634 42.2032 289.499 41.3875 289.469 40.3604C288.392 41.3875 287.286 42.2183 286.149 42.8527C285.012 43.4569 283.771 43.759 282.425 43.759C281.139 43.759 279.957 43.4116 278.88 42.7168C277.803 41.9917 276.951 40.9646 276.323 39.6354C275.694 38.3061 275.38 36.7503 275.38 34.9679C275.38 32.7324 275.904 30.8745 276.951 29.3942C277.998 27.9139 279.314 26.8263 280.899 26.1315C282.485 25.4367 284.07 25.0892 285.655 25.0892C286.971 25.0892 288.228 25.3309 289.424 25.8143V16.3435C289.424 15.2861 289.32 14.5308 289.11 14.0777C288.931 13.5943 288.587 13.3527 288.078 13.3527C287.749 13.3527 287.151 13.5339 286.284 13.8964H286.194C286.074 13.8964 285.984 13.8209 285.925 13.6699C285.865 13.5188 285.865 13.4282 285.925 13.398L292.251 10.3619L292.431 10.3166C292.55 10.3166 292.685 10.377 292.834 10.4978C292.984 10.6187 293.059 10.7244 293.059 10.815V38.004C293.059 39.0614 293.163 39.8166 293.373 40.2698C293.582 40.6927 293.941 40.9042 294.45 40.9042C295.048 40.9042 295.721 40.7229 296.469 40.3604H296.514ZM284.668 41.7652C285.536 41.7652 286.343 41.5688 287.091 41.1761C287.869 40.7833 288.647 40.2245 289.424 39.4994V28.6691C288.826 27.8232 288.153 27.2039 287.405 26.8112C286.687 26.3883 285.82 26.1768 284.803 26.1768C283.098 26.1768 281.782 26.781 280.854 27.9894C279.927 29.1676 279.463 31.0255 279.463 33.5632C279.463 36.1008 279.942 38.1097 280.899 39.59C281.886 41.0401 283.143 41.7652 284.668 41.7652Z" fill="white"/>
<path d="M311.623 40.3151C311.683 40.3151 311.743 40.3755 311.802 40.4963C311.892 40.6172 311.907 40.7078 311.847 40.7682C310.77 41.7954 309.679 42.5506 308.572 43.034C307.465 43.4871 306.254 43.7137 304.937 43.7137C303.083 43.7137 301.482 43.321 300.136 42.5355C298.82 41.7198 297.803 40.6474 297.085 39.3181C296.397 37.9587 296.053 36.5086 296.053 34.9679C296.053 33.1855 296.487 31.5542 297.355 30.0739C298.252 28.5936 299.463 27.4305 300.989 26.5846C302.544 25.7085 304.249 25.2705 306.104 25.2705C307.869 25.2705 309.23 25.6783 310.187 26.494C311.144 27.2795 311.623 28.367 311.623 29.7567C311.623 30.5724 311.458 30.9802 311.129 30.9802H308.662L300.226 31.0708C300.136 31.7052 300.092 32.385 300.092 33.11C300.092 35.7383 300.69 37.8379 301.886 39.4088C303.113 40.9495 304.803 41.7198 306.957 41.7198C307.734 41.7198 308.527 41.6141 309.335 41.4026C310.142 41.161 310.875 40.8135 311.533 40.3604L311.623 40.3151ZM304.489 26.1768C303.502 26.1768 302.649 26.5393 301.931 27.2644C301.213 27.9894 300.705 28.9863 300.406 30.2551L307.405 30.1192C307.345 28.8806 307.076 27.9139 306.598 27.219C306.119 26.5242 305.416 26.1768 304.489 26.1768Z" fill="white"/>
<path d="M320.884 43.1699C320.795 43.1699 320.75 43.0793 320.75 42.898C320.75 42.7168 320.795 42.6261 320.884 42.6261C321.872 42.6261 322.545 42.4147 322.904 41.9917C323.263 41.5386 323.442 40.7078 323.442 39.4994V16.3435C323.442 15.2861 323.337 14.5308 323.128 14.0777C322.948 13.5943 322.604 13.3527 322.096 13.3527C321.647 13.3527 321.049 13.5339 320.301 13.8964H320.256C320.137 13.8964 320.047 13.8209 319.987 13.6699C319.927 13.5188 319.927 13.4131 319.987 13.3527L326.314 10.3619L326.493 10.3166C326.613 10.3166 326.747 10.377 326.897 10.4978C327.076 10.6187 327.166 10.7244 327.166 10.815V39.4994C327.166 40.738 327.331 41.5688 327.66 41.9917C327.989 42.4147 328.662 42.6261 329.679 42.6261C329.769 42.6261 329.813 42.7168 329.813 42.898C329.813 43.0793 329.769 43.1699 329.679 43.1699C328.961 43.1699 328.378 43.1548 327.929 43.1246L325.282 43.0793L322.679 43.1246C322.231 43.1548 321.632 43.1699 320.884 43.1699Z" fill="white"/>
<path d="M332.221 14.7574C333.208 14.7574 333.985 15.1502 334.554 15.9356C335.122 16.6909 335.406 17.7784 335.406 19.1983C335.406 20.5275 335.107 21.751 334.509 22.8688C333.941 23.9866 333.088 25.1043 331.951 26.2221C331.921 26.2523 331.877 26.2674 331.817 26.2674C331.727 26.2674 331.652 26.2221 331.592 26.1315C331.533 26.0409 331.533 25.9653 331.592 25.9049C333.058 24.3944 333.791 22.612 333.791 20.5577C333.791 19.7119 333.641 19.0926 333.342 18.6998C333.073 19.153 332.55 19.3795 331.772 19.3795C331.114 19.3795 330.59 19.1832 330.201 18.7905C329.813 18.3675 329.618 17.8086 329.618 17.1138C329.618 16.3585 329.842 15.7846 330.291 15.3918C330.77 14.9689 331.413 14.7574 332.221 14.7574Z" fill="white"/>
<path d="M362.939 42.6261C363.089 42.6261 363.164 42.7168 363.164 42.898C363.164 43.0793 363.089 43.1699 362.939 43.1699C362.371 43.1699 361.459 43.1397 360.202 43.0793C358.946 43.0189 358.034 42.9887 357.465 42.9887C356.717 42.9887 355.835 43.0189 354.818 43.0793C353.801 43.1397 353.008 43.1699 352.44 43.1699C352.32 43.1699 352.26 43.0793 352.26 42.898C352.26 42.7168 352.32 42.6261 352.44 42.6261C353.307 42.6261 353.936 42.5355 354.324 42.3543C354.743 42.1428 354.953 41.8105 354.953 41.3573C354.953 40.9042 354.698 40.1338 354.19 39.0463L349.344 29.1223H341.223L337.768 36.9618C337.379 37.8681 337.184 38.6837 337.184 39.4088C337.184 40.4661 337.558 41.2667 338.306 41.8105C339.054 42.3543 340.101 42.6261 341.447 42.6261C341.597 42.6261 341.671 42.7168 341.671 42.898C341.671 43.0793 341.597 43.1699 341.447 43.1699C340.909 43.1699 340.131 43.1397 339.114 43.0793C337.977 43.0189 336.99 42.9887 336.153 42.9887C335.345 42.9887 334.403 43.0189 333.326 43.0793C332.369 43.1397 331.576 43.1699 330.948 43.1699C330.798 43.1699 330.723 43.0793 330.723 42.898C330.723 42.7168 330.798 42.6261 330.948 42.6261C331.785 42.6261 332.488 42.46 333.057 42.1277C333.625 41.7954 334.178 41.2063 334.717 40.3604C335.255 39.4843 335.898 38.2004 336.646 36.5086L346.293 14.5762C346.353 14.4855 346.487 14.4402 346.697 14.4402C346.906 14.4402 347.026 14.4855 347.056 14.5762L358.049 36.9618C359.095 39.1369 359.963 40.6323 360.651 41.448C361.369 42.2334 362.132 42.6261 362.939 42.6261ZM341.716 27.9894H348.806L345.081 20.3765L341.716 27.9894Z" fill="white"/>
<path d="M373.75 25.2252C374.438 25.2252 375.096 25.4518 375.724 25.9049C376.352 26.3581 376.666 26.9018 376.666 27.5363C376.666 28.1102 376.487 28.5785 376.128 28.941C375.799 29.3035 375.335 29.4848 374.737 29.4848C374.348 29.4848 374.019 29.4093 373.75 29.2582C373.511 29.077 373.256 28.8353 372.987 28.5332C372.718 28.2613 372.479 28.0649 372.269 27.9441C372.06 27.793 371.806 27.7175 371.506 27.7175C371.177 27.7175 370.818 27.8535 370.43 28.1253C370.071 28.367 369.502 28.8957 368.725 29.7114V39.4994C368.725 40.3453 368.844 40.9948 369.084 41.448C369.323 41.8709 369.727 42.173 370.295 42.3543C370.863 42.5355 371.701 42.6261 372.808 42.6261C372.927 42.6261 372.987 42.7168 372.987 42.898C372.987 43.0793 372.927 43.1699 372.808 43.1699C371.82 43.1699 371.028 43.1548 370.43 43.1246L366.885 43.0793L364.283 43.1246C363.864 43.1548 363.28 43.1699 362.533 43.1699C362.443 43.1699 362.398 43.0793 362.398 42.898C362.398 42.7168 362.443 42.6261 362.533 42.6261C363.55 42.6261 364.223 42.4147 364.552 41.9917C364.881 41.5688 365.045 40.738 365.045 39.4994V30.8442C365.045 29.8775 364.926 29.1676 364.686 28.7144C364.477 28.2613 364.118 28.0347 363.609 28.0347C363.161 28.0347 362.413 28.2613 361.366 28.7144H361.321C361.202 28.7144 361.112 28.6389 361.052 28.4879C360.992 28.3368 361.007 28.2462 361.097 28.216L366.975 25.3158C367.154 25.2554 367.259 25.2252 367.289 25.2252C367.588 25.2252 367.887 25.5575 368.186 26.2221C368.485 26.8565 368.665 27.7024 368.725 28.7598C369.891 27.4305 370.863 26.5091 371.641 25.9955C372.419 25.482 373.122 25.2252 373.75 25.2252Z" fill="white"/>
<path d="M389.59 40.2698C389.679 40.2698 389.754 40.3302 389.814 40.451C389.904 40.5719 389.904 40.6625 389.814 40.7229C388.707 41.7803 387.66 42.5506 386.673 43.034C385.686 43.4871 384.639 43.7137 383.532 43.7137C382.246 43.7137 381.154 43.4116 380.257 42.8074C379.389 42.173 378.956 41.1308 378.956 39.6807V29.4395C378.956 28.4425 378.791 27.7779 378.462 27.4456C378.163 27.1133 377.565 26.9472 376.667 26.9472C376.638 26.9472 376.593 26.9169 376.533 26.8565C376.503 26.7659 376.488 26.6753 376.488 26.5846C376.488 26.494 376.503 26.4185 376.533 26.3581C376.593 26.2674 376.638 26.2221 376.667 26.2221C379.479 26.1013 381.244 24.8778 381.962 22.5516C382.022 22.4308 382.141 22.3703 382.321 22.3703C382.53 22.3703 382.635 22.4308 382.635 22.5516V26.1315C384.041 26.1013 386.03 25.9502 388.603 25.6783C388.662 25.6783 388.722 25.7992 388.782 26.0409C388.872 26.2523 388.917 26.494 388.917 26.7659C388.917 27.0378 388.857 27.3097 388.737 27.5816C388.647 27.8535 388.543 27.9743 388.423 27.9441C386.748 27.5513 384.819 27.3097 382.635 27.219V38.1853C382.635 39.3635 382.919 40.2395 383.487 40.8135C384.086 41.3573 384.908 41.6292 385.955 41.6292C387.212 41.6292 388.393 41.1912 389.5 40.3151L389.59 40.2698Z" fill="white"/>
<path d="M390.079 43.1699C389.99 43.1699 389.945 43.0793 389.945 42.898C389.945 42.7168 389.99 42.6261 390.079 42.6261C391.096 42.6261 391.769 42.4147 392.098 41.9917C392.428 41.5688 392.592 40.738 392.592 39.4994V31.2521C392.592 30.2249 392.487 29.4848 392.278 29.0316C392.069 28.5483 391.71 28.3066 391.201 28.3066C390.752 28.3066 390.169 28.4879 389.451 28.8504H389.406C389.287 28.8504 389.197 28.7749 389.137 28.6238C389.077 28.4728 389.092 28.367 389.182 28.3066L395.643 25.2705L395.778 25.2252C395.897 25.2252 396.017 25.3007 396.137 25.4518C396.286 25.5726 396.361 25.6783 396.361 25.769V26.7206C396.301 27.9894 396.271 29.4848 396.271 31.2068V39.4994C396.271 40.738 396.436 41.5688 396.765 41.9917C397.124 42.4147 397.812 42.6261 398.829 42.6261C398.919 42.6261 398.963 42.7168 398.963 42.898C398.963 43.0793 398.919 43.1699 398.829 43.1699C398.081 43.1699 397.483 43.1548 397.034 43.1246L394.432 43.0793L391.829 43.1246C391.41 43.1548 390.827 43.1699 390.079 43.1699ZM394.207 20.4671C393.43 20.4671 392.816 20.2556 392.368 19.8327C391.949 19.4098 391.74 18.8056 391.74 18.0201C391.74 17.2648 391.949 16.6909 392.368 16.2981C392.816 15.8752 393.43 15.6637 394.207 15.6637C394.955 15.6637 395.538 15.8752 395.957 16.2981C396.376 16.6909 396.585 17.2648 396.585 18.0201C396.585 18.8056 396.376 19.4098 395.957 19.8327C395.568 20.2556 394.985 20.4671 394.207 20.4671Z" fill="white"/>
<path d="M402.805 28.0347C402.805 28.9712 403.119 29.7567 403.748 30.3911C404.406 31.0255 405.348 31.6901 406.574 32.385C407.651 32.9892 408.474 33.4876 409.042 33.8803C409.64 34.2731 410.149 34.8018 410.568 35.4664C411.016 36.131 411.241 36.9316 411.241 37.8681C411.241 38.8952 410.986 39.8468 410.478 40.7229C409.969 41.599 409.207 42.3089 408.19 42.8527C407.202 43.3965 406.021 43.6684 404.645 43.6684C403 43.6684 401.489 43.2455 400.113 42.3996C399.934 42.2183 399.844 42.0371 399.844 41.8558L399.754 37.6868C399.754 37.5962 399.829 37.5509 399.979 37.5509C400.158 37.5207 400.263 37.5358 400.293 37.5962C400.801 39.1067 401.564 40.3453 402.581 41.312C403.628 42.2787 404.735 42.7621 405.901 42.7621C406.649 42.7621 407.232 42.5657 407.651 42.173C408.07 41.7803 408.279 41.1912 408.279 40.4057C408.279 39.2577 407.95 38.3514 407.292 37.6868C406.634 36.992 405.677 36.3123 404.421 35.6476C403.404 35.1039 402.611 34.6507 402.043 34.2882C401.474 33.8955 400.981 33.3819 400.562 32.7475C400.173 32.0829 399.979 31.2672 399.979 30.3005C399.979 28.5785 400.592 27.2946 401.818 26.4487C403.075 25.6028 404.585 25.1799 406.35 25.1799C407.517 25.1799 408.713 25.4064 409.939 25.8596C410.209 25.9804 410.343 26.1466 410.343 26.3581C410.343 27.0529 410.328 27.5967 410.298 27.9894L410.254 30.1645C410.254 30.2552 410.164 30.3005 409.984 30.3005C409.805 30.3005 409.715 30.2552 409.715 30.1645C409.715 29.5603 409.476 28.941 408.997 28.3066C408.519 27.642 407.905 27.0982 407.158 26.6753C406.41 26.2523 405.647 26.0409 404.869 26.0409C403.493 26.0409 402.805 26.7055 402.805 28.0347Z" fill="white"/>
<path d="M429.409 40.7229C429.528 40.7229 429.603 40.7984 429.633 40.9495C429.663 41.0703 429.618 41.161 429.498 41.2214L424.877 43.4418C424.757 43.5022 424.623 43.5324 424.473 43.5324C424.054 43.5324 423.651 43.2908 423.262 42.8074C422.873 42.324 422.604 41.6745 422.454 40.8589L420.121 42.1277C418.386 43.034 416.905 43.4871 415.679 43.4871C414.722 43.4871 413.974 43.2454 413.435 42.7621C412.927 42.2485 412.673 41.5537 412.673 40.6776C412.673 39.7411 413.002 39.0463 413.66 38.5931C414.318 38.1098 415.574 37.5509 417.429 36.9165L422.319 35.2398V31.6146C422.319 29.7718 422.11 28.4275 421.691 27.5816C421.272 26.7055 420.644 26.2674 419.807 26.2674C418.191 26.2674 417.264 27.4607 417.025 29.8473C416.875 31.3578 416.113 32.1131 414.737 32.1131C413.45 32.1131 412.807 31.5542 412.807 30.4364C412.807 29.6509 413.286 28.8655 414.243 28.08C415.23 27.2644 416.412 26.5997 417.788 26.0862C419.164 25.5424 420.39 25.2705 421.467 25.2705C422.813 25.2705 423.89 25.6934 424.697 26.5393C425.535 27.355 425.954 28.5936 425.954 30.2551V38.2759C425.954 39.2124 426.103 39.9224 426.402 40.4057C426.702 40.8891 427.135 41.1307 427.704 41.1307C428.152 41.1307 428.691 40.9948 429.319 40.7229H429.409ZM422.364 40.1338C422.334 40.013 422.319 39.7864 422.319 39.4541V35.9648L419.134 37.143C418.356 37.4451 417.803 37.7774 417.474 38.14C417.145 38.4723 416.98 38.8952 416.98 39.4088C416.98 40.0432 417.159 40.5417 417.518 40.9042C417.877 41.2667 418.341 41.448 418.909 41.448C419.538 41.448 420.24 41.2516 421.018 40.8589L422.364 40.1338Z" fill="white"/>
<path d="M449.865 42.6261C449.955 42.6261 450 42.7168 450 42.898C450 43.0793 449.955 43.1699 449.865 43.1699C449.118 43.1699 448.534 43.1548 448.116 43.1246L445.513 43.0793L442.956 43.1246C442.507 43.1548 441.909 43.1699 441.161 43.1699C441.071 43.1699 441.026 43.0793 441.026 42.898C441.026 42.7168 441.071 42.6261 441.161 42.6261C442.178 42.6261 442.851 42.4147 443.18 41.9917C443.509 41.5688 443.674 40.738 443.674 39.4994V32.7022C443.674 31.0104 443.359 29.7718 442.731 28.9863C442.133 28.1707 441.176 27.7628 439.86 27.7628C439.082 27.7628 438.289 27.9441 437.482 28.3066C436.674 28.6691 435.941 29.1525 435.283 29.7567V39.4994C435.283 40.738 435.448 41.5688 435.777 41.9917C436.106 42.4147 436.779 42.6261 437.796 42.6261C437.885 42.6261 437.93 42.7168 437.93 42.898C437.93 43.0793 437.885 43.1699 437.796 43.1699C437.048 43.1699 436.465 43.1548 436.046 43.1246L433.443 43.0793L430.841 43.1246C430.422 43.1548 429.839 43.1699 429.091 43.1699C429.001 43.1699 428.957 43.0793 428.957 42.898C428.957 42.7168 429.001 42.6261 429.091 42.6261C430.108 42.6261 430.781 42.4147 431.11 41.9917C431.439 41.5688 431.604 40.738 431.604 39.4994V30.8442C431.604 29.8775 431.484 29.1676 431.245 28.7144C431.035 28.2613 430.676 28.0347 430.168 28.0347C429.719 28.0347 428.971 28.2613 427.925 28.7144H427.88C427.76 28.7144 427.67 28.6389 427.61 28.4879C427.551 28.3368 427.566 28.2462 427.655 28.216L433.533 25.3158C433.713 25.2554 433.817 25.2252 433.847 25.2252C434.146 25.2252 434.445 25.5726 434.745 26.2674C435.074 26.932 435.253 27.8081 435.283 28.8957C437.377 26.3883 439.65 25.1346 442.103 25.1346C443.748 25.1346 445.035 25.6481 445.962 26.6753C446.889 27.6722 447.353 29.0316 447.353 30.7536V39.4994C447.353 40.738 447.517 41.5688 447.846 41.9917C448.175 42.4147 448.848 42.6261 449.865 42.6261Z" fill="white"/>
<path d="M79.3164 59.4149C79.221 59.4149 79.1403 59.3853 79.0743 59.326C79.0156 59.2593 78.9863 59.1778 78.9863 59.0815V51.0676C78.9863 50.9712 79.0156 50.8934 79.0743 50.8341C79.1403 50.7674 79.221 50.7341 79.3164 50.7341H84.6101C84.6982 50.7341 84.7752 50.7674 84.8412 50.8341C84.9073 50.8934 84.9403 50.9712 84.9403 51.0676C84.9403 51.1565 84.9073 51.2343 84.8412 51.301C84.7752 51.3677 84.6982 51.401 84.6101 51.401H79.6466V54.7355H83.2894C83.3848 54.7355 83.4619 54.7689 83.5206 54.8355C83.5866 54.8948 83.6196 54.9726 83.6196 55.069C83.6196 55.1653 83.5866 55.2468 83.5206 55.3135C83.4619 55.3802 83.3848 55.4135 83.2894 55.4135H79.6466V58.748H84.6101C84.6982 58.748 84.7752 58.7814 84.8412 58.8481C84.9073 58.9148 84.9403 58.9926 84.9403 59.0815C84.9403 59.1778 84.9073 59.2593 84.8412 59.326C84.7752 59.3853 84.6982 59.4149 84.6101 59.4149H79.3164Z" fill="white"/>
<path d="M87.4115 59.4149C87.3162 59.4149 87.2355 59.3853 87.1694 59.326C87.1107 59.2593 87.0814 59.1778 87.0814 59.0815V51.0676C87.0814 50.9712 87.1107 50.8934 87.1694 50.8341C87.2355 50.7674 87.3162 50.7341 87.4115 50.7341C87.5143 50.7341 87.5986 50.7712 87.6647 50.8453L93.2555 58.1923V51.0676C93.2555 50.9712 93.2849 50.8934 93.3436 50.8341C93.4096 50.7674 93.4903 50.7341 93.5857 50.7341C93.6737 50.7341 93.7508 50.7674 93.8168 50.8341C93.8828 50.8934 93.9159 50.9712 93.9159 51.0676V59.0815C93.9159 59.1778 93.8828 59.2593 93.8168 59.326C93.7508 59.3853 93.6737 59.4149 93.5857 59.4149C93.5343 59.4149 93.4866 59.4075 93.4426 59.3927C93.4059 59.3705 93.3729 59.3445 93.3436 59.3149L87.7417 51.9568V59.0815C87.7417 59.1778 87.7087 59.2593 87.6427 59.326C87.584 59.3853 87.5069 59.4149 87.4115 59.4149Z" fill="white"/>
<path d="M99.1467 59.4149C99.0513 59.4149 98.9706 59.3853 98.9046 59.326C98.8459 59.2593 98.8165 59.1778 98.8165 59.0815V50.7341H99.4769V59.0815C99.4769 59.1778 99.4438 59.2593 99.3778 59.326C99.3191 59.3853 99.2421 59.4149 99.1467 59.4149ZM96.0321 51.3343C95.9441 51.3343 95.8707 51.3084 95.812 51.2565C95.7606 51.1972 95.735 51.1231 95.735 51.0342C95.735 50.9453 95.7606 50.8749 95.812 50.823C95.8707 50.7637 95.9441 50.7341 96.0321 50.7341H102.261C102.349 50.7341 102.419 50.7637 102.47 50.823C102.529 50.8749 102.558 50.9453 102.558 51.0342C102.558 51.1231 102.529 51.1972 102.47 51.2565C102.419 51.3084 102.349 51.3343 102.261 51.3343H96.0321Z" fill="white"/>
<path d="M104.709 59.4149C104.613 59.4149 104.533 59.3853 104.467 59.326C104.408 59.2593 104.379 59.1778 104.379 59.0815V51.0676C104.379 50.9638 104.408 50.8823 104.467 50.823C104.533 50.7637 104.613 50.7341 104.709 50.7341H106.811C107.346 50.7341 107.82 50.849 108.231 51.0787C108.649 51.301 108.975 51.6085 109.21 52.0012C109.445 52.394 109.562 52.8497 109.562 53.3684C109.562 53.8723 109.445 54.3206 109.21 54.7133C108.975 55.106 108.649 55.4135 108.231 55.6358C107.82 55.8581 107.346 55.9693 106.811 55.9693H105.039V59.0815C105.039 59.1778 105.01 59.2593 104.951 59.326C104.892 59.3853 104.812 59.4149 104.709 59.4149ZM109.331 59.4149C109.25 59.4149 109.188 59.4001 109.144 59.3705C109.107 59.3334 109.071 59.289 109.034 59.2371L106.844 55.7025L107.526 55.5469L109.606 58.9036C109.702 59.0518 109.72 59.1741 109.661 59.2704C109.61 59.3668 109.5 59.4149 109.331 59.4149ZM105.039 55.3024H106.811C107.222 55.3024 107.581 55.2209 107.889 55.0578C108.205 54.8874 108.451 54.6577 108.627 54.3687C108.81 54.0797 108.902 53.7463 108.902 53.3684C108.902 52.9831 108.81 52.6422 108.627 52.3458C108.451 52.0494 108.205 51.8197 107.889 51.6567C107.581 51.4862 107.222 51.401 106.811 51.401H105.039V55.3024Z" fill="white"/>
<path d="M111.955 59.4149C111.859 59.4149 111.779 59.3853 111.713 59.326C111.654 59.2593 111.625 59.1778 111.625 59.0815V51.0676C111.625 50.9712 111.654 50.8934 111.713 50.8341C111.779 50.7674 111.859 50.7341 111.955 50.7341H117.249C117.337 50.7341 117.414 50.7674 117.48 50.8341C117.546 50.8934 117.579 50.9712 117.579 51.0676C117.579 51.1565 117.546 51.2343 117.48 51.301C117.414 51.3677 117.337 51.401 117.249 51.401H112.285V54.7355H115.928C116.023 54.7355 116.1 54.7689 116.159 54.8355C116.225 54.8948 116.258 54.9726 116.258 55.069C116.258 55.1653 116.225 55.2468 116.159 55.3135C116.1 55.3802 116.023 55.4135 115.928 55.4135H112.285V58.748H117.249C117.337 58.748 117.414 58.7814 117.48 58.8481C117.546 58.9148 117.579 58.9926 117.579 59.0815C117.579 59.1778 117.546 59.2593 117.48 59.326C117.414 59.3853 117.337 59.4149 117.249 59.4149H111.955Z" fill="white"/>
<path d="M120.05 59.4149C119.955 59.4149 119.874 59.3853 119.808 59.326C119.749 59.2593 119.72 59.1778 119.72 59.0815V51.0676C119.72 50.9638 119.749 50.8823 119.808 50.823C119.874 50.7637 119.955 50.7341 120.05 50.7341H122.251C122.787 50.7341 123.26 50.8527 123.671 51.0898C124.089 51.3269 124.416 51.6567 124.65 52.079C124.885 52.494 125.002 52.9719 125.002 53.5129C125.002 54.0538 124.885 54.5354 124.65 54.9578C124.416 55.3802 124.089 55.7099 123.671 55.947C123.26 56.1842 122.787 56.3027 122.251 56.3027H120.38V59.0815C120.38 59.1778 120.351 59.2593 120.292 59.326C120.233 59.3853 120.153 59.4149 120.05 59.4149ZM120.38 55.6358H122.251C122.662 55.6358 123.021 55.5469 123.33 55.3691C123.645 55.1838 123.891 54.9319 124.067 54.6133C124.25 54.2946 124.342 53.9278 124.342 53.5129C124.342 53.0979 124.25 52.7348 124.067 52.4236C123.891 52.105 123.645 51.8567 123.33 51.6789C123.021 51.4936 122.662 51.401 122.251 51.401H120.38V55.6358Z" fill="white"/>
<path d="M127.264 59.4149C127.168 59.4149 127.088 59.3853 127.022 59.326C126.963 59.2593 126.934 59.1778 126.934 59.0815V51.0676C126.934 50.9638 126.963 50.8823 127.022 50.823C127.088 50.7637 127.168 50.7341 127.264 50.7341H129.366C129.901 50.7341 130.375 50.849 130.786 51.0787C131.204 51.301 131.53 51.6085 131.765 52.0012C132 52.394 132.117 52.8497 132.117 53.3684C132.117 53.8723 132 54.3206 131.765 54.7133C131.53 55.106 131.204 55.4135 130.786 55.6358C130.375 55.8581 129.901 55.9693 129.366 55.9693H127.594V59.0815C127.594 59.1778 127.565 59.2593 127.506 59.326C127.447 59.3853 127.367 59.4149 127.264 59.4149ZM131.886 59.4149C131.805 59.4149 131.743 59.4001 131.699 59.3705C131.662 59.3334 131.626 59.289 131.589 59.2371L129.399 55.7025L130.081 55.5469L132.161 58.9036C132.257 59.0518 132.275 59.1741 132.216 59.2704C132.165 59.3668 132.055 59.4149 131.886 59.4149ZM127.594 55.3024H129.366C129.777 55.3024 130.136 55.2209 130.444 55.0578C130.76 54.8874 131.006 54.6577 131.182 54.3687C131.365 54.0797 131.457 53.7463 131.457 53.3684C131.457 52.9831 131.365 52.6422 131.182 52.3458C131.006 52.0494 130.76 51.8197 130.444 51.6567C130.136 51.4862 129.777 51.401 129.366 51.401H127.594V55.3024Z" fill="white"/>
<path d="M134.51 59.4149C134.414 59.4149 134.334 59.3853 134.268 59.326C134.209 59.2593 134.18 59.1778 134.18 59.0815V51.0676C134.18 50.9712 134.209 50.8934 134.268 50.8341C134.334 50.7674 134.414 50.7341 134.51 50.7341C134.605 50.7341 134.682 50.7674 134.741 50.8341C134.807 50.8934 134.84 50.9712 134.84 51.0676V59.0815C134.84 59.1778 134.807 59.2593 134.741 59.326C134.682 59.3853 134.605 59.4149 134.51 59.4149Z" fill="white"/>
<path d="M140.164 59.5261C139.702 59.5261 139.276 59.4631 138.888 59.3371C138.506 59.2037 138.176 59.0185 137.897 58.7814C137.618 58.5368 137.398 58.2516 137.237 57.9255C137.193 57.8366 137.189 57.7514 137.226 57.6699C137.27 57.5884 137.339 57.5328 137.435 57.5032C137.515 57.4735 137.596 57.4772 137.677 57.5143C137.758 57.5513 137.82 57.6106 137.864 57.6921C137.996 57.9292 138.168 58.1367 138.381 58.3145C138.601 58.4924 138.858 58.6295 139.152 58.7258C139.452 58.8147 139.79 58.8592 140.164 58.8592C140.582 58.8592 140.942 58.7888 141.243 58.648C141.551 58.5072 141.786 58.2997 141.947 58.0256C142.116 57.7514 142.2 57.4179 142.2 57.0252C142.2 56.5361 142.024 56.1249 141.672 55.7914C141.327 55.4506 140.799 55.232 140.087 55.1356C139.265 55.0171 138.623 54.7503 138.161 54.3354C137.699 53.913 137.468 53.4017 137.468 52.8015C137.468 52.3643 137.574 51.9827 137.787 51.6567C138.007 51.3306 138.312 51.0787 138.7 50.9008C139.097 50.7156 139.552 50.623 140.065 50.623C140.447 50.623 140.799 50.6859 141.122 50.8119C141.444 50.9379 141.727 51.1046 141.969 51.3121C142.211 51.5122 142.398 51.7234 142.53 51.9457C142.582 52.0272 142.593 52.1161 142.563 52.2124C142.541 52.3013 142.483 52.3643 142.387 52.4014C142.307 52.431 142.226 52.4347 142.145 52.4125C142.064 52.3828 141.998 52.331 141.947 52.2569C141.844 52.1013 141.712 51.9494 141.551 51.8012C141.389 51.653 141.188 51.5307 140.946 51.4344C140.703 51.338 140.41 51.2899 140.065 51.2899C139.463 51.2899 138.99 51.4269 138.645 51.7011C138.301 51.9753 138.128 52.3643 138.128 52.8682C138.128 53.135 138.198 53.3795 138.337 53.6018C138.484 53.8167 138.711 54.0019 139.02 54.1575C139.328 54.3131 139.72 54.4317 140.197 54.5132C141.144 54.6762 141.822 54.9726 142.233 55.4024C142.651 55.8248 142.861 56.3657 142.861 57.0252C142.861 57.4105 142.794 57.7588 142.662 58.07C142.538 58.3812 142.354 58.6443 142.112 58.8592C141.877 59.0741 141.595 59.2408 141.265 59.3594C140.935 59.4705 140.568 59.5261 140.164 59.5261Z" fill="white"/>
<path d="M145.552 59.4149C145.457 59.4149 145.376 59.3853 145.31 59.326C145.251 59.2593 145.222 59.1778 145.222 59.0815V51.0676C145.222 50.9712 145.251 50.8934 145.31 50.8341C145.376 50.7674 145.457 50.7341 145.552 50.7341H150.846C150.934 50.7341 151.011 50.7674 151.077 50.8341C151.143 50.8934 151.176 50.9712 151.176 51.0676C151.176 51.1565 151.143 51.2343 151.077 51.301C151.011 51.3677 150.934 51.401 150.846 51.401H145.882V54.7355H149.525C149.62 54.7355 149.697 54.7689 149.756 54.8355C149.822 54.8948 149.855 54.9726 149.855 55.069C149.855 55.1653 149.822 55.2468 149.756 55.3135C149.697 55.3802 149.62 55.4135 149.525 55.4135H145.882V58.748H150.846C150.934 58.748 151.011 58.7814 151.077 58.8481C151.143 58.9148 151.176 58.9926 151.176 59.0815C151.176 59.1778 151.143 59.2593 151.077 59.326C151.011 59.3853 150.934 59.4149 150.846 59.4149H145.552Z" fill="white"/>
<path d="M156.75 59.4149C156.655 59.4149 156.574 59.3853 156.508 59.326C156.45 59.2593 156.42 59.1778 156.42 59.0815V51.0676C156.42 50.9712 156.45 50.8934 156.508 50.8341C156.574 50.7674 156.655 50.7341 156.75 50.7341H162.044C162.132 50.7341 162.209 50.7674 162.275 50.8341C162.341 50.8934 162.374 50.9712 162.374 51.0676C162.374 51.1565 162.341 51.2343 162.275 51.301C162.209 51.3677 162.132 51.401 162.044 51.401H157.081V54.7355H160.723C160.819 54.7355 160.896 54.7689 160.954 54.8355C161.021 54.8948 161.054 54.9726 161.054 55.069C161.054 55.1653 161.021 55.2468 160.954 55.3135C160.896 55.3802 160.819 55.4135 160.723 55.4135H157.081V59.0815C157.081 59.1778 157.048 59.2593 156.981 59.326C156.923 59.3853 156.846 59.4149 156.75 59.4149Z" fill="white"/>
<path d="M164.85 59.4149C164.755 59.4149 164.674 59.3853 164.608 59.326C164.55 59.2593 164.52 59.1778 164.52 59.0815V51.0676C164.52 50.9638 164.55 50.8823 164.608 50.823C164.674 50.7637 164.755 50.7341 164.85 50.7341H166.953C167.488 50.7341 167.961 50.849 168.372 51.0787C168.79 51.301 169.117 51.6085 169.352 52.0012C169.587 52.394 169.704 52.8497 169.704 53.3684C169.704 53.8723 169.587 54.3206 169.352 54.7133C169.117 55.106 168.79 55.4135 168.372 55.6358C167.961 55.8581 167.488 55.9693 166.953 55.9693H165.181V59.0815C165.181 59.1778 165.151 59.2593 165.093 59.326C165.034 59.3853 164.953 59.4149 164.85 59.4149ZM169.473 59.4149C169.392 59.4149 169.33 59.4001 169.286 59.3705C169.249 59.3334 169.212 59.289 169.176 59.2371L166.986 55.7025L167.668 55.5469L169.748 58.9036C169.843 59.0518 169.862 59.1741 169.803 59.2704C169.752 59.3668 169.642 59.4149 169.473 59.4149ZM165.181 55.3024H166.953C167.363 55.3024 167.723 55.2209 168.031 55.0578C168.347 54.8874 168.592 54.6577 168.768 54.3687C168.952 54.0797 169.044 53.7463 169.044 53.3684C169.044 52.9831 168.952 52.6422 168.768 52.3458C168.592 52.0494 168.347 51.8197 168.031 51.6567C167.723 51.4862 167.363 51.401 166.953 51.401H165.181V55.3024Z" fill="white"/>
<path d="M171.205 59.4149C171.066 59.4149 170.967 59.3593 170.908 59.2482C170.857 59.137 170.857 59.0333 170.908 58.937L174.243 50.9675C174.301 50.8119 174.408 50.7341 174.562 50.7341C174.709 50.7341 174.815 50.8119 174.881 50.9675L178.227 58.937C178.285 59.0407 178.282 59.1482 178.216 59.2593C178.15 59.3631 178.054 59.4149 177.929 59.4149C177.856 59.4149 177.794 59.4001 177.742 59.3705C177.698 59.3334 177.658 59.2778 177.621 59.2037L174.386 51.4121H174.738L171.513 59.2037C171.484 59.2778 171.444 59.3334 171.392 59.3705C171.341 59.4001 171.278 59.4149 171.205 59.4149ZM172.019 57.2364L172.284 56.6362H176.862L177.115 57.2364H172.019Z" fill="white"/>
<path d="M180.385 59.4149C180.29 59.4149 180.209 59.3853 180.143 59.326C180.084 59.2593 180.055 59.1778 180.055 59.0815V51.0676C180.055 50.9712 180.084 50.8934 180.143 50.8341C180.209 50.7674 180.29 50.7341 180.385 50.7341C180.488 50.7341 180.572 50.7712 180.638 50.8453L186.229 58.1923V51.0676C186.229 50.9712 186.258 50.8934 186.317 50.8341C186.383 50.7674 186.464 50.7341 186.559 50.7341C186.647 50.7341 186.724 50.7674 186.79 50.8341C186.856 50.8934 186.889 50.9712 186.889 51.0676V59.0815C186.889 59.1778 186.856 59.2593 186.79 59.326C186.724 59.3853 186.647 59.4149 186.559 59.4149C186.508 59.4149 186.46 59.4075 186.416 59.3927C186.379 59.3705 186.346 59.3445 186.317 59.3149L180.715 51.9568V59.0815C180.715 59.1778 180.682 59.2593 180.616 59.326C180.558 59.3853 180.48 59.4149 180.385 59.4149Z" fill="white"/>
<path d="M193.507 59.5261C192.92 59.5261 192.366 59.4112 191.845 59.1815C191.331 58.9444 190.877 58.6221 190.48 58.2145C190.084 57.7996 189.772 57.3253 189.545 56.7918C189.317 56.2509 189.204 55.6766 189.204 55.069C189.204 54.4687 189.314 53.9019 189.534 53.3684C189.754 52.8274 190.059 52.3532 190.447 51.9457C190.844 51.5307 191.302 51.2084 191.823 50.9786C192.344 50.7415 192.905 50.623 193.507 50.623C194.013 50.623 194.494 50.7045 194.949 50.8675C195.404 51.0305 195.829 51.2787 196.225 51.6122C196.291 51.6641 196.324 51.7382 196.324 51.8345C196.324 51.9234 196.295 52.0049 196.236 52.079C196.178 52.1457 196.097 52.1791 195.994 52.1791C195.965 52.1791 195.936 52.1754 195.906 52.168C195.877 52.1531 195.847 52.1383 195.818 52.1235C195.789 52.1013 195.756 52.0753 195.719 52.0457C195.426 51.7789 195.092 51.5863 194.718 51.4677C194.343 51.3491 193.94 51.2899 193.507 51.2899C193.015 51.2899 192.549 51.3936 192.109 51.6011C191.669 51.8011 191.28 52.079 190.943 52.4347C190.605 52.783 190.341 53.1831 190.15 53.6351C189.959 54.0871 189.864 54.5651 189.864 55.069C189.864 55.5877 189.959 56.0767 190.15 56.5361C190.341 56.9956 190.601 57.3994 190.932 57.7477C191.269 58.096 191.658 58.3701 192.098 58.5702C192.538 58.7628 193.008 58.8592 193.507 58.8592C193.94 58.8592 194.343 58.7925 194.718 58.6591C195.099 58.5257 195.455 58.322 195.785 58.0478C195.844 57.9959 195.913 57.9774 195.994 57.9922C196.075 58.007 196.145 58.0441 196.203 58.1034C196.262 58.1626 196.291 58.2404 196.291 58.3368C196.291 58.3812 196.288 58.422 196.28 58.459C196.273 58.4961 196.251 58.5331 196.214 58.5702C195.855 58.9333 195.437 59.1852 194.96 59.326C194.49 59.4594 194.006 59.5261 193.507 59.5261Z" fill="white"/>
<path d="M198.961 59.4149C198.873 59.4149 198.796 59.3853 198.73 59.326C198.664 59.2593 198.631 59.1778 198.631 59.0815V51.0676C198.631 50.9712 198.664 50.8934 198.73 50.8341C198.796 50.7674 198.873 50.7341 198.961 50.7341C199.057 50.7341 199.134 50.7674 199.192 50.8341C199.258 50.8934 199.291 50.9712 199.291 51.0676V55.1468L203.562 50.8341C203.598 50.7971 203.635 50.7712 203.672 50.7563C203.716 50.7415 203.763 50.7341 203.815 50.7341C203.91 50.7341 203.987 50.7674 204.046 50.8341C204.105 50.8934 204.138 50.9675 204.145 51.0564C204.152 51.1454 204.119 51.2306 204.046 51.3121L200.887 54.5021L204.079 58.8814C204.138 58.9629 204.16 59.0481 204.145 59.1371C204.13 59.2186 204.094 59.2853 204.035 59.3371C203.976 59.389 203.906 59.4149 203.826 59.4149C203.701 59.4149 203.606 59.3668 203.54 59.2704L200.403 54.9911L199.291 56.1138V59.0815C199.291 59.1778 199.258 59.2593 199.192 59.326C199.134 59.3853 199.057 59.4149 198.961 59.4149Z" fill="white"/>
<path d="M210.511 59.4149C210.386 59.4149 210.283 59.389 210.203 59.3371C210.122 59.2778 210.082 59.1926 210.082 59.0815V51.0676C210.082 50.9638 210.111 50.8823 210.17 50.823C210.236 50.7637 210.316 50.7341 210.412 50.7341H213.108C213.519 50.7341 213.893 50.8267 214.231 51.012C214.568 51.1898 214.84 51.4381 215.045 51.7567C215.251 52.0679 215.353 52.4273 215.353 52.8348C215.353 53.2646 215.24 53.6425 215.012 53.9686C214.792 54.2872 214.502 54.528 214.143 54.6911C214.642 54.8318 215.042 55.0912 215.342 55.4691C215.651 55.847 215.805 56.3213 215.805 56.8918C215.805 57.3809 215.695 57.8181 215.474 58.2034C215.262 58.5813 214.965 58.8777 214.583 59.0926C214.201 59.3075 213.765 59.4149 213.273 59.4149H210.511ZM210.742 58.748H213.273C213.64 58.748 213.963 58.6702 214.242 58.5146C214.521 58.3516 214.741 58.133 214.902 57.8588C215.064 57.5772 215.144 57.2549 215.144 56.8918C215.144 56.5362 215.064 56.2212 214.902 55.947C214.741 55.6729 214.521 55.458 214.242 55.3024C213.963 55.1468 213.64 55.069 213.273 55.069H210.742V58.748ZM210.742 54.4021H213.108C213.57 54.4021 213.948 54.2613 214.242 53.9797C214.543 53.6907 214.693 53.3091 214.693 52.8348C214.693 52.3754 214.543 52.0235 214.242 51.7789C213.948 51.527 213.57 51.401 213.108 51.401H210.742V54.4021Z" fill="white"/>
<path d="M218.389 59.4149C218.293 59.4149 218.213 59.3853 218.147 59.326C218.088 59.2593 218.059 59.1778 218.059 59.0815V51.0676C218.059 50.9712 218.088 50.8934 218.147 50.8341C218.213 50.7674 218.293 50.7341 218.389 50.7341H223.682C223.77 50.7341 223.848 50.7674 223.914 50.8341C223.98 50.8934 224.013 50.9712 224.013 51.0676C224.013 51.1565 223.98 51.2343 223.914 51.301C223.848 51.3677 223.77 51.401 223.682 51.401H218.719V54.7355H222.362C222.457 54.7355 222.534 54.7689 222.593 54.8355C222.659 54.8948 222.692 54.9726 222.692 55.069C222.692 55.1653 222.659 55.2468 222.593 55.3135C222.534 55.3802 222.457 55.4135 222.362 55.4135H218.719V58.748H223.682C223.77 58.748 223.848 58.7814 223.914 58.8481C223.98 58.9148 224.013 58.9926 224.013 59.0815C224.013 59.1778 223.98 59.2593 223.914 59.326C223.848 59.3853 223.77 59.4149 223.682 59.4149H218.389Z" fill="white"/>
<path d="M226.484 59.4149C226.396 59.4149 226.319 59.3853 226.253 59.326C226.187 59.2593 226.154 59.1778 226.154 59.0815V51.0676C226.154 50.9712 226.187 50.8934 226.253 50.8341C226.319 50.7674 226.396 50.7341 226.484 50.7341C226.579 50.7341 226.656 50.7674 226.715 50.8341C226.781 50.8934 226.814 50.9712 226.814 51.0676V58.8147H231.337C231.44 58.8147 231.521 58.8444 231.579 58.9036C231.638 58.9555 231.667 59.0259 231.667 59.1148C231.667 59.2037 231.638 59.2778 231.579 59.3371C231.521 59.389 231.44 59.4149 231.337 59.4149H226.484Z" fill="white"/>
<path d="M233.923 59.4149C233.828 59.4149 233.747 59.3853 233.681 59.326C233.623 59.2593 233.593 59.1778 233.593 59.0815V51.0676C233.593 50.9712 233.623 50.8934 233.681 50.8341C233.747 50.7674 233.828 50.7341 233.923 50.7341C234.019 50.7341 234.096 50.7674 234.155 50.8341C234.221 50.8934 234.254 50.9712 234.254 51.0676V59.0815C234.254 59.1778 234.221 59.2593 234.155 59.326C234.096 59.3853 234.019 59.4149 233.923 59.4149Z" fill="white"/>
<path d="M237.333 59.4149C237.237 59.4149 237.156 59.3853 237.09 59.326C237.032 59.2593 237.002 59.1778 237.002 59.0815V51.0676C237.002 50.9712 237.032 50.8934 237.09 50.8341C237.156 50.7674 237.237 50.7341 237.333 50.7341C237.435 50.7341 237.52 50.7712 237.586 50.8453L243.177 58.1923V51.0676C243.177 50.9712 243.206 50.8934 243.265 50.8341C243.331 50.7674 243.411 50.7341 243.507 50.7341C243.595 50.7341 243.672 50.7674 243.738 50.8341C243.804 50.8934 243.837 50.9712 243.837 51.0676V59.0815C243.837 59.1778 243.804 59.2593 243.738 59.326C243.672 59.3853 243.595 59.4149 243.507 59.4149C243.455 59.4149 243.408 59.4075 243.364 59.3927C243.327 59.3705 243.294 59.3445 243.265 59.3149L237.663 51.9568V59.0815C237.663 59.1778 237.63 59.2593 237.564 59.326C237.505 59.3853 237.428 59.4149 237.333 59.4149Z" fill="white"/>
<path d="M67.7267 34.6201L33.8635 68.8199L0 34.6197L33.8632 0.419922L67.7267 34.6201Z" fill="#68B0AB"/>
<path d="M27.9385 47.1627L26.0541 46.7845C26.0599 46.8146 26.0479 46.8326 26.0181 46.8385C25.9883 46.8444 25.9526 46.8201 25.9112 46.7658L24.9018 46.5899C24.8144 46.1382 24.7269 45.6865 24.6394 45.2347C24.5759 44.747 24.5153 44.2743 24.4577 43.8166C24.05 42.9904 23.5502 42.0885 22.9585 41.111C22.3907 40.0975 21.7989 39.12 21.1831 38.1785C20.5615 37.2069 19.9632 36.3557 19.3883 35.625C18.5067 35.549 17.825 35.3866 17.3434 35.1378C16.8858 34.853 16.6278 34.56 16.5695 34.2588C16.5286 34.048 16.5711 33.8676 16.6969 33.7177C16.8466 33.5318 17.0259 33.4182 17.2346 33.377C17.503 33.324 17.8777 33.5001 18.3586 33.9054C18.8338 34.2806 19.2315 34.6554 19.5517 35.0299C20.7788 35.1315 22.2811 34.9755 24.0587 34.5618C24.1127 31.6432 24.2944 28.8244 24.6038 26.1055C24.9074 23.3565 25.1746 20.7397 25.4056 18.2551L24.1541 18.2678C22.1459 18.2893 20.2594 18.3805 18.4949 18.5414C16.7245 18.6722 15.1236 18.8789 13.6923 19.1617C12.4995 19.3973 11.3093 19.7262 10.1216 20.1484C8.95801 20.5345 8.01734 21.033 7.29969 21.6438C6.5762 22.2244 6.29904 22.9515 6.46817 23.8248C6.63147 24.6681 7.20641 25.3988 8.19301 26.0169C9.1796 26.635 10.5007 27.062 12.1563 27.2978C13.8061 27.5035 15.6864 27.4604 17.7971 27.1686C18.9419 27.005 19.9532 26.7114 20.831 26.2879C21.7087 25.8644 22.0747 25.2762 21.9289 24.5232C21.8006 23.8607 21.3559 23.3231 20.5949 22.9106C19.8339 22.4981 18.9293 22.2234 17.8811 22.0865C16.8328 21.9496 15.8167 21.9783 14.8326 22.1727C14.0573 22.3258 13.4246 22.5759 12.9345 22.9228C12.4684 23.2338 12.2849 23.6452 12.3841 24.1572C12.4191 24.3379 12.5315 24.5189 12.7215 24.7003L13.3369 25.0009C13.5042 24.9053 13.6053 24.9478 13.6403 25.1285C13.6695 25.2791 13.5768 25.36 13.3622 25.3711C12.41 25.0902 11.8784 24.6636 11.7676 24.0914C11.6451 23.4589 11.9362 22.9637 12.6409 22.6056C13.3696 22.2115 14.1663 21.9291 15.031 21.7583C16.2238 21.5227 17.4276 21.5038 18.6425 21.7016C19.8514 21.8693 20.8987 22.2409 21.7841 22.8165C22.6936 23.356 23.2329 24.0624 23.402 24.9358C23.5886 25.8995 23.3646 26.7411 22.7299 27.4606C22.125 28.1742 21.2943 28.7604 20.2376 29.2193C19.2049 29.6421 18.1518 29.9595 17.0783 30.1716C15.4084 30.5014 13.7307 30.5514 12.0453 30.3215C10.3598 30.0915 8.89902 29.5827 7.66286 28.795C6.45069 27.9713 5.71046 26.8668 5.44218 25.4815C5.30221 24.7587 5.31134 24.0064 5.46957 23.2247C5.79835 21.5651 6.48883 20.3343 7.54099 19.5324C8.58733 18.7004 9.91564 18.1253 11.5259 17.8073C13.1958 17.4774 15.1004 17.3201 17.2396 17.3353C19.4087 17.3447 21.7119 17.3275 24.1493 17.2838C24.3101 17.3146 24.4978 17.3244 24.7123 17.3133C24.9509 17.2662 25.2102 17.2462 25.4903 17.2535L25.6576 15.7195L27.153 17.2064C28.3153 17.1332 29.5969 17.0364 30.9978 16.916C32.3928 16.7656 33.6868 16.5725 34.8796 16.3369C35.6251 16.1897 36.2902 16.027 36.8749 15.849C37.4836 15.635 37.9673 15.4144 38.3257 15.1872C38.5948 14.9777 38.7504 14.8219 38.7925 14.7198C38.8347 14.6177 38.8499 14.5365 38.8382 14.4763C38.846 14.037 38.9394 13.7996 39.1183 13.7643C39.2674 13.7349 39.4188 13.8769 39.5724 14.1905C39.8433 14.95 39.4712 15.5863 38.456 16.0995C37.4706 16.6069 36.2175 17.0107 34.6967 17.3111C33.6232 17.5231 32.4962 17.6989 31.3157 17.8382C30.1592 17.9416 29.0773 18.0302 28.0699 18.1041L28.7466 18.7209C28.3517 20.5186 27.9908 22.7318 27.6639 25.3604C27.337 27.9889 27.1346 30.7805 27.0566 33.7352C28.1068 33.4027 29.1511 33.0401 30.1896 32.6473C31.2223 32.2245 32.1925 31.7983 33.1 31.3689C33.2375 31.2792 33.3509 31.2256 33.4404 31.2079C33.5597 31.1843 33.664 31.1637 33.7535 31.146C34.1411 31.0695 34.3525 31.1215 34.3875 31.3022C34.4166 31.4528 34.2222 31.6476 33.804 31.8865C32.5438 32.5732 31.3526 33.1368 30.2304 33.5773C29.1082 34.0178 28.0341 34.3863 27.0079 34.6828C26.9928 36.8433 27.0374 38.992 27.1416 41.129C27.2757 43.26 27.5413 45.2713 27.9385 47.1627ZM18.7388 34.9091C18.4957 34.6131 18.2494 34.3804 17.9998 34.2108C17.7801 34.0353 17.584 33.9021 17.4116 33.8111C17.1309 33.9603 17.136 34.1469 17.4271 34.3708C17.7181 34.5948 18.1554 34.7742 18.7388 34.9091ZM24.3032 42.2994C24.2008 41.1314 24.1163 39.9755 24.0496 38.8318C24.0128 37.6821 24.0057 36.5266 24.0285 35.3651C23.307 35.4764 22.6123 35.5667 21.9446 35.636C21.3068 35.6995 20.7049 35.7089 20.1389 35.6644C20.8383 36.5581 21.5491 37.5903 22.2712 38.7609C23.023 39.9257 23.7004 41.1052 24.3032 42.2994Z" fill="#F3F3F1"/>
<path d="M39.3661 58.7516C39.2546 58.7736 39.1631 58.6748 39.0916 58.4551C38.973 57.5434 38.8822 56.6263 38.8192 55.7036C38.7563 54.7809 38.7297 53.8218 38.7394 52.8263L36.0441 52.1313C35.7444 49.239 35.698 46.3843 35.9047 43.5673C36.1394 40.7448 36.4713 37.9762 36.9004 35.2614C36.4993 35.2821 36.1122 35.3001 35.739 35.3154C35.3882 35.297 35.0514 35.2759 34.7285 35.252C34.0772 35.1761 33.5125 35.0246 33.0346 34.7976C32.5844 34.565 32.3294 34.294 32.2694 33.9843C32.2313 33.7873 32.2989 33.6133 32.4721 33.4621C32.64 33.2829 32.8214 33.174 33.0165 33.1355C33.4012 33.0302 33.9668 32.9624 34.7132 32.9318C35.4541 32.8731 36.3147 32.8347 37.295 32.8164C37.575 31.1246 37.8686 29.5032 38.1759 27.9521C38.4777 26.3729 38.7487 24.8583 38.9887 23.4082L41.6575 26.4316C41.1212 28.1448 40.5997 30.308 40.093 32.9212L41.5043 33.037L41.7761 31.9751C42.0422 30.9582 42.387 29.7504 42.8106 28.3517C43.2287 26.9249 43.7526 25.521 44.3821 24.1401C45.0117 22.7591 45.7518 21.5755 46.6025 20.5893C47.4756 19.5694 48.4834 18.9466 49.626 18.7209C50.6796 18.4835 51.6038 18.5494 52.3987 18.9184C53.1935 19.2874 53.8399 19.8611 54.3378 20.6394C54.8637 21.4122 55.2192 22.2771 55.4046 23.2341C55.5735 24.1066 55.5919 25.0235 55.4598 25.9847C55.3555 26.9405 55.0928 27.8252 54.6717 28.639C54.2112 29.5481 53.5114 30.4169 52.5723 31.2453C51.661 32.0682 50.6759 32.5843 49.6169 32.7934C49.2546 32.865 48.8063 32.8659 48.2719 32.7961C47.7654 32.7208 47.1499 32.7547 46.4253 32.8978C46.2581 32.9309 46.0936 32.9779 45.9318 33.0391C45.7646 33.0721 45.5862 33.122 45.3966 33.1887L45.313 33.2052C45.1009 33.3055 44.9531 33.3639 44.8695 33.3805L47.2068 33.7955C48.1695 33.9852 49.243 34.2992 50.4274 34.7374C51.6396 35.1701 52.8404 35.6927 54.0296 36.3053C55.2134 36.8897 56.2826 37.5552 57.2374 38.3017C58.5471 39.3872 59.5452 40.4321 60.2315 41.4362C60.9124 42.4122 61.3401 43.3505 61.5145 44.2512C61.7598 45.5177 61.5628 46.6671 60.9236 47.6993C60.3122 48.7259 59.3952 49.5938 58.1726 50.3029C56.9445 50.9838 55.578 51.4729 54.0731 51.7701C52.6796 52.0453 51.2507 52.1376 49.7864 52.047C48.3166 51.9282 46.9396 51.6157 45.6552 51.1096C44.3042 50.5582 43.1381 49.7657 42.1567 48.7322C41.1753 47.6987 40.5728 46.605 40.3494 45.451C40.1259 44.297 40.2665 43.3049 40.7712 42.4746C41.3038 41.6388 42.0809 40.9447 43.1024 40.3923C44.1238 39.8399 45.2477 39.4425 46.4739 39.2003C47.31 39.0352 48.2236 38.9716 49.2148 39.0096C50.2005 39.0195 51.1635 39.1361 52.1037 39.3595C53.0385 39.5548 53.8225 39.8675 54.4555 40.2977C55.1165 40.7224 55.5096 41.2584 55.635 41.9058C55.8039 42.7783 55.3771 43.637 54.3544 44.4819C53.3595 45.3213 51.9288 45.8523 50.0622 46.0749C49.6332 46.1012 49.1013 46.1186 48.4664 46.1271C47.8539 46.1019 47.2165 46.0233 46.5544 45.8911C45.9201 45.7534 45.353 45.5147 44.8532 45.1751C44.3813 44.8299 44.0854 44.3478 43.9654 43.7286C43.8619 43.1938 43.9222 42.7581 44.1464 42.4216C44.2136 42.3207 44.2751 42.2647 44.3309 42.2537C44.3866 42.2427 44.4227 42.2794 44.439 42.3638C44.4554 42.4483 44.4466 42.5523 44.4126 42.6759C44.3175 42.7823 44.3027 43.0044 44.3681 43.3422C44.4825 43.9333 44.7563 44.376 45.1895 44.6703C45.6172 44.9365 46.1288 45.1131 46.7243 45.2C47.3199 45.2869 47.9018 45.3035 48.4701 45.2497C49.0384 45.1959 49.5037 45.1332 49.866 45.0616C51.1649 44.7466 52.1276 44.2642 52.7541 43.6145C53.403 42.9311 53.6648 42.2657 53.5394 41.6183C53.3977 40.8865 52.9182 40.353 52.1009 40.0176C51.2782 39.6541 50.3268 39.4475 49.2466 39.3979C48.1664 39.3482 47.1664 39.4142 46.2467 39.5959C45.3828 39.7665 44.5879 40.0696 43.8621 40.5052C43.1308 40.9127 42.5634 41.4193 42.1598 42.025C41.7787 42.597 41.659 43.249 41.8008 43.9808C41.9861 44.9378 42.5728 45.8008 43.5609 46.57C44.5768 47.3337 45.6803 47.8025 46.8714 47.9763C47.8565 48.1324 48.9115 48.2016 50.0366 48.184C51.184 48.1327 52.2734 48.0052 53.3045 47.8015C54.5029 47.5648 55.5792 47.2207 56.5334 46.7692C57.5155 46.3122 58.2614 45.7558 58.7709 45.0999C59.3029 44.4104 59.4844 43.6294 59.3154 42.7568C59.2064 42.1939 58.9138 41.5796 58.4377 40.9138C57.9561 40.22 57.2519 39.497 56.325 38.7449C54.9431 37.586 53.3795 36.609 51.6341 35.8141C49.9166 35.0136 48.3484 34.4613 46.9296 34.1571C46.451 34.0763 45.9724 33.9955 45.4938 33.9147C45.043 33.8284 44.5811 33.7589 44.1079 33.7062C43.645 33.8561 43.1961 34.0032 42.7611 34.1476C42.354 34.2864 41.9441 34.4112 41.5315 34.522C40.9752 37.0281 40.4739 39.6695 40.0279 42.4461C39.5818 45.2227 39.2917 47.9831 39.1576 50.7273C39.0181 53.4434 39.1215 55.9945 39.4679 58.3808C39.5115 58.606 39.4776 58.7296 39.3661 58.7516ZM44.2433 33.285C44.7008 33.1069 45.1415 32.9176 45.5656 32.717C46.0176 32.5108 46.4223 32.2847 46.7798 32.0388C48.6901 30.6971 50.2209 28.8898 51.3721 26.6168C51.7315 25.9322 52.0359 25.0392 52.2856 23.9378C52.5577 22.8028 52.6093 21.7991 52.4403 20.9266C52.315 20.2792 52.0442 19.7774 51.628 19.4213C51.2064 19.037 50.5636 18.9302 49.6996 19.1008C48.6127 19.3155 47.6552 19.8992 46.8269 20.8518C45.9986 21.8044 45.281 22.9543 44.6738 24.3016C44.0667 25.6489 43.5513 27.0219 43.1277 28.4206C42.7266 29.7856 42.3984 31.0047 42.1433 32.0779L41.8969 33.0471C42.3089 33.0826 42.7069 33.1209 43.091 33.1619C43.4697 33.1748 43.8538 33.2158 44.2433 33.285ZM32.7786 30.114C31.9316 30.2229 31.0968 30.0956 30.2741 29.732C29.4738 29.3349 28.9647 28.5734 28.7466 27.4475C28.6376 26.8846 28.8709 26.371 29.4465 25.9066C30.0166 25.4141 30.8009 24.9816 31.7993 24.609C32.8257 24.231 33.9435 23.9517 35.1527 23.7713C35.4593 23.7108 35.9722 23.5949 36.6913 23.4236C37.4105 23.2523 38.1075 23.0416 38.7824 22.7914C39.4852 22.5357 39.9681 22.265 40.231 21.9793C40.2983 21.8783 40.3292 21.8138 40.3238 21.7856C40.3407 21.7238 40.3465 21.6788 40.341 21.6507C40.2804 21.4873 40.2753 21.3861 40.3256 21.3469C40.4037 21.3022 40.4871 21.3588 40.5755 21.5167C40.7524 21.8324 40.6927 22.1219 40.3964 22.3849C40.128 22.6425 39.726 22.8826 39.1904 23.1053C38.6548 23.328 38.0972 23.5112 37.5174 23.655C36.9376 23.7987 36.4247 23.9146 35.9788 24.0027C35.5607 24.0852 35.3099 24.1348 35.2263 24.1513C33.2925 24.4748 31.7618 24.9379 30.6343 25.5405C29.5067 26.1431 29.0029 26.754 29.1229 27.3732C29.2264 27.908 29.5757 28.292 30.1706 28.5251C30.7934 28.7528 31.5646 28.7758 32.4843 28.5942C33.4597 28.4015 34.1513 28.1626 34.559 27.8775C34.9613 27.5643 35.138 27.281 35.0889 27.0277C35.0126 26.6336 34.5485 26.4038 33.6967 26.3383C33.5574 26.3658 33.4768 26.3233 33.455 26.2107C33.4277 26.07 33.5338 26.0198 33.7731 26.0602C34.3299 26.0964 34.7748 26.2276 35.108 26.454C35.4636 26.6468 35.6905 26.9965 35.7886 27.5031C35.8867 28.0098 35.754 28.4451 35.3905 28.8091C35.027 29.1732 34.5913 29.4638 34.0836 29.6809C33.5759 29.8981 33.1409 30.0425 32.7786 30.114ZM36.9695 34.7217L37.2014 33.2294C35.3523 33.2439 33.9819 33.3393 33.0901 33.5154C32.7496 33.6996 32.8071 33.922 33.2627 34.1827C33.7183 34.4434 34.3302 34.6147 35.0984 34.6968C35.577 34.7776 36.2007 34.7859 36.9695 34.7217ZM39.7858 34.4723L41.2489 34.1833C41.2828 34.0597 41.3029 33.9388 41.3089 33.8207C41.3429 33.6972 41.3741 33.5595 41.4025 33.4077L39.9994 33.3342L39.7858 34.4723ZM41.6669 34.1007C41.9681 34.012 42.258 33.9401 42.5367 33.8851C42.8099 33.8019 43.0943 33.7019 43.39 33.585C43.1228 33.5501 42.8584 33.5293 42.5966 33.5226C42.3295 33.4877 42.065 33.4668 41.8033 33.4601L41.6669 34.1007ZM38.7513 51.9911C38.8024 49.1171 39.0598 46.1879 39.5234 43.2032C40.0095 40.1849 40.5562 37.33 41.1635 34.6385L39.7003 34.9275C39.2488 37.6759 38.9081 40.5486 38.6783 43.5455C38.4709 46.5088 38.4952 49.3239 38.7513 51.9911Z" fill="#F3F3F1"/>
</svg>
