<svg width="28" height="30" viewBox="0 0 28 30" fill="none" xmlns="http://www.w3.org/2000/svg">
<path fill-rule="evenodd" clip-rule="evenodd" d="M0.874967 21.5625C0.874967 21.8111 0.973739 22.0496 1.14955 22.2254C1.32537 22.4012 1.56383 22.5 1.81247 22.5H23.9243L18.0237 28.3987C17.8477 28.5748 17.7488 28.8135 17.7488 29.0625C17.7488 29.3114 17.8477 29.5502 18.0237 29.7262C18.1998 29.9023 18.4385 30.0011 18.6875 30.0011C18.9364 30.0011 19.1752 29.9023 19.3512 29.7262L26.8512 22.2262C26.9385 22.1391 27.0078 22.0357 27.055 21.9218C27.1023 21.8079 27.1266 21.6858 27.1266 21.5625C27.1266 21.4391 27.1023 21.317 27.055 21.2032C27.0078 21.0893 26.9385 20.9858 26.8512 20.8987L19.3512 13.3987C19.1752 13.2227 18.9364 13.1238 18.6875 13.1238C18.4385 13.1238 18.1998 13.2227 18.0237 13.3987C17.8477 13.5748 17.7488 13.8135 17.7488 14.0625C17.7488 14.3114 17.8477 14.5502 18.0237 14.7262L23.9243 20.625H1.81247C1.56383 20.625 1.32537 20.7237 1.14955 20.8996C0.973739 21.0754 0.874967 21.3138 0.874967 21.5625ZM27.125 8.43746C27.125 8.6861 27.0262 8.92456 26.8504 9.10038C26.6746 9.27619 26.4361 9.37496 26.1875 9.37496H4.07559L9.97622 15.2737C10.0634 15.3609 10.1325 15.4644 10.1797 15.5782C10.2269 15.6921 10.2512 15.8142 10.2512 15.9375C10.2512 16.0607 10.2269 16.1828 10.1797 16.2967C10.1325 16.4106 10.0634 16.514 9.97622 16.6012C9.88905 16.6884 9.78557 16.7575 9.67169 16.8047C9.5578 16.8519 9.43574 16.8761 9.31247 16.8761C9.1892 16.8761 9.06713 16.8519 8.95325 16.8047C8.83936 16.7575 8.73588 16.6884 8.64872 16.6012L1.14872 9.10121C1.06141 9.01413 0.992143 8.91068 0.944881 8.79678C0.897619 8.68288 0.873291 8.56078 0.873291 8.43746C0.873291 8.31415 0.897619 8.19205 0.944881 8.07815C0.992143 7.96425 1.06141 7.8608 1.14872 7.77371L8.64872 0.273714C8.82475 0.0976761 9.06351 -0.0012207 9.31247 -0.0012207C9.56142 -0.0012207 9.80018 0.0976761 9.97622 0.273714C10.1523 0.449751 10.2512 0.688509 10.2512 0.937464C10.2512 1.18642 10.1523 1.42518 9.97622 1.60121L4.07559 7.49996H26.1875C26.4361 7.49996 26.6746 7.59874 26.8504 7.77455C27.0262 7.95037 27.125 8.18882 27.125 8.43746Z" fill="#68B0AB"/>
</svg>
