<svg width="30" height="30" viewBox="0 0 30 30" fill="none" xmlns="http://www.w3.org/2000/svg">
<g clip-path="url(#clip0_8_27)">
<path d="M7.5 14.5083V22.5H15.4917L13.825 20.8333H9.16667V16.175L7.5 14.5083Z" fill="#68B0AB"/>
<path d="M29.0583 26.9085L26.6666 24.4835V26.6668H3.33331V23.2085H4.99997V21.8751H3.33331V16.3335H4.99997V15.0001H3.33331V9.66679H4.99997V8.33346H3.33331V3.67513L16.6166 16.8835V14.5335L3.09164 1.07513C2.97508 0.957602 2.82616 0.877452 2.66387 0.844894C2.50158 0.812335 2.33328 0.828845 2.18041 0.892317C2.02754 0.95579 1.89703 1.06335 1.80553 1.20128C1.71403 1.33922 1.66568 1.50127 1.66664 1.66679V27.5001C1.66664 27.7211 1.75444 27.9331 1.91072 28.0894C2.067 28.2457 2.27896 28.3335 2.49997 28.3335H28.4666C28.6322 28.3344 28.7942 28.2861 28.9321 28.1946C29.0701 28.1031 29.1776 27.9726 29.2411 27.8197C29.3046 27.6668 29.3211 27.4985 29.2885 27.3362C29.256 27.1739 29.1758 27.025 29.0583 26.9085Z" fill="#68B0AB"/>
<path d="M20 25.0001H23.3334C23.7754 25.0001 24.1993 24.8245 24.5119 24.5119C24.8244 24.1994 25 23.7755 25 23.3334V7.2501L23.0834 3.7251C22.9351 3.46828 22.7211 3.25566 22.4633 3.10917C22.2054 2.96269 21.9132 2.88764 21.6167 2.89176C21.3135 2.89417 21.0167 2.97925 20.7582 3.13784C20.4998 3.29643 20.2895 3.52252 20.15 3.79176L18.3334 7.26676V23.3334C18.3334 23.7755 18.509 24.1994 18.8215 24.5119C19.1341 24.8245 19.558 25.0001 20 25.0001ZM20 7.66676L21.6167 4.5251L23.3334 7.6751V20.0001H20V7.66676ZM20 21.3584H23.3334V23.3918H20V21.3584Z" fill="#68B0AB"/>
</g>
<defs>
<clipPath id="clip0_8_27">
<rect width="30" height="30" fill="white"/>
</clipPath>
</defs>
</svg>
